<mxfile host="app.diagrams.net" agent="Mozilla/5.0 (Macintosh; Intel Mac OS X 10_15_7) AppleWebKit/537.36 (KHTML, like Gecko) Chrome/129.0.0.0 Safari/537.36" version="24.7.16">
  <diagram name="Choreo-console-secret" id="Lzwnq9p0zWSpq-3clkYz">
    <mxGraphModel dx="4097" dy="2174" grid="1" gridSize="10" guides="1" tooltips="1" connect="1" arrows="1" fold="1" page="1" pageScale="1" pageWidth="827" pageHeight="1169" math="0" shadow="0">
      <root>
        <mxCell id="0" />
        <mxCell id="1" parent="0" />
        <mxCell id="hO_gINSzXX099s7IQLVb-1" value="" style="shape=image;verticalLabelPosition=bottom;labelBackgroundColor=default;verticalAlign=top;aspect=fixed;imageAspect=0;image=data:image/png,iVBORw0KGgoAAAANSUhEUgAABMQAAAM3CAYAAADSkYzDAAABXWlDQ1BJQ0MgUHJvZmlsZQAAKJF1kM9KAlEUxr8pQ6qBglxEFMxOAgubfAEzqShMNPvjbhynMdDpNjMRQoseIuoNok1QEEgQ/XuCIFBo1UraB25qmM51KrXowuH78XHO4dwP6BIVxoo+ACXDNlNzM9L6Rlbyv6IXIwggiCFFtVg0mVyiFnxr52tUIXB9muC76rNXY/cXidrt+aJTPju+/Nvf8frymqWSflBFVGbagBAmTu7ZjPMBccCko4gPOesen3LOeXzd7FlJxYgfiQfVgpInfiEO5dp8vY1LxV316wZ+vagZmTTpMNUookgjQyVhFVnIiCCOecT/mYk0Z2LYBkMZJragowCbpqPkMBShES/AgIpJhIhlhPlWnvXvDFuesg9MrRHUW56RAG6WgYFqywuK9B3K4WGHKabyk6zQ8Fmb07LH/RWg58h132iffxxwaq77XnFd5wTofgbuGp+SsGWvaMgHSgAAAFZlWElmTU0AKgAAAAgAAYdpAAQAAAABAAAAGgAAAAAAA5KGAAcAAAASAAAARKACAAQAAAABAAAExKADAAQAAAABAAADNwAAAABBU0NJSQAAAFNjcmVlbnNob3QSoh13AAAB12lUWHRYTUw6Y29tLmFkb2JlLnhtcAAAAAAAPHg6eG1wbWV0YSB4bWxuczp4PSJhZG9iZTpuczptZXRhLyIgeDp4bXB0az0iWE1QIENvcmUgNi4wLjAiPgogICA8cmRmOlJERiB4bWxuczpyZGY9Imh0dHA6Ly93d3cudzMub3JnLzE5OTkvMDIvMjItcmRmLXN5bnRheC1ucyMiPgogICAgICA8cmRmOkRlc2NyaXB0aW9uIHJkZjphYm91dD0iIgogICAgICAgICAgICB4bWxuczpleGlmPSJodHRwOi8vbnMuYWRvYmUuY29tL2V4aWYvMS4wLyI+CiAgICAgICAgIDxleGlmOlBpeGVsWURpbWVuc2lvbj44MjM8L2V4aWY6UGl4ZWxZRGltZW5zaW9uPgogICAgICAgICA8ZXhpZjpQaXhlbFhEaW1lbnNpb24+MTIyMDwvZXhpZjpQaXhlbFhEaW1lbnNpb24+CiAgICAgICAgIDxleGlmOlVzZXJDb21tZW50PlNjcmVlbnNob3Q8L2V4aWY6VXNlckNvbW1lbnQ+CiAgICAgIDwvcmRmOkRlc2NyaXB0aW9uPgogICA8L3JkZjpSREY+CjwveDp4bXBtZXRhPgpvr71fAABAAElEQVR4AeydBZxUZffHD410gyAIikiDGIBYYKGoiN3d3d312t3dnX8DMTCQsBFFVKSR7m7+z+9Zn/HuMLs7uzsDszvf835259779Pc+O6/3xznnllnrzDAIQAACEIAABCAAAQhAAAIQgAAEIAABCGQJgbJZsk6WCQEIQAACEIAABCAAAQhAAAIQgAAEIAABTwBBjI0AAQhAAAIQgAAEIAABCEAAAhCAAAQgkFUEEMSy6nazWAhAAAIQgAAEIAABCEAAAhCAAAQgAAEEMfYABCAAAQhAAAIQgAAEIAABCEAAAhCAQFYRQBDLqtvNYiEAAQhAAAIQgAAEIAABCEAAAhCAAAQQxNgDEIAABCAAAQhAAAIQgAAEIAABCEAAAllFAEEsq243i4UABCAAAQhAAAIQgAAEIAABCEAAAhAoD4LsILBkyTJbtHiprVix0tauzY41s8q8CZQpY1axYgWrVnUjq1Klct4VE5T8t5dWub3EZkqAqNRfKuM2UMWK5Yu0f74cOts+/Hym/Tlmka1cxf4p9ZslyQVWKF/Gtty8mvXZtb7t0r1ukq2oBgEIQAACEIAABCAAgaITKOMeaHkiKTq/EtFy3vxFtnz5CqtRvapVrlzR9DCLZTcB/dkvW7bCFixcbJUqVbRaNaslBYS9lBSmUl+pqPvniZcn2fCRC6xf74bWoXV1q1gBJ+VSv1mSXOCKlWvs1z8W2jsfT7fO7WrYyUc0TbIl1SAAAQhAAAIQgAAEIFA0AghiReNWYlrJm2fhoiXWoH5thLASc9fW30QlbMyYOdeqV6tSoKcYe2n93ZeSMlJh9o88w974YJpdc15LhLCScoM3wDwljN1w79928D6N8BTbAPwZEgIQgAAEIAABCGQTAf55vpTfbYVJyjMMr7BSfqOLuDztC+0P7ZOCjL1UEKHsKy/M/lGYpDzD8ArLvn1SmBVrf2ifaL9gEIAABCAAAQhAAAIQSCcBBLF00s2AvpUzTGGSGATyIqD9oX1SkK1YsYq9VBCkLCzP2T+rCly5coYpTBKDQEEEtE+0XzAIQAACEIAABCAAAQikkwCCWDrpZkDfyhCHd1gG3IgMnoL2RzKZBBUex17K4Bu5gaaWs38KTkWpBPp4h22gm1TChtU+4YULJeymMV0IQAACEIAABCBQAgkgiJXAm8aUIQABCEAAAhCAAAQgAAEIQAACEIAABIpOAEGs6OxoCQEIQAACEIAABCAAAQhAAAIQgAAEIFACCSCIlcCblu4pL1m6LN1D0D8EIACBAgksX768wDpUgAAEIAABCEAAAhCAAAQgUBQC5YvSiDalj4CSqn/2xTCbMnWmVdmosn/rYKstNrWdenSxsmXXj2762FNv2onH9rPy5csVGvDoMROtrMuFtflmTX3bn3/5w5Y6YW/7bp0L3RcNik7g+x9/s2+GDreqVTbynSjh+tZbtbV2bTZPutNp02fbN0N+soP67Z50m2jF+L0QLeO4ZBAY8dsoG/n7n7aR+y5avnyF1a1b2/0tb+O+m3L2VclYRcGzHD9xsv/eata0ScGVqQEBCEAAAhCAAAQgAAEIpJQAglhKcZbczl5/+xPr0G4L23vPHf0ilEB90OCf7KMB39g+e+20XhZ29OH7FEkM0+Tmzl3ghLsysXl2aNfS1qwpONF3rAEHKSPQfbuO1s39yCRmvPrGx7ZJk4ZWs0a1pMZo2KCO9emdsw+TahBXKX4vxBVz+i+Brwb9YDvvuE1CHvmVJWyQwovf//iLLVq0yA45cF8rVy5HHB8zboL1HzDQ9t+3d+xaCofcYF3Nn+++t5yQb6VEEPv2+5+t67ZbJeSZX1nCBlyEAAQgAAEIQAACEIBAmgkgiKUZcEnofszYSd4To1OHVrHp6s1xO+2wtT313Ds2Z858+2fKDJu/cJGN/nuibbdNe5No8cFHX9u8BYusdq3q1rb15u4NhGbbdGln8jbr/8k3Nm78P1bFeQrttEMX+/2PsXbAfru664Ntk8YN7DvnSaR6227d3rVp68d95/2BduShe9unA4fahIlT/bXVq9d4IeWwg3vbnLnz7f2PvrK58xZa3To1rX3blr4PzfWbIT+712maff/jSC/qLVm61HmILbcundvY/PkL7YOPB9nMmXP8OvfcfXtr3qyxX9ew73/1b04cPWaCNdm4gfXaZTu3nhoxDhwUj0ClShWt1RbNbey4yVbeiRvRPaR9kOi+zHP3d+h3I9x93MHfX4myk/6Z5oWDXZyA087dd9lYt78++WyIFz6bbtLQdu/VzUb8NnqdvbBps42Lt4hS2lpiWCLhK9G19YVg5cqVNurP0XbkYQdYuYhn6uYtNrUa1au5t6GutVWrVtmgId+574gc76pOHdtZpw453yHvfTDAmjRuZL8577KqVarYrj13cML+tzZv3nxr0byZ9ei+rRfUvho0zBo3bmg/D//VFi9Z6r7P6luvnXtY5cqVCuy/5eYtbPgvv/m6Xbft4sTenP0lb6/Bbl6rV6+2evXqxvrTWI0a1rdffv3dtL6Obq4d2rX25z/89Iv72ipjI0b+Ybvs2N3PfX2xTsc4EsMSCV+JrqVjfPqEAAQgAAEIQAACEIBAYQgUSRC79977TT/dunVzP9vZeeedk3DMYcO+dfUesGHDhiUsT+ZiQWMk0wd18icwbcZsJxAlFg0kJqh8mcvl890Pv9lhB/W2xhvXt5de+8i6Oi+g1q2a+zDL19/6JCZs/fjz7154OuOUQ23JkmX2fv+vbI0TtmSLFi0xhTMqHE4CyYuvfmht22zmwzQlXMl279Xdf+rh95XX+/uQO1345LOhto0Lv2vrwu8m/zPd3nr3M+vcqbV7kMzxcpGHmAQ52fARf9qyZcv9A/Rrbw2w7l07eQFNwt67739hxxyxj61yD64/DR9l+zoPuD136+6Pv3UCWe/de/g++FV8AhI9//xrnB2w/27+M+yhjRvVsyeeeSvhfVm9ZrXfJxr9h59GWv36tW2/Pjvb4sVLTZ6MEtiWOBGj/4BB1s+JrNqPI377ywZ+9V3MwzG6F4q/itLbQ7wotiHFMFGePWeeNahfN5cYFujXdyKTTAKTPMeOOKSf/176bOAgq1atqkk0mzlrtmtfz44+4iD76ecR7vvjXff3vIs137SpDfxysE2aPMUfL17ivoecGLZbr52c0FbdfSf9aj8OH2E9um1rg4f+kG//tWrW8N5r89z31edfDnLfiX1t9Zo19p3zjtpn7929cPfryFFO8BrpvKW6OMFtiY0c9ZfttWdP3+977w+wlps3j4l48hDr0L5NWGaJ/4wXxRDDSvwtZQEQgAAEIAABCECg1BIodHKoIIaJiIQunUv4irfDDjvKDjvsyGKJYdExNA6WHgISplatWp2wc11XuaxF8yZefFi4aLEXuNps2cJ7VzVxnj4d228Raz/qz3G2s/Muq1ixgtVy3mPdts0JnwsVturc2nt9Va26kbVquamNHTs5FOX6/NqFbDZywskWLZuZEv0vc+F38g6SR1jTTRrFPIVyNYo7mTlrrgvDLO/DQdVOoXut3bz/+nuCr1mrZnXr1HFLnyetU4ctvVdbXBecFpKABNEXX/nAXnA/9z38sm26aWMnElT1vYQ9VNB9CUP+OXq8NahXx9+X6c7Dr379OqZrf46eYG223MzvR9Xt2L5VTAwLbflMjkAQxTa0GKbZKn9gXt9FYTVjx09w3ylb+e8XeY1tvVUH+2v02FBsnZ3HmLzLWrXczHuJbb5Zcy9EbdGyhU2c9E+sXod2baxO7Vp+zK236miT/i3Lt38Xha26FSpUsPpuX1Zw3y2LFy+xCRMmOa/V2s4bdYEX3SSyjRs/MTZWu7atrHq1aj4HWovmTWNjxSqUsoMgiiGGlbIby3IgAAEIQAACEIBAKSNQaA+xRMKUBLFu3brG0OSIZDleYcHDK1ZYyINhw76LCW9qGvVG07hBjIteL+QQWV9dHjbKF9Z12w65WMhDa/yEKT4x/fwFC31IYahQJpKvS9ei5wppqlDhv60l4StqjRrWi51WqeKSZq9YETsPB2NciN2kSVNd6FQff0m5qJSgPWpK3L7ChSDlZ3q4DgneQ72qbsyVK3MEwEYNc7xOVKY5r3GeHljxCCiB/lYuVFVWzd37kAdK5wpLlRV0X3wl92u2C9dd4EJ1gzVxe7VO7Zq2YMFiF45bOVzms5QQqF2rprvnc32orAT1qI0ZO94J4Y29IC6RO5gS7+s7R1a5UiXvnarjihUrWvV/hdhwvvLfejpXu2D+xSFOMFe4o4TzPPt3IZXyRgumEEt9B82bt8CHQy5YmOPlqvL2LiwyWP26dcKh+x6r7NcXu8ABBCAAAQhAAAIQgAAEILBBCPz3VJHk8BK4CgqBDKKZRKpUCFXyNgveaNH+JIZpLM0JKzoBeVuVLVfWhrm8TSEZuoShTwcO815hwbtHD4qy6u6BUMfy1JGH19Rps1x40F8+nFHletPjyFFjvFeWRLXvXdhbYWyBy0v2mRv7qMP7+HHUVnm9li9b4R48F3qvM4Xi/fLrn9am9Wa+a4kjc1xi/Xhr4MLtFPKp/GMSUtROeab67tMzvirnKSIgkSCvBPphDyV7Xxo3qm81nRdfy3/fHqqQSwkl8jT7wIXiKkeczuVx9udf422H7bfyQlmivZCi5ZW6bqKeYdHjDbFQiaed2rf1oYi79dwpJqz/NXqM+74Z675bmjvPrLreI6z1li19SPSvv/1hRXlLo/KMNW3axHuTTZr8j+9X4xelf+UjGzdhonub6pb+O2uR8xob9cfoAhFu5MSx+QvW/d4qsGGGV4h6hkWPM3zaTA8CEIAABCAAAQhAIMsIFFoQO++8s10oZI73l1hJjIoXqQLDqNdYuFaUz+iY8d5oRemPNusSUMJ7CWCPPvmG96qQKKWQSCXWT2R686QS2MuzrFrVKj7R/tp/3+qoRPmvvTnA5xyTZ1cHF045L4FYlahfXfv40yHea+zt9z73VSq68KRDD9rTvxHvmRffs3p1apnCNrdwYlywzVs0dfPpb+OcZ1mfyFsx5enRb79ePldZrRrVbdbsea6frV2S67o2w4XgYRuGQH73ZdbsubFJ7e3eNqnQ2R/cXlOepnp1a/kfVejsQl0ffPRVF1Zb13n2rImFTMbvBbXBEhOIF8BC+KQ+N5R17tTOyv5Wxn2HvGdV3XfLcpe/sF7durb7rjlvu93ZJZ8f8OkXNtzl6FKewGbOa6xjEXJwKVfZK6+94z3F1M/evXf1Sy5K/40aNnDfl1vY/334iQ+jlNfrDttvVyDCZs2csPvR7z7MsqdL6i8PuZJu8QJYCJ/UJwYBCEAAAhCAAAQgAIFMIlDGefC4rCiFs+CxpVbjx/+dq7EEK+UOS1SWq2IhT5o3b+lbvPrqS7HwTHmHBQ+xV199sZA9Zkf1SZNnuDCjnDC1ZFas7aDk5dWqVcm3ugQz1fGhRq6m3v64tUt4r/DLYEqorzDHUCdcL+6n5hcfhhn6lGdbXuPJa6OKC5PKqzz0kY2fyeyTZOoUhV38fZnuPPoGDxvu30oa+lu5cpULvSy7zr3T/V6+fKUTNSqFqrHP/PZCrFIWH8SLYVEU+ZVF64XjZPbGXkd/by8/0Dk0SepzqcsdGA1tjDbSiz6U3zAa3hgtz+/4owEDfR6y2i6HmMSwRGMUtX/9I4DerloYKy17NV4MizLIryxaLxwfcfZw6//CtuGUTwhAAAIQgAAEIAABCKScQKE9xDQDvVmyoLDJgmYacn+FT9WPepoV1D6Ty4vixVaUNulgoJC2gsQwjavcYr+N+tu/uXHK1Jm2dOnyXGKY6qQrx1NeYpjGzE/skicblnkEovdlzNhJ9uvIv63Fpk1yTTSaky5aoPudSAxTnfz2QrSPbD3Ozwssv7L1ySuRUBXGV76w4pq+7/Iao6j9F1YM0xpKy17Nzwssv7Li3kfaQwACEIAABCAAAQhAoCgEiiSIFWWgaJvg2RW9pmNdlyhWFGFMgtK99z6QS6jLry+NFRL2h3nkVT94xMk7TeOonSzeKy3UC/3pM68+VZZozuElBEVhoD7Xl3Xs0MqauDc2Tp48zedxauDe/odBoLgE5K7aye0t5QjDIJAuAnpTZDX3hkoMAhCAAAQgAAEIQAACEMheAutdEIuKYTn5x87+Vxi6398FlSv3WGHzj4UwTfUZvNfUlyxeXEokXKlemFs0LFPXg0UFN40TtRDSqWuhLLwIQNfi5xDGUpkszFttwvzj2+TUzJzfdevUNP1gEEgVgZA8P1X90Q8EEhFo2OC/N90mKucaBCAAAQhAAAIQgAAEIFD6CZRdn0uMikASe+RhJeFLx8pFFoQkCU+FMQlIaishS33m7itHFAv9aQ5BcFJ91Q0/BY2vdmGuUe8w9SmLlqlc57KcMb/1x+FXojaaR35tQls+IQABCEAAAhCAAAQgAAEIQAACEIAABIpOoEiCWNR7S2F/yVoINZToE4SfaFu9TbKoprbReUX7is4xKkRF62vcIHJJ+Iq2CXNKNO+csMf/BLFQV5+qL9FNFhX5onOI56DzgoQ53yG/IAABCEAAAhCAAAQgAAEIQAACEIAABIpEoEghkxKSJNpIOFKoYhBwCppB8MzKq576lZdUUSxe3Io/V59RkSteiApjhnWF84I+Q59qF4SuaJsgAhZ0LVouMe+ww4ZFL3EMAQhAAAIQgAAEIAABCEAAAhCAAAQgkCICRRLENHZUtClI6IqfayKxKr5OYc7zEuTyErfyqq8xwxs0JXTFzzP+PDrHHK+yvEWsRIzy6i9cT9QmOibHEIAABCAAAQhAAAIQgAAEIAABCEAAAoUnUGRBTKKNvLkSeUUluqapBYFK4YOvvto14WyV8F6iVF4eXAkbFfJifkJTIo+u/LoP4pXWFkIu86ufTFngl59wl0w/1IEABCAAAQhAAAIQgAAEIAABCEAAAhBYl0CRcohFu5FwFf0JAlG0TjiW0CWTIBVEn1Cmz/D2x0Rl0XpFPdbcgsiUaAxdC2JZYQU5tQvhk9H5qc/wE66H/GbRvGKhTJ9BlAu8omUcQwACEIAABCAAAQhAAAIQgAAEIAABCBSPQJE9xIoyrEQmiT3xglgQgIoqRhVmLiHUMwhiQcCTmBWuFUYMU3vVV1vlU9NxQX0GYU7rbd68Za42EsnWB4fCMKMuBCCQm8CUKVNt5syZ1qlTx9wFnEGgEAT+HvO3lS9Xzv3/QItCtKIqBCAAAQhAAAIQgAAEIJAKAutVENOEFVYYPKaCABUWIu8tCVZBUArXU/kZFbDix9c4ErQKI4iFNvoM69Jx1BL1qXXee29ib7nAIdoHxxAoKQS++mqQrV692nr12iVlU379jbesbds21r5d25T1WZyOXnjxZXvm2eftj99/KU43tM1yAtdff43VqlnLHnjg4SwnwfIhAAEIQAACEIAABCCw/gmsd0FMSwwCUVSQyvGaSpxXLC8sQdzKS0BTyGHOT+5+48cPHmp5iXF59ROdV1REi/anOonmp2vKoxYYRNskqh8di2MIZDKBJ59+1pYvX55SQeyKK6+1M884NWMEsUzmz9wgAAEIQAACEIAABCAAAQhAoGACG0QQC9OKikjhWmE+JRzlJx4V1H9B5WEuqa4X+tVnsn1H23AMAQhAAAIQgAAEIAABCEAAAhCAAAQgUHQCxU6qn9/QiZLM51c/r7JoP/kJYHm153r+BFatWm277dHHFAZ28SWX21Zbd7cu22zvj+fPn+8bhzrPv/CSnX3uhXbkUcf562PGjLWjjz3R2rbvYjvuvJs9+NCjdsONt9hZZ59vq1atsn4HHGq333F3rgkMHfqtH+/7H360NWvW2JNPPWM9e+1prVp38NcVHhe1r77+xvbte6Bt2aajbb9DT7vlf3fYsmXLolUy7vjJJ58rcE7J1CmwkwyrsPue+9j33/9gw4f/4u/lnnvt62e4cNEiu/Kqa61r952sTbut7MCDD7cff/w5NvtRo/6wM8481zp02sbf68cef8qXjRjxq+9HHmfPP/+SP7740it82ciRo+yww4/x/fXYsZfd78LOLrv8arvwost8ufrXvv54wKe+3q233emvDxz4pe3dZ3+/n/bau6999vlAP58nnnzGlz/9zHO23/4HmfZdtN4nn37uy6O/1HaP3vvaVl262TXX3mgTJ06KFhf5OJm9kUydIk9gAzbU98ajjz7s2O9p3bff1k466Xj75NMBdsCBfe233371M9Pf/91332l77b2Hdeu+jR119OE2ZMjgPGf9119/uu+zC2zHnbrbkUceas89l3Ov1UDfQc8++7Tts09vN952dvIpJ9g3gwf58X76+Uff5xVXXmo33XSD3XnX7bZLzx2s916722uvv2I///yTHXHEodZjh66mOqNG/R6bg85v+d9NOX3vu5fv+9TTTrIxY8bE6sQfTJg4wX13nu7n2bPXjn7O06dPi69WpPOXXnyhwHbJ1CmwEypAAAIQgAAEIAABCECghBBIuSAWFazyeotiYdlEBbHCtqV+MgTW2h9//Okf6MeOHW+XXHyB7dNnL/vwowF21DEn+HxQZjl1rr/hFps6dartvPNONnPWLOvb7xD7e/QYO/20k+2oIw83iVnPPPuCjZ8w0cqXL++TjkvwWrhwYWwiOl+yeLF12aqz3X3P/XbrbXfZrrv2tAcfuNe6breNXXDhpfbKq2/4+t8MHuLFt2ZNm9p9995lBx3Yz15+5TW75LIrY/1l4kGXLp0sP8FCZapT2uyIww+1xhtvbA0bNrQj3fHhhx1qa9euteOOP9kJT1/Y8ccdY7ffdrNttNFGdtAhR9hfo//25RdefLktXrzEXnrxWTvyiMPs3vse9EJW6KecSzzeoWN73+euvXrapMmT7YCDDrXJ//xjZ5x+ih191BH29tvv+b0xfsIEj3XxksV+X0sgq1atqm2zTRf7etA3dsxxJ1n5CuXtmquvsO237+YFtB9++MknyVfDmTNnOUFvhJ1z7gXWteu2du3VV1qlSpXshBNPtc8HfhG7ZUuWLHWCxZW2a69d7NBDD7K33n7Xbrz51lh5cQ6ydf+I2e133GqPPvawyxnXzi5z4me9+vXtiisus9Gj/7IlS5Z4rApvf/2NV93962EXXXiJaX9IbPrqqy99efSX9t81117l2z726JN20EGHuP4fsYEDcwTOhx56wO65925r1WpLu/zyK61O7Tp24YXn5YznvqdkkyZNsjfefM0LYCefdKrVrVPHC2QnnXy8NXXfTaecfJoTeH904/z3vaQ2b775um934IEH2UknnuwE04levJsxY3p0iv54zpzZdtRRh9ncuXPt4osvs9NOO8PP4cQTj3MhyMX/B4AOHTu5v6+8RTGVqQ4GAQhAAAIQgAAEIACBbCGQlpBJhQEqN5belhhyZBUVqHJr8dbFotIrXLvmmzazt958JdaobdvWdpETKr52njI77tjDX+/mBAKJFrK77r7P5s2bZ+++85q13Hxzf+2AfvvZtl139CKHLpxw/DEmj5s33nzbHR/rhYxPPxtoV115mRfaHnr4MfcweaJdftlFvv0eu+9qeoPfY4896cSUg92D6gO29dZb2UMPujcQOOu95+5O3KjmvdCuvupyq1+vnr+eab+6dOnspyTh66STjs01vSCGhTq5Ckv4yfHHHW0Dv/jS5xA73t172ZAhw+zbb7+3l154xgmpO/pru+/Wy3n27GzPPPO8/e+WG2yR8yCTaDp37jw7oF9fO/igA7zIocrq5+b/3W5bde7kj3VNXoISpNTnpm7fyg48cH/bzu29eJNYe9aZp/nL8kxr1KihvfPWa7H+t+6ylZ1y2lmxPauK8hq68YZrbb99+/h2h7m9uH2Pnm4/PugEsJ7+murc+r8bbc89dvPnZcuWtcefeNrPq0qVjfy1ov4KeyPb9s/SpUvttddecYL8vnbzv+Ji37797NZat9hLL+WIOT/++IMNHvKNXXvN9V7cEmOJXP367eu8BO91e2yXXNjLlCnj99cit7/0fdXH9d237/5Wtmw5W7Fihft+etLdwz3t9tvv8u3227ev9+x65ZWX3J74r6sKFSrYU08+a5UrV/ZC3H59+3jR7rZ/PQ/r1q1rl19xqY0bN9ZatNjMN9Qeeebp561Bg4b+fA83Th/niaa1nH9+zndeGOGVV1+2lStX2oMPPmK1a9X2lzt26GSHHHqgffHFF9a7916hapE+O3bMeSOqhK8jjzo6Vx9BDAt1chVyAgEIQAACEIAABCAAgVJKIG2CmHhJDCuuIBa4S2Qj31agkZ7PPs4rLGoSnySIjR03LiaIbb11l1gVhUtu0XLzmBimgvrOm2M75+Ulbx9Zs2ZNTSLXcy7cTd5BL7zwsvMOquzFronOg0IPgM88+5wLh3vR+aC5/7kn0JUrV8XEibFjxtn8BQusTdvOsfI1a3KeUic4L7RMFcS09kSiRmkWw7TmRDZm7Fh/+bTTz/af4T4rDFL3UPbSi8/YPfc8YKqjkLm+++1jF15wrm28cSNfHv9rsvMQ22yzFjExTOXaCx2dF1m8bRPZs9pPe+21Z0wMU909nKBVsWLFXM3k3RiELhVI7Np9j13trbfejdWTQNJzl51i5xJulz2wzDS3Vq22iF0v6kE27p9p06Z6MXKHHf/jKn477bhzTBAbO3aMR7rrbrvnQrvb7nvYU089ketaOHncCewPP/KQ8wZUKPdKtwf6uJc0nOW9xrTfdt01R9QM9ffco7dJEIta505beTFM1yR4ac903a5brErr1m38scIegyDWqVPnmBimwqZNm1nLlls4D9rxvm701/jx42zp0mW2twsD1fegTJ8S9CZNzvk7idYvynEQvKKiGGJYUUjSBgIQgAAEIAABCECgNBBIiyAmMEG8inp4FQVYt27dXF9n55s8vyj90mZdAl98+bULPzovVvD1oJycPE2aNIldk3dWsE02aWIffNjf/vlnijVp0thfXuDEq59//iWXIHDSicf78DiFzL3y6ut2yCEHWfXq1Z0oUd4LDWeecZqde86ZoVtTHyqXNXFjbFm1lb36yvOxcnmRKEQqXsSIVcigg6iooWkpFC5cy6BppnQq5ZznjTxjgm3y7/557rknbbtttwmXvbdOrVq1/EP/gvkLXSjlLf7n2+++s0svu8puch5CwTOwXLmyMZFAHWyxRUv7v/c/dDmb/rA2bVr7PidOmuz33rbbbh0bQwdVXbhksE2aNrFB3wyOCQ26Pth5sMlTKGoSSQYPHprrTZmDvh5s2vPBKlWqmGsPli1TNhSl7DPsFQmpstK+fzbZpKlnOmBAf9ur994xjv0//ih23KTJJv542LChueooh1goi1V2BxKVFixYaNdfd6P/+eHH7+0G5/1311132PXX3+S/g4YOHWJ77vnfPwgoh1i8Kcw3ahKqJIoGK5Pg/o8c+ZspD2PNmjV9NYVKKodYVEgL7Rtv3NiH9g74+HPvBavrmrs8J2vUqBGqFfszKoqpM4VJhmvF7pwOIAABCEAAAhCAAAQgUIIIpE0QE4MgipUgHlk91V9+GWHnnX+xHXLwgTby91H2xJNPey+cqBdMFJDyRT3tQt4UbnayS3xdyXlMPPn0s87LYWm0mhMzt7N27dq43GCXuIfDBXaiC52UKazs0EMO9GFmNZwAttNOOzhvNJfD7JIrbD/nIXT9dVfZCc6r7JzzLvQhcvvt18f3fcstt9tyJ2D837tv+DxluQbLwJMgamhq0eMMnGpKpqRcXQ88+LBLhP65Va1axXr06O4F0iuvus6HLnbs0N6+/GqQXefEiMcefdDvjUMOO8p2c3nkzjn7DO/pVd6JpQqfDCYvr08++cyFz3Zx5XWdt+HR7iUQr7hk+Ef4sMYKFSvYu+/+n/PgqRSaJPzUftJLIU4/4xyXXP0wJ06M8/s8UeWrrr7OTp54ohPfNnfeQq/b307IuOvO1OQISzReXteieyZ6nFf9knxdAtMZp5/lcsjd7cL6DvOeYUOGDna54EbFltW1azcfqnjnnbebPMratG7rxNF3bcSIX9x3xk2xeuFg6tQpdqILW1YopXJ91a1bz4vx8+bP87ns+u1/gBP237dq7juoV69d7ZtBg+xVF76YCpMX5Dnnnulygx1jq1etdh6yz7rvrHJ28MGHrNP9AQccZC+9/JJ7+cRlzoP2SDfPuu4fEF62/v0/cqHs71rjxjn/6LBOwyJciApg0eMidEUTCEAAAhCAAAQgAAEIlFgCaRXESiyVLJ34aaeeZN+5NwRKnJDp4ft+l8heCcXlMRNvzZtv6vLjPOaTkuutkvLa6tt3H1N+qJmzZueqLi+x8y+4xJepXbDrr7vGe4Rcf+PNbozV7iGwjssTtofLMXapr3LAAX19yKTeVPnwI4/5B1gJbA/ecmOJEMPCOku7kBHWqc9+++/n84addPLpLjxscxv4WX979pkn7NJLr7Qzz8rxQGzRorld7R78FZYre/Lxh+02l8Op1257+fsqEe26a670Zfp1ukucf60TO446+nifQP+Wm6+3/h++64TS252H11Cf5FxJ8iWKrXBhuHlZP5efbNbsOf7Np/JuVD6oSy+50L0d9REfmhbaKQn/qaee7L3UJPCq3pUuP9ShzrtxQ1g27Z8TXfL5ei789a233/RCVweXR+vYY463c887y3tz6XvmAfdG0euvv8aF2d7lvajkuXr5ZVfaAQccuM7tady4id3rwnGVX6zv/vs6r67yLqy7q7vvl/u6l7rE/audR+MLLzzn3z6psc91L1S4+eYb3J5Yp7tCXeix/Q5Wv0EDu+iiC5zX5GofPnn//Q+5f2jIybkY7WzTTZvbw3pLr/Ne05suFabbvl17u8flakylGBbGRAgLJPiEAAQgAAEIQAACEMhWAmVcSEZOspJsJVDK1z1p8gxrukmDfFcpsav5Zq39W/dOOfkEm+0EA5nEqWRNYZO1a9f2Xl/JtonWUy6xqdOmu7k2ySVMhDrapv9MmWINXI6ykhAqGeZdUj6T2SfJ1ImuV0JSfJjZokWLfYJzJbZPZEp6LgE2vl2oG+1TYY4KzZRYJVu2bJl17tLV+uy9V4GeXBJfp7j9JKFBHjtRkzD3zLPP2x+//+JF2rzqRdtk+3Eye2Ovo7+3lx/onBQqhQmGsGk1ePyJR50Idp99MmCgyyu3cawPvXVy7tw57lpjLyDFCvI4UPii9lfYM9Fq2j9z5sxJmfh09DFHWK2atbx4p32rvR2de3Ts+OPZs2d7YTiEWsaXZ8P5EWcPt/4vbJsNS2WNEIAABCAAAQhAAAIbiAAeYhsIfCYPWxghLKwj5BAL54X9VKhUs6Y5uYEStVW+npCLKlE51zKPQCJRS55X+snLlFMsPwt9SsTtd+BhVqF8eed9c57P5aQ3VurNk4e4MNyCTCKYXvhQkCVbr6B+KE+ewBdffO68Sc+1812odPfu29uPP/1oL7/8oj+OF5SqVKniRPgqSXeen8AkkSwdnlianPZt2LvJTFbhkhgEIAABCEAAAhCAAAQgkF4CCGLp5Vtiepc3Bp5XJeZ2Zf1E9RbIJx57yC52YW8nnnSaf6upBNOHH7rPJSwvnleJPIii3klZD3s9A+jZc1e70OUbfM3lz7rzrtu92Lnbrrvb5VdctZ5nUrzhJNQVRgQr3mi0hgAEIAABCEAAAhCAAAQKS4CQycISK2H1kwllKmFLYrppIJDMPkmmThqmRpclgEAye6MwIZMlYMlMMc0ECJlMM2C6hwAEIAABCEAAAhCwsjCAAAQgAAEIQAACEIAABCAAAQhAAAIQgEA2EUAQK+V3W29J470JpfwmF3N52h/JvE1PedzYS8WEXQqb5+yfgl/HWKF8GfcG0DWlkABLSjUB7RPtFwwCEIAABCAAAQhAAALpJIAglk66GdB3xYoV3Nv3VmTATJhCphLQ/tA+KcgqVizPXioIUhaW5+yfgtNRbrl5Nfv1j4VZSIglF5aA9on2CwYBCEAAAhCAAAQgAIF0EkAQSyfdDOi7WtWNbMHCxXj2ZMC9yMQpyLtH+0P7pCBjLxVEKPvKC7N/+uxa3975eDpeYtm3TQq1YnmHaZ9ov2AQgAAEIAABCEAAAhBIJwGS6qeTbob0PW/+Ilu+fIXVqF7VKleu6MLjCEXJkFuzwaYhIUOePRLDKlWqaLVqJueNwV7aYLcsowYu6v554uVJNnzkAuvXu6F1aO3ebFuBf5PJqBu7AScjIUyeYRLDOrerYScf0XQDzoahIQABCEAAAhCAAASygQCCWDbcZbfGJUuW2aLFS23FipXOWyxLFs0y8yQgTVRhkvL6qlKlcp71EhX8t5dW4XmYCFAWXJOorhDaouyfL4fOtg8/n2l/jllkK1fxZZQF2yWpJSpnmMIk5Rm2S/e6SbWhEgQgAAEIQAACEIAABIpDAEGsOPRoCwEIQAACEIAABCAAAQhAAAIQgAAEIFDiCBCvUuJuGROGAAQgAAEIQAACEIAABCAAAQhAAAIQKA4BBLHi0KMtBCAAAQhAAAIQgAAEIAABCEAAAhCAQIkjgCBW4m4ZE4YABCAAAQhAAAIQgAAEIAABCEAAAhAoDgEEseLQoy0EIAABCEAAAhCAAAQgAAEIQAACEIBAiSOAIFbibhkThgAEIAABCEAAAhCAAAQgAAEIQAACECgOAQSx4tCjLQQgAAEIQAACEIAABCAAAQhAAAIQgECJI1B+zLjJJW7STBgCEIAABCAAAQhAAAIQgAAEIAABCEAAAkUlUKb3Ud+tLWrjktTujUfalKTpMlcIQAACEIAABCAAAQhAAAIQgAAEIACBNBEon6Z+M67b8uWzZqkZx54JQQACEIAABCAAAQhAAAIQgAAEIACBTCKQNSpRuXLlMok7c4EABCAAAQhAAAIQgAAEIAABCEAAAhDYQAQQxDYQeIaFAAQgAAEIQAACEIAABCAAAQhAAAIQ2DAEskYQK1OmzIYhzKgQgAAEIAABCEAAAhCAAAQgAAEIQAACGUUAQSyjbgeTgQAEIAABCEAAAhCAAAQgAAEIQAACEEg3gbLpHoD+IQABCEAAAhCAAAQgAAEIQAACEIAABCCQSQQQxDLpbjAXCEAAAhCAAAQgAAEIQAACEIAABCAAgbQTyJqQybSTZAAIFJLAipWrbMGCxbZs2Qpbu3ZtIVtTHQJ5E1DOxMqVK1qNGlWtYoXkvuZXrHD7cSH7MW+qpasktkequz1SMbk9UroIsBoIQAACEIAABCAAgWwnwH8FZ/sOYP0bhIDEsBkz5lqtWtWsbp0axksfNshtKLWDSmBdvGSZ32MNGtQuUBSTGDZjptuPNdmPpXZTxC3M75HFbo+4+96gvtsjiGJxhDiFAAQgAAEIQAACECjtBAiZLO13mPVlJAF5hkkMq1Z1I8SwjLxDJXtSEli1t7THtNcKMnmGSQyrVo39WBCr0lLu94i737rvuv8YBCAAAQhAAAIQgAAEso0Agli23XHWmxEEFCZZtUrljJgLkyi9BLTHtNcKMr8fq7IfC+JUGsuruvuezB4pjWtnTRCAAAQgAAEIQAAC2U0AQSy77z+r30AEFK5EmOQGgp9Fw2qPJZOfjv2YRZsibqnJ7pG4ZpxCAAIQgAAEIAABCECgxBNAECvxt5AFQAACEIAABCAAAQhAAAIQgAAEIAABCBSGQJ5J9desXmarVy+1NWtWuv4y7Q14Zaxs2QpWrtxGVrYcYT6FueHUhQAEIAABCEAAAhCAAAQgAAEIQAAC2U4goSC2atVCW71qSQazWeuEuhX+p9zalVa+fPUMnitTgwAEIAABCEAAAhCAAAQgAAEIQAACEMgkAusIYt4zLKPFsNz4JNyVLVMBT7HcWDiDQIklMGbcVJs5a77zUF2T0WsoV66s1a9X0zZvsXFGz5PJQQACEIAABCAAAQhAAAIQgMC6BNYRxBQmWdJMcyZ0sqTdNeYLgXUJSAxbs2atbd15C6tQody6FTLoysqVq238xOmmOSOKZdCNYSoQgAAEIAABCEAAAhCAAASSILBOUv2cnGFJtMygKiVxzqnC9+eff9prr71mS5ZkcohrqlabWf289dZb9t133623SR1xxBG22Wab2X333ZdwTJXrJ6/yhI0y7KI8w5o3a5jxYpiwSbDTXDVnDAIQgAAEIAABCEAAAhCAAARKFoF1BLHMS6CfDNDMSPrfvn17L1hItNBPu3btbP/997c77rjDli1blsxCCl1n0KBBdvnll9vcuXML3TZTGyxatMhuuukmGzp0aJ5TvPPOO3OxDsyjn/fee2+e7VNRcO2119qbb76Ziq4K7EMiV9euXW3s2LG+brzoFcpffvllXy5hbH3a6tWr7ccffyz2kAqTzHTPsOgiNddMD+2MzjdVxxMnTjTtNf288sor9uWXX9qsWbNS1X3CfoYMGWLPPPNMwrJMvLhixQq3N1Zn4tSYEwQgAAEIQAACEIAABCDgCKwTMgmV4hHYYostbN999/WdSNiRSPDII4/Yxx9/7D256tWrV7wBsqD14sWL7emnn7YGDRpY9+7dE664R48eVrnyf28YfeGFF3y9o48+OlZ/2223jR2X9INvv/3Wiw9ax7nnnus9waJrii+XMLg+bebMmfa///3P3njjDStTpsz6HDrtYy1YsMCqVavm3myb4N8PijH6mDFjbPPNN0+qh8LUTarDYlb65ZdfvBi855572tq1a+3333+3a665xvT3d/LJJxez98TNZ8+ebRLiSordfvvtpn8k0T+KFNUKc98LU7eo86EdBCAAAQhAAAIQgAAEShMBBLEU30094J511lm5en3qqafs5ptvtnvuucd/5irkpEgEJJRFxbKPPvrICzHx7IvUeYY2kheYxLDgDRadprzHouWqtz6tUaNGafeW++mnn+zQQw+1Dz74wLbccku/PAmBF110kTVv3tyfV61a1U455RTr0qWLFw2ffPJJq1KlSr4oPvvsM7vrrru8kH3GGWfE6srj6bzzzrPq1avb1KlT7ZxzzrFevXrFyot7oHHl8bf77rvn29Wnn37q6yUrnuXbWQoL27Zta6eeemqsxzlz5njmujc77bRT7DoHRSdQ0vdI0VdOSwhAAAIQgAAEIAABCKSfQGpdHtI/3xI5woknnugfEF9//XWTl0Owl156yfbee2/vRaBPnUftsMMOs/vvv9/Urk+fPtaxY0fTNXln5Ge//fab99TYaqutbMcdd/QhlfPn5+Q5UiiiRIX4EE7lw+rbt6/9/fff9u677/pjiQ0ar1OnTv5T3hmff/6593iQ58OBBx5oGitqyql1yCGH+LnusssuduONN9rSpf+9qEHjS7D4/vvv7aCDDrIOHTr4sSR2yBSCeMIJJ/jjZ5991pedfvrp/rywv7QWrWnAgAF29dVX+/mqD+VbU7jjDjvs4MMQzz//fBs+fLivq9CvYNOnT/cCVLdu3WzXXXc1eXyMHz8+FK/z+fjjj3s2YS3rVCjGhRAKGTy/4gWvcJ5XeV5DH3PMMfbqq6/aXnvtZfK60zjaC/L80Y8EpWAzZswwCUaqp/2q3HXHHnusyYNKTI888khfdeDAgV5guuKKK7yApDGGDRsWuinyp/4+FB4c/3eyzz77mDwE9SMvNYlbydq4ceP83DTHeNM4Wp88PMUlyiK+blHOJSZJEJPglZcFMSwqPOVVd0Nfr1OnjumeP/HEE34qChnU/ejZs6f/0d+ZQrvfeecde/DBB3NNV99z7733nuXVJldld6JQRAnA+o6R+CY+//zzj6+m/Xf33Xd7j7U99tjD71eFra9atcqXq0weqAcccIBtv/32dtVVV9mvv/5q++23n5/nddddZ/JSleU3H/UT/gY0DwmzkyZN8u0uu+wyv06Fduu7WyJuUay07ZGiMKANBCAAAQhAAAIQgAAE0kWgbLo6pt/cBPSwpYe40aNH+wI9TEmkUdifQowqVarkz/WQF0xi0/PPP+9FgIYNG/qHNYktBx98cJ6i2A8//GD9+vXzgpMe0uS5o4c2he1ItNADoMSo//u//wvD+E+JOcuXL7eWLVv6XEB6QJSQpzYSrYLQddppp3mBSyKRhLlQR50on5lyV02bNs0Lcq1atfIiheoEk6A0ePBgkwChUCt58mideliW1ahRwzbZZBN/rAdsef40adLEnxf2l0Q/rUOhXN98840PT9OYEjkknigMTg/MX331lb8Hqjtv3jw/jB7cFfqqB1l5wmyzzTY+V5LmHR6Wo/ORiHTrrbfabrvt5tcULUvVsUQvcQ/iV3y/4Xr4jC9PdD5lyhRTbiaJrhLGQtijBCCda10SQsVNYphEWXmtSCySiKi2IU/S5MmT/RDi89hjj9nOO+/s68qzSgJkcUz3Q2KDxFLtF+3LRFa7dm0rX758LhE21NMaP/zww3BqL774oheAJYhor8Wb9rzWIJOXWePGjS2sMb5uUc/zEzxKkhgW1r/11lvbX3/95U/lEav7JOZaizzHJJjpb0R7KwjlqqN7I9E5rzah//ApAU3jqB+J9PLcO/74472Apf336KOP+n9o0NjawxIeH3jgAd9cnmz6TlSOwU8++cRGjRrl20pIlXiu+fTv3z/fNahQ/UgsveSSS/wc9N0ZxEB9F+h7WCKZ5iDRtqhW2vZIUTnQDgIQgAAEIAABCEAAAqkmgCCWaqJ59BdEHT1QSzDSA5s8FN5++20vcMhrQqFTesCSx00wPXQpabU8GiSWyftBphDMRCbxR2FjEp30cKmcTnp4nDBhgn9Yk7eGHtzkfRVMec4k1EXzb6lMIp6EMwkH8uaSh5AEAuVDk7eMwsmUOyq8aVHeXxKzvvjiC7v44otNIps8JeQdJNEpmB6EVa4H1eeee84fS+zQA64EqhtuuMFX1fhaswSL4ljNmjX9g688vBRaqfWeeeaZfh3yYJOos/HGG/shJPzINK5C5rR2sb/tttu8l5AEl59//tnXCb8ktslz6fDDD18nXDbUSeWneGp+8T8SIwsjhoU5HXfccT4ssGnTpl74072uW7euaa0SL+Q1p/sj8UzefRtttJEvkxBQrly50E2uT3knysNMebckJkrw1R4sqslzUB6JMokL8mIMJhFTQqtyKGlfa+6aY7xpPrqfsjVr1ngPniB4xddVufZpxYoVY0USRgvyzoxVLsRBIsGjJIphWrLEpMD+/fff9y8W0d++hCf9jelvReKi/s713SfTZ+/evb1AnVebILr6Bv+2kdgkwb9ChQre61XjjhgxwleRiC9PVZWpzgUXXOA90EJ7eY42a9bMj6nvXf3jgfI/6n6rLHzPFjQf1dXLU/R3IA9JiXPpsNK0R9LBhz4hAAEIQAACEIAABCBQFALkECsKtSK0kZgkU6J4ebgofEcigUQjiTD6kbeYQnQkTsnTQtamTRvbbrvt/LF+SXDSw9vXX38d88wJhUri/8cff3hhRqJAMIXD1a9f3wtXSngujy0JOBJW5HEkwU15kuTREDU9tAaTZ5lECYkKIWm6rsnTTULJwoUL/bx1TTnTwpo0J5nWHMQHiSTRRNPy7pBYJRFPXmWpNnl66cFYJjFL40ffwijuCg2NCm8SzZSzKZqnTPdCYV1R071SSGeLFi1iQl60PNXHumfKF6afeNM13c/CWgizVDt5zQXxNpxLGNJ+leAQTSwv8UDeWIlM4lHUatWqZWEvRK8nc6y9JI817S2FwSr8d+TIkbF7KA8feaxpbgrnTBT+qHEkjGp/6d5K7NzF/R1FBa/oXNSX9oXWHdaosVOZQyw6ngQPedVJCJPJo0nXSppJ+JIYKhM73bsgZkk0kgei7DgnwsozViKyvDVDOGp+bXzDf39JsAzCW7iufwhQe1l83jjdyzAPlUfzsem7L37Ph5DyguYT3efqJ7TTGKm20rJHUs2F/iAAAQhAAAIQgAAEIFBUAmWL2pB2hSOgMDOZvBBCqJASdf/555/eM0rCih68JUrpwS5YordSKrxLD2rh4S/UDf1K/IqaHkTVJjysaQz1+6zzppG4IK8ped/EP0RqrsH0sCcL4Yw6VnijTA+9YWx5t0XXpDVqvE033dTX1S95ikRD1MKxQjbTYQo3DaZ5inNYT7gez1n1wrxCnUSf8hiSeCKxJHiVJKqXimvyCAsm4SvRTyhP9adCV8VNgmAQOSTmhvue6vGi/cmrSGKfBBR54Sh0U16OIVebRMsrr7zSi7zKJxUV7aL96Fhhddr3CrU76qij4otznestpRJ4ZBLQ5OEmDumy4AVUEsUwiU3yppKHq7w/ZRIc5Q2rfHPy6pMIpb8XfR/JO0tCrLxKdV3eiQW18RX+/SWx/qGHHop9pylcW6G9CumVDR061Ht+6ljfK/LIVUhmYS2/NRTUl753lIcwlVaS90gqOdAXBCAAAQhAAAIQgAAEUkEgsXtHKnqmjxgB5aHSjzyVJAYFLyh5HIWHR1VWyJdEq9atW8faymtKD5UK+5Hp4U75bfRgLg+zqEkIk7CjcDKFzgVPrt9//92LVCHpubxiFB6pUErl1VGfBYkD0XESHcvzTSF26jua1FyeYwpjino0hXkl6kfX5M0hCwKePynGLz2AB1MeI3nhKexToYHBFL4ZNXl+KPePEnUH7xGt5ZlnnvFJsoOHiR7slf9IvHUvFWKqa6m2IIZJLAmhkkUJjyzqvCQySYA4++yz/fgSY7Wf5RmXbpN3mELeomKUcokpv57C4gpj6kNzVz4w7ddEJu9FiWb6G5EAobBehYxKvEm3abySYvqe+dKF08oklupFG8rNJbYyiZQKq9WLPSSISzS75ZZbfJl+yVNV90+ep8EKahPq6W9NORjlEShvWH2nyMMuiPoKR5fXme6ZRCmJx0qsX1hLdj6J+pUQKPFWnOR9qrmmwkrSHknFeukDAhCAAAQgAAEIQAAC6SJQpvdR3+UkTfp3hOXLivcv2sce0so6tf0vXC9+4p3b1bXn3vjLnns9J/FyfHlRzytV/s8LKFEf/V/YNtHllF7TA6HEkxAOqBAxJWqXh4sexPVgH4QtJafXdQlR8lxQbjHlqZIHlsK/JHapP4lVesBUPYWzSQSQB5YSQivHlh769JApDwmNLXFGebuUQ0dt1K9CIpXbRwmjg7ijJOV6y6I8fPSpfoPF96nryo0jDx3NLYQRyitKnhrKwyWxTWKRjrX+8BIBPaRK6FOONAlFJ510kveIU8hnMHnfKCxUD8/iIlN7JcdWri8JF8p9lp/p4VMPxRKxgilMU/3oQTjknxIH5cWSuCVBTF5AeiAXPz2wS8yTR5s89uTVoodtJeHXPVBol0L1JHpJENP90bgK99QaJBBJkFR/8WJlmFP4nDR5hjXdpEE4LfBT3jQSw4Ip5FP7aUOY8sYpBDKEoaZyDoOH/W49uuUOt0xl/8n0pX0QFVGVo0zekHl5nmXCnPNbVzJ7LZk6+Y2RX5n+5lauXOlDVvOrFy1Lto2+v/Q9G/WKlaeavAf1Igf9net7Qd+dxbFk55NoDK09HX8ricYq6rV03v+izol2EIAABCAAAQhAAAIQSDeBlHqISQyTXXDd0Hznffd13U3C2PCRs/OtVxILJaQETwTluFFol0QeedZEc96ojhLjK9+WQs/0wC0PAglKUTFFoow8piS66EFd4ZTXX3+9F3oS8ZHHhR7A1P+ll17qq8jjTG89C2KYLkpkkvAjUSU+mX6ifpO5JuFIc5QHk7wi9BCohOpaY2G9pvRmwjvvvNN7XUkMK0gQS2Z+qiMPEol/F154off8kfdPcydWKreRBLngvaZwUZUp15qESgkkyuumtQXvsOiYEsLkQaVcZHopQF4vPYi2KcyxPFw0trzC9Bn1uCtMP6moGxUfUtFftI9yFyNdAAAAQABJREFU5cq6/bva7Z3/vPqi5evjOCqGaTyJf3mZ5qo5Y3kTCF5beddYtyTZNvpOjX6vxvcUHxodX57sebLzSdRfpothiebMNQhAAAIQgAAEIAABCGQDgZR6iA18Yx/rdfAHBXKTGCZLpSCWCR5iBS48QQWJVwrLUw6d+AfxqAeSwgcV+iMPsvh6Cbr1eZ7kHSbPiLxCw5RPSV5eCntKps9E4yS6poTXWpO8q4rzIKm+5ZlR3D4SzVHX9AZPhU8Gr7286skjSg+1+QkjebXN63pRPDIkhH377be+yw3lHZbXelJ1fcy4qe4NkGutebOGG1QUS2Y9EsPGT5zuPMfK2OYtct5Smky79V0nmb2WTJ31Pe+ijqcXi+hFH+l6AUJR55XJ7UrT/c9kzswNAhCAAAQgAAEIQCCzCKTUQ6wggUseZAqVLKheZiFK72wktMhDqSCTl1g0MX1B9eXpFBJVJ6o7fvx4/6ZK5eJJpRimsRRalt/YieaT17V0iWEaL5mk+aqXTo8o9Z+src+cYcnOKdX1JCxJFPtx+Gjnbbgm1d2ntD95htWvVzOjxbCULriEdCaP2GgexhIybaYJAQhAAAIQgAAEIAABCKxnAikVxBLNXd5gxxycE0oZPMOUY+x5l0csL2Gs5eab2N9jJifqzlpu5srGJi5L2ICLCQkoH5bEuMImJU/YGRchkEICEsUy2eMqhUulKwhAAAIQgAAEIAABCEAAAhDYQATSKohJAOvkfoIQpjUe+6849svveYdNduqwuW3csJYNGvJbLiw7bt/eGjSokzWCmBLEK2dYOkxveNNPsl5S6ZgDfUIAAhCAAAQgAAEIQAACEIAABCAAgQ1BIK3ZoOUZFgQwLS7qEabrwXMsfuFDho10wldtkwAWLEcMq21D3FvossUUIqlk7ekwvTVRPxgEIAABCEAAAhCAAAQgAAEIQAACEMg2Amn1EPvl99kx77CQbF/eYnrLZH42ddosJ3yNsu27tYmJYhLIdE1lGAQgAAEIQAACEIAABCAAAQhAAAIQgAAEikogbR5iSqAfvMOinmE6DucSx1QvkQVRrGHDutbI/SCGJaLEtZJKQC89WLt2bUmdPvMuIQS0x7TXCjL2Y0GESm95snuk9BJgZRCAAAQgAAEIQAAC2UogbYJY9G2S0RxiOg7nz7nE+qqXl0kUGzx0pH3jfvAMy4sS10sigcqVK9riJctK4tSZcwkioD2mvVaQ+f24mP1YEKfSWL7Y3fdk9khpXDtrggAEIAABCEAAAhDIbgJpDZmMoh34xj7eMyyIYSrT2yYLMoSwgghRXhIJ1KhR1WbMmOunXrVK5aS8eEriOpnzhiEgrx+JYfPmLfL5GAuaRY3qbj/O/Hc/VmU/FsSrNJT7PeLEsHnz3R6pX7s0LIk1QAACEIAABCAAAQhAoFAEUi6ISfAKIZHPOw8wvU0yhE5GxTB5h/3iwicxCGQjgYoVynuhYsGCxV600MMpBoFUEVAIpLx+lHtRe60gq1jR7UcniixY6PajE0jYjwURK/nlsT3i7rvuPwYBCEAAAhCAAAQgAIFsI5DS/wqWANbJCWL6kdgVhLHhbWc7YWy2F8bCtWh5tkFnvRAQAQkV9erWBAYEMoKARBH2Y0bcCiYBAQhAAAIQgAAEIAABCKwHAikVxILYJUHsmINbOUFsqBfF9Bksv5xhoQ6fEIAABCAAAQhAAAIQgAAEIAABCEAAAhBIF4GUCmKapESxIIzFTxoxLJ4I5xCAAAQgAAEIQAACEIAABCAAAQhAAALrm0Da3jK5vhfCeBCAAAQgAAEIQAACEIAABCAAAQhAAAIQSIYAglgylKgDAQhAAAIQgAAEIAABCEAAAhCAAAQgUGoIIIiVmlvJQiAAAQhAAAIQgAAEIAABCEAAAhCAAASSIYAglgwl6kAAAhCAAAQgAAEIQAACEIAABCAAAQiUGgIpT6qfqWQmTZ6RqVNjXhCAAAQgAAEIQAACEIAABCAAAQhAAALrkUDWCGJNN2mwHrEyFAQgAAEIQAACEIAABCAAAQhAAAIQgECmEiBkMlPvDPOCAAQgAAEIQAACEIAABCAAAQhAAAIQSAsBBLG0YKVTCEAAAhCAAAQgAAEIQAACEIAABCAAgUwlgCCWqXeGeUEAAhCAAAQgAAEIQAACEIAABCAAAQikhQCCWFqw0ikEIAABCEAAAhCAAAQgAAEIQAACEIBAphJAEMvUO8O8IAABCEAAAhCAAAQgAAEIQAACEIAABNJCAEEsLVjpFAIQgAAEIAABCEAAAhCAAAQgAAEIQCBTCSCIZeqdYV4QgAAEIAABCEAAAhCAAAQgAAEIQAACaSGAIJYWrHQKAQhAAAIQgAAEIAABCEAAAhCAAAQgkKkEEMQy9c4wLwhAAAIQgAAEIAABCEAAAhCAAAQgAIG0EEAQSwtWOoUABCAAAQhAAAIQgAAEIAABCEAAAhDIVAIIYpl6Z5gXBCAAAQhAAAIQgAAEIAABCEAAAhCAQFoIIIilBSudQgACEIAABCAAAQhAAAIQgAAEIAABCGQqAQSxTL0zzAsCEIAABCAAAQhAAAIQgAAEIAABCEAgLQQQxNKClU4hAAEIQAACEIAABCAAAQhAAAIQgAAEMpUAglim3hnmBQEIQAACEIAABCAAAQhAAAIQgAAEIJAWAghiacFKpxCAAAQgAAEIQAACEIAABCAAAQhAAAKZSgBBLFPvDPOCAAQgAAEIQAACEIAABCAAAQhAAAIQSAsBBLG0YKVTCEAAAhCAAAQgAAEIQAACEIAABCAAgUwlgCCWqXeGeUEAAhCAAAQgAAEIQAACEIAABCAAAQikhQCCWFqw0ikEIAABCEAAAhCAAAQgAAEIQAACEIBAphJAEMvUO8O8IAABCEAAAhCAAAQgAAEIQAACEIAABNJCAEEsLVjpFAIQgAAEIAABCEAAAhCAAAQgAAEIQCBTCSCIZeqdYV4QgAAEIAABCEAAAhCAAAQgAAEIQAACaSGAIJYWrHQKAQhAAAIQgAAEIAABCEAAAhCAAAQgkKkEEMQy9c4wLwhAAAIQgAAEIAABCEAAAhCAAAQgAIG0EEAQSwtWOoUABCAAAQhAAAIQgAAEIAABCEAAAhDIVAIIYpl6Z5gXBCAAAQhAAAIQgAAEIAABCEAAAhCAQFoIIIilBSudQgACEIAABCAAAQhAAAIQgAAEIAABCGQqgfLpmNgJh7fP1W2LZjXti8GTbOA3E63XDs2sZ4+mNm7ifF9n/KQF/nquBpxAAAIQgAAEIAABCEAAAhCAAAQgAAEIQCBNBFIuiEnwSiRy3XhpDy98SQy7+rbBseVIPJNgFgSyWAEHEIAABCAAAQhAAAIQgAAEIAABCEAAAhBIA4H1GjKZSPiSeKbrGAQgAAEIQAACEIAABCAAAQhAAAIQgAAE1geB9SqIrY8FMQYEIAABCEAAAhCAAAQgAAEIQAACEIAABPIjgCCWHx3KIAABCEAAAhCAAAQgAAEIQAACEIAABEodgZTnEMuPkPKEKTwyPun+06/8ll8zylJMYPbclbl6rFm9vJUvXybXteKcTJux3Eb9vch6bl+3ON0Uuu38hats+szlbo9VsQopXE+YyPRZy+2LIXNs1ao1tsN2daz5JhuFokJ9LnDzrLJRuTyZr11rViZ1t6NQc6MyBCAAAQhAAAIQgAAEIAABCEAgGwikXBCT6KXE+VGL5gjTmyaxwhF48e1/rGObGu6neuEaJqi9avVaO+qc4da86X9izpKlq639ltXthEM3sbq1KyZoVbhLU5wg9tk3s5MSxIb8MNfmLVhle/eqX7hBIrXHT1pq9zw5zhYtXmV13PynTFtmW7Soaofsu7G13aJapGbRD1c7bhfd+Iftv2dDq12zoj33xmS7+tyWVrZs4ZWr6+8ZbUcf2MQ6t6uxzoR++GW+PfXaJHvkltxvao2vKNHxrf7T7MxjN40v4hwCEIAABCAAAQhAAAIQgAAEIACBAgikRRDLzwtMb6GUYBbeKpnojZQFzDmriiWGyVIhhkXBRQUXiT1vfjTNHn95kl1+5ubRamk/njFrhc2YvbzI4/w1drHd/shYu+DkFta2VY74tWbNWvvp1wX2vwfH2JVnb26tWxZfFBv51yJr0qiyHbh3Iz/XPXcuuoCX32I7tq1uV53TMr8qvkwi5qjRiwqsRwUIQAACEIAABCAAAQhAAAIQgAAE1iWQckFMQ8gLLOoVFsQvlUkMu/q2wTr0pvBJ1Y3WCWXZ/hnEsKMOaJJWFOXKlbFmTTayYT/Ni42zYNEqe+T5CV5YqlmjvPPgamCLl6y2TV29HbarbRKdXn9/qg34epZJUOu+dW07ZJ9GCT3M3vxwms2eu8JOPapZrH8d3Pf0ePvWjan2ErDktXaZE+QmT11mj7ww0f4cs8hq1ajgvcf69W6UMIxQYthZx20aE8PUr7y2tulU026+pJW56ENvCkN886Op9vEXM02hlW2c59jpR29qjRtW8uOfc+3vds7xze2JlyfaOOdxJnFNIlvtmhXctUn2zXdzbOHi1XbaZf+F96rOOSc09/1//s0se+39aTZn3gpr5bzTdM9eeneKn4OvkOQvrV28Ljl9M9Ocn3WeaIO/n2uVK5W13Xas5z3UtIbXP5jqmK6MzeeBm9qlJUw0yWlTDQIQgAAEIAABCEAAAhCAAAQgUKIIpEUQCznC5P0lC+KYRK944Ut1EMTW3TMSw156Z4od2a+xBWFs3Vq5rxQmrPLLoXNijae5vFsDB8+KCVYSYq69a7Rt3KCS3XrFli5n1lp7xYk7o/5ebMcelCPOvfD2FPv5t/l29vHNreWmVey9T6fbrQ+PtduvaB3rVwefDpplXw2bbbdfmfu6yo52olFtJ3hJLDu8b2OrUKGMKb/WJTf/Yb13qW/nn9Tc/h6/xF5wLFa6ORzqQiCjJtFOAlSntuuGHqqeRL5gL77zj30/fL5fY4umVezDz2fYxTeNssdubW+VK5dz+3KJF8MO3mdjJ5JVtqdeneTrSNg6qE8ja9q4sn09bE5MAPv1z4X21b8Mv3GC1fNv/uPDILfrXMsGfT/H7nxsrBe0wvjJfq5YscYUDikb8uNcm/jPUnvQiV1Ll622O5z4t5nLj7Zj1zpWu1YFe/q1yXbdBVv4uuWdqIlBAAIQgAAEIAABCEAAAhCAAAQgkByBlAtiColMFAZ546U91hHDkpti9tYqbJjkiFELkg6t/Hv84hhYiVAKwdOn7Dcn9vzj8nDd4USskGz/4tM3tyPO+tmXKw/ZWx9OtbuvbWstm1fx1yRu/fL7AlvtPMeCfe/yYb32f1Ptjqta20ZOdIq3Ok7UqVGtvC1bvtoaOfFN9rIT3pT/65h/hbd6dSpatarl7Jo7RzsPtI1zeYktdIJYlY3K57oWP4bONd83P5hmd17d2veta8cdson9MWaxDfhqlvV1ecEkAu7vvNC6blVLxXbYfhvb/U9P8J5e8hLTj7y0wjz/mb7M19Ovd1wuL4VSyoNL1sd5082fv8qLgf5CEX+tdiLg3PkrfU60zZzoeMtlW8Z6qu+46MUBYT6xAg4gAAEIQAACEIAABCAAAQhAAAIQKJBAygWxAkekQlIE5JkUPMPSETJ50uG5X3wg4eWEC0d4QegfF7a3TceaMTFME96oclnbukNNP3e9ybFG9QoxMSwsKOqppT6Uw6tbl1peTAp1CvpUyGCPbWrnqtauVXXvPSZPMglkweTBJlFMyfSrVc17K2u+CvuU0Ba17d04Yycs8Zf0VketOVjL5lVt4pSl4TTfT3nYbdMpR0gLFbftXLPYgthO3ep4gfH+Z8Z7sXKvnvW9eFexQtkwDJ8QgAAEIAABCEAAAhCAAAQgAAEIFIFAyp+sFRLZvGniELb4cMkizDermgQhLAhj6Vy8PKD0hskp05e7NzVW8Pm7ouPJg0oeVTLVk4A2c/aKaBXviRUuzF+40m68uJUP//vgsxnhcoGf9Vzfo/7OnSx+ivPGWuLylymfWNSUK6zb1rVcPq1p0cux4ydfmWQfDZzp56t8W/Hz/cONU7dOTp/KoyYPsJgVIgJRXlo/jJgfa6oDeccV15SnbZfude3e69r6kNO/xi32HnfF7Zf2EIAABCAAAQhAAAIQgAAEIACBbCcQUQBSg0Kil0ImFSIZ/fli8CQ/QHyZxDMl4ccSEwii2IhRCxNXSMHVFSvX+GTzEpgUAqlcZMrZJSFL+cOU1+pNFyI5b8FKP5qEIyXWf+Gtf2JhlnoL4xlXjDT1JWvrvLrauaTzV53b0t5wbX/P442ITZtUtgmTl/qQRYluu+5Y1+fO+nnkAn9NwpvG6bVD3Vwea34Q9+vUI5vZpy6x/6suNFNzlWmeGvMHJ0r16lHXC107da1tz7t+VKZxfvx1vhexem1f17cpzq+D+mzsQ0g/cfPQfJWfbODg2cXp0rd9/KVJLjfZZH8sz7i2W1S35e5eyDZ2LwOYNWeFP9d6MAhAAAIQgAAEIAABCEAAAhCAAASSJ5B3nFnyfaxTUwJXXiJXfmXrdMQFTyCIYqnEcegZOfnA1KcSsndx4ZAXndrCDyHB65rztrDbHxnjwzYllHVpX8Oi4tFZx25q9z013o457xdrWL+SVatSzi48pYXFh/MpT9jl7s2Rtz401uUca2M6j1onJ769+/F0O/Ls4T5c89wTm9t57kcJ5JVkf57LxdVj29pe+Iq2C8fq78Gb2tpDz04wralG9fK2xuUM29qFP17rEs4Hr6+zjmvucoKNt2PPG+E8zcr7UEStt0mjyrk820K/hfns7sJC9aZM5RJ75T2XA82FW553UnO76/FxeXZz7d2jrVycHK03bCqnWrDjD93E7nx0rJ18ya8uV1o5n4ftsjM388XKyaYXD5x40Qir7to8fHP7AnOphX75hAAEIAABCEAAAhCAAAQgAAEIZDuBMr2P+i6Xf8nyZdNLJJNKlRvmO+/+L2ybbzmFiQko1FBJ7StVjFNv/q2+dNka5022JpeQk7in/K/KI01J4qOmEEcJXHmNHa2rY4lS8tCK5hmLr7Ns+Rqfcyy/OvFtkjmXZ1xUDBzw1Uz7Ysgcu/Xy/xLhJ9NPojrqe+XKtVbViY7xJq+48OKD+DLOIQABCEAAAhCAAAQgAAEIQAACEEhMILHKkbguV7OQQF2XTyw/QUrJ9qNeTUVFFC+GqZ/6dSvmO3b8WMoDVpDQJY+xgurE91vQ+YxZK3y4qPKISSD89ud59obLa7bf7g0KappUuYS2RGKYGiOGJYWQShCAAAQgAAEIQAACEIAABCAAgVwE/ovPynWZEwhAIFkCDepVNIU7vjtguinvl95oqXBHvcUSgwAEIAABCEAAAhCAAAQgAAEIQCDzCCCIZd49YUYlkIBeRhBysJXA6TNlCEAAAhCAAAQgAAEIQAACEIBAVhEgZDKrbjeLhQAEIAABCEAAAhCAAAQgAAEIQAACEEAQYw9AAAIQgAAEIAABCEAAAhCAAAQgAAEIZBUBBLGsut0sFgIQgAAEIAABCEAAAhCAAAQgAAEIQABBjD0AAQhAAAIQgAAEIAABCEAAAhCAAAQgkFUEEMSy6nazWAhAAAIQgAAEIAABCEAAAhCAAAQgAAEEMfYABCAAAQhAAAIQgAAEIAABCEAAAhCAQFYRQBDLqtvNYiEAAQhAAAIQgAAEIAABCEAAAhCAAAQQxNgDEIAABCAAAQhAAAIQgAAEIAABCEAAAllFAEEsq243i4UABCAAAQhAAAIQgAAEIAABCEAAAhBAEGMPQAACEIAABCAAAQhAAAIQgAAEIAABCGQVAQSxrLrdLBYCEIAABCAAAQhAAAIQgAAEIAABCEAAQYw9AAEIQAACEIAABCAAAQhAAAIQgAAEIJBVBBDEsup2s1gIQAACEIAABCAAAQhAAAIQgAAEIAABBDH2AAQgAAEIQAACEIAABCAAAQhAAAIQgEBWEUAQy6rbzWIhAAEIQAACEIAABCAAAQhAAAIQgAAEEMTYAxCAAAQgAAEIQAACEIAABCAAAQhAAAJZRQBBLKtuN4uFAAQgAAEIQAACEIAABCAAAQhAAAIQQBBjD0AAAhCAAAQgAAEIQAACEIAABCAAAQhkFQEEsay63SwWAhCAAAQgAAEIQAACEIAABCAAAQhAAEGMPQABCEAAAhCAAAQgAAEIQAACEIAABCCQVQQQxLLqdrNYCEAAAhCAAAQgAAEIQAACEIAABCAAgfLpQnDC4e0L7Hr8pAU2buJ8/1NgZSpAAAIQgAAEIAABCEAAAhCAAAQgAAEIQCAFBNIiiPXaoZlJ7Br4zcR8p9iiWU3r2aMpgli+lCiEAAQgAAEIQAACEIAABCAAAQhAAAIQSCWBtIRMNm9aA5ErlXeJviAAAQhAAAIQgAAEIAABCEAAAhCAAARSRiAtHmLR2ckLTD/xVpD3WHx9ziEAAQhAAAIQgAAEIAABCEAAAhCAAAQgkAoCaRfENEnlCcMgAAEIQAACEIAABCAAAQhAAAIQgAAEIJAJBNIuiCGGZcJtZg4QgAAEIAABCEAAAhCAAAQgAAEIQAACgUDaBTGFS0oUU6L9qBEyGaXBMQQgAAEIQAACEIAABCAAAQhAAAIQgMD6IpCWpPoFTR6vsYIIUQ4BCEAAAhCAAAQgAAEIQAACEIAABCCQLgJp9xAL4hceYem6hfQLAQhAAAIQgAAEIAABCEAAAhCAAAQgUBgCaRfEwmTi3zQZhLJQzicEIAABCEAAAhCAAAQgAAEIQAACEIAABNYHgbSHTAYhTJ/hZ30sjDEgAAEIQAACEIAABCAAAQhAAAIQgAAEIJCIQNo9xIInGCGTifBzDQIQgAAEIAABCEAAAhCAAAQgAAEIQGB9E0i7h1h+C5LH2PhJC/KrQhkEIAABCEAAAhCAAAQgAAEIQAACEIAABFJKIC0eYl8MnuTDI084vH2+k5X32NOv/JZvHQohAAEIQAACEIAABCAAAQhAAAIQgAAEIJBKAmkRxCR06YcwyVTeKvqCAAQgAAEIQAACEIAABCAAAQhAAAIQSAWBDRoymYoF0AcEIAABCEAAAhCAAAQgAAEIQAACEIAABApDAEGsMLSoCwEIQAACEIAABCAAAQhAAAIQgAAEIFDiCaQlZLLEU8nSBbz99tv26aef+tX36dPH9tlnnxJPYsaMGTZu3DgrW7asNW3a1Bo0aOCPS/zCSvkCVqxYYeeee25slY888kjseNCgQda/f3/bY489bJdddoldz6SDP/74w+677z4/pS233NLOO++8TJoec4EABCAAAQhAAAIQgAAEIJD1BBDE1uMW0AP++++/70c87bTT7JJLLslz9LZt29qyZct8+f/93/9Z+/b5v6Agz44KUfDXX3/ZgAEDfAs9xKfKPv/8c1u7dq3vrmfPnlauXLlUdZ2wH4314Ycf2p133mkTJ07MVadRo0Z2zDHH2JFHHmnVq1fPVVYaTiT+jRkzxi9l0003tS222KJELmv16tWxvagF6J6WKVPG5syZYyeffLJJMHvjjTdM4pjuaabZ7NmzY/OfP3/+BpneTz/95Hlp8M6dO1u9evU2yDwYFAIQgAAEIAABCEAAAhCAQCYSQBDLxLtSyuYk8U8Ch+y3336zKlWqpHWFN9xwgz333HMJx5g2bZrdfvvt9uqrr9rTTz9tm222WcJ6JfWihMC7777bT/+kk06yK664oqQuJeG8JYSFvbRmzRovjCWsyEW/D4YMGeJJPPnkk9arVy+oQAACEIAABCAAAQhAAAIQgMC/BBDE2AqlisBHH32USwxr0aKF7bjjjrZq1SobNmyYjR071q9XnmMHH3ywDxGtU6dOqWJQmhcjb7A77rjD5DW55557WrNmzUrzclkbBCAAAQhAAAIQgAAEIAABCKSJAIJYmsDS7YYh8Nlnn8UG3nrrrX1YXeyCO/jmm298yN3y5ctt7ty59vjjj9tll10WrcJxhhPYf//9TT8YBCAAAQhAAAIQgAAEIAABCECgqAQQxIpKbgO0U4jYLbfcEhv5qquusk8++cT//P777yZPJ+UaO+qoo2yTTTaJ1YseKBfTW2+9ZQqlGjVqlNWvX986duxoCq8ryJYsWeK9r4YPH27jx4/34YZdu3a1o48+2l+fMmWK70Lnyl9111132dKlS03zDnbbbbdZhQoV/Kk8fLbddttQ5MMp3333XVNC8pkzZ/r+W7du7XN+1a5dO1Yvv4N//vknVqy5xdsOO+xgCh/79ddffQhZq1at4qvYypUr7aWXXjKtU3nVqlatasqppgTuu+222zr1w4UFCxbYCy+8YCNHjvR5vGrVqmUtW7b0fLSOqCmkc9KkSf6ScpqprbzbJk+ebLfeemssrDTZuXz//fc+Z5XmHEwecTfddJM/rVy5sl100UX+WDnGxFnsd9ppp1A94eeXX37pRUQVqq72l9aoeR5xxBG21VZbxdop/9zXX3/t758ER7FV+eGHH27lyyf+qpGn3ssvv+zvvfKDtWvXznr37m3bb799rN/ogTz9xCeY/gaipvsqtqNHj/YvT9Ae6Natm2233XYxptH6hT1WzjK9eEJ/O7pnzZs3tx49ethhhx1mFStWLLC7X375JZZHUH93++23X642CxcujCXj1747//zzc5Uns74333zT3wPlkwv22muv+b95nWsvHnTQQaGoUPs90XeQ7vt3333ncwOWthDdGCQOIAABCEAAAhCAAAQgAIFSR6BM76O+y8l2/u/Sli+bXiIXWalyw3zn3f+F/4SXfCumsbC4SfWVOymaJP3444+3Z555Zp0ZV6tWzQsh8Q/bs2bNsgsvvNAnIo9vpNAziTcDBw70Reecc06uN+ONGDHCv/VvwoQJ8U19SKLEsJDMXWJS9+7drUuXLjZv3rx16ocL11xzjR133HE+J9T9999vDz/8cCw/VKijz7p169r//ve/fMWoUP+6666z559/3p9utNFGJkYSbho3bhyq5PspoeOCCy6wP//8M2E9vXlTIlONGjVylUs4uvzyy2369HX/fpQM/thjj7Wrr77aJ4ZXQ4Vr/vjjj74PiTp6I6HEEJlEEyX8L8xcJAJdf/31vn2iXzVr1rSff/7Zix8ScLQXZHqzqBKu52USNR966CFfLJYS2TQv2WOPPWa7776797STEBJeyOALI78kcimvWXTvqlhjX3vttbZ48eJI7ZxD7Ytnn302dl17Sxz1ogm9cCJYCIHV+YMPPhjLnxbKw6feMCpvwKK+LGLRokWer8TkRLbxxhvbU0895cUmlQ8ePNgLoTqWICfRTyaxKrxMo1+/fl409gX//lKOuyAGat9L6AyW7PpOP/30PO+F+pIQHd7aWZg9prbx30ESJ7XvJbTrvnzwwQeqhkEAAhCAAAQgAAEIQAACEMh4AmUzfoZMME8CQQyTJ0mTJk1iYose3iXqRL2F1ImuycMlmJLby5NMQoM8dYIYFsrDp96Sd+KJJ1pUDNPDenhrnfoMYlhoU5hPJbd/4IEHYmKYxCaJaWXL5mxPvbHvzDPPTGqMM844wwtoGl/eaRLZ5BWmELtHH33Ue7blNTcJUieccEIuMaxDhw7eiy600QO/kvZHTR5tp5xySkwM01s0mzvPofA2TYkFEnfkHZfI5PUXxLBQXtS5hPZ5fepeKlQ0WPSehmt5fUp0C2JYtI48z6JimMSnqPgljzm9WEEJ8YP98MMPdvHFF8fEMO1B7WHtZVlUDAtt8vuU2BdeJiBPLYlNEvDCPOSNd+qpp8be3JpfX4nKJPhFxTB5LMq7MtjUqVP9m0ujHoqhLBWf6VhfKvaYuGh/YxCAAAQgAAEIQAACEIAABEoaAQSxknbHIvOVoHXvvfeavLckSik/lrxRZAptuvLKK2PhikpCrnJZpUqV/JsWFX6lEDeFT+YXOichR6KUTKKFvFzkuaIwKXn5KDwykX3++ecm4SMIQ6rz1Vdf+Wu6rjAzCRX33HOPby5RRKKG+tUYmteBBx7oyxQ6KI+ygqxBgwY+pE1hm9FxxUhvl9Sb9tSn+o+GcqpflQcPL3npSCB87733bOjQofbiiy/GQu60Zs1Rpj4k7CiUT6awSpWprRidd955/rp+SfibMWNG7DwcqI+Q4F9rlodfYedy6KGHeq4SnoIdeeSRMdZB7JSIqTA8CZryFFJ4YrKmeSovW7g32jMSCL/44gvfhRLev/766yZvOQlkH3/8sQ+xVKHC9+RRJpOXUVRIkTehPKq0h3WftAcK+yZSCUbBxFKebfLIe//99+2AAw7wIcHyMgzhuvIs033K60ehssG0luD5pHnJY07effKWU+ipxE+ZhMYnnnjCH6f6V2HWp5cO6O9LYaLBxFTX9KNyWWH3WOgr+qlQ2EsvvdTfOwmmGAQgAAEIQAACEIAABCAAgZJCIHFin5Iy+yyfp0KVomGRCttSKNSuu+5qysckbx4JThKsJE4EUzhkNIdQw4YNvSeVxBHlhoq3qPePQvvkvRVM4XbywtI8JHRELVHeLwkxUbFD4onC4GTqI5osXeKWhBPNXWF13377rff6UihkfqbcXQofVKikBBrlWYt67khc0M8rr7ziRZrg6aYcXjIJaWofhA55qkkgUxif1irTvCU4SOiRB5RM85WnW/By0jzEWmKevIkklqlOvCnPVrz3WFHmojxhUbbilOgNmvKi009hTUKdvOx0D4P1798/HPqQ2m222SZ2rhxiCg9UjjSZmJ199tne0+/vv//219SX9mwIQZUoqj0g7yWFUyZrCgMN9s4773jRV/neNJ8777wzFMU+NWbU4ytW8O9Bz549fQikTj/88MNYsQTOvfbay59rrsoDpnBfjbnzzjtborx1scbFOCjM+nSfZNG8beIbvxeKssfilyCPSnneYRCAAAQgAAEIQAACEIAABEoaAQSx9XjH5JkVLBo+Fq6FT3niBI8jXYu2C3X02bdv3+ipP1auKD08yzNGplxYEsSiHi99+vTxZdFfElKUDyqEYYYyJbcPIXbyAIqKYaFOmzZtfAL1/2fvTuDtGO8/jv9u7s0eRGiILZFaWpSi1lhLg1pjD0kQsVYbat/XVikaat9JxVJb+RNbrUVoUaoEJUi0sUX2ffnf73P9jrmTOds9+72f5/VK5pxZnueZ98ydOed3nueZpO50vk66abReejCAWjrFk3+xl4u6Zmpg91ySxotSKyH9U9BKgTENLu6ttBQUU8BNY0tpTC3fT3lrfjxFx7ryekf3WQERD4ZFt9W4bZlSNKip9Vpal0xlFGOZzqtoMEx5uoNe//nPfw4tBvU6mhRQ1LHTuupeFx2fbcstt0wFw6Lb6NzOJyCmY60gr1qv6eEPao2nfwoOqSWcWs59//vfjxaR8+voMU7629H5mOs5mXOhsRWLvX/FOseSrkGxqvMWAQQQQAABBBBAAAEEEKhKAQJiZTws3uJIRWrMrnRJ4xF5QEzBBA14H0/q+pWupZS3ttE2ehKeksaO8qQB25NSdDtfHt0uabmvl2mZr5M0jQ66rycDZkvR+qRbV/loHLXoExA1sLv+acBxdZ3TkxKV1N1PT0SM1kMBlehg5knleD3cV+ukc03aPjov/kTQltYlmmcpXsfrqTKidX399dczFquAoloRRs3SnTcKLKqlXrzVYaYC1AVQrQLVYktdMNUyT+eBWoKpBZe6Tqolnlp2qYWculamS9HWjdH6tvQYJ5Wj+sWTP6k1Pl/v89m/pO2j86LHLZ/zPZqHXiedE/F1eI8AAggggAACCCCAAAIIVKMAAbEyHpVoCxWNP6RxueItblQdH69Ir/WFM6mFmL5Mq0WVBn2PJ40N5skHFdfUxwHT8qQxw+KD8CsPBfHUQksBuo8//jgEGLxLlpehLo/RVj8+P5ep10/rDhs2zAYNGpRxM3XvTJc0Ztn5558fgo1q8aYgSDR/baduhcccc0wqIKaAi1qGrbrqqmF8Kbkq6KHWTlo3XfJl0acWJvlpe7VI03GOjmkWzTfu2dK6RPMsxet4PVWGukVqjDUlja2loGOmpHNJTzP1FD1XfZ6mmp9PMMy3VRdetQxTkEdjkulvSd061UJNrcc0hpy6BstY/3JJ2ke1lFTSMdZDGqJJ54yCZkl/y9H19DraglDjecXTU089FZ/V7H2u+9dso4Q3xTrHovuTUAyzEEAAAQQQQAABBBBAAIGqFWBQ/TIeGo1n5EEFtVzRYOze0siroYHvFVjwpPHA0iWNc6Uv/tGkMbM0MLmSWpB5QEhjHXn63e9+t9hTDTVOkga8jycFMNZaa60wW9089YRFBRc8qQucWlxFW5z4Mp9GWwFpMPNoigb0NFi9ggpqEef/9F4tftTdUYGHpOCg56d9VFcwJblobKOJEyf64tTUu5Nqhsb0UldQBat+8IMfhHU0fpUGofc6+PTNN98MY46p65+3FNI2Pm6XWkjFx6XSGG7qiqpjr0CcB1ZSlUl40dK6KCt1mfWkAGZS0v5pMPhMrRSTtkuaF+0qqO6obuVTtb7TAPcavN6dZKYnQSqp26oCVdGklmQ6t3NNOh/10AONZ6Wx3rRfKktdJTWmmx4u4MnHLvP3uUz1IAFPSX87Ov81ntyuu+4auuT6uklTPYHTk85NtWTzpGtCdEw2n9/S/ct0LhRyjnm9mCKAAAIIIIAAAggggAACtSxAC7EyHj0FdzSelH/Z1yDjCnjpC7cGvFZXPwUIFGRSUmsoPREwXVIARgN8axwfDeCuFifxwfM9CKHgkFo9qTXU2LFjQysZdSFTuSoz2iotXt4pp5wSuqJpvoIXCir0798/rKYWLdm6yqk1io/PNXz4cNOA5Rq8X4E/DTSvpwyqlZEeBKB8NRi6AhsaCF+Bm7fffjuUpYCZglnpWlpp4PozzjgjPF1ThgoIaVwvBaTUKkkt5NRqKBoIij5cQOOGqcudtlUQR8EK1UX5ylbdLNVqSYPxK9Ci8aTUQkaBTT+mGkReT+5USx614FNgTQEoJR1fH8A/zMjwX0vqouyirZ7UHVTeas0mYw1Wr+CKAjcyUNdBPTAh2mIrQ5USF2lsLh0X2Wq/d9lll2CmQJnGbbvjjjtCkFLHTYEpteBToEZdV/WABiWZqa4KGuo80TFPerhDYgUaZ6pbsQLJ+ntSOuSQQ0JZGuD+k08+CU8dDQsa/1Nrr3zT4YcfHgKdOh91TOUnSwWLVaaf/9pfD3inK0OtRLX/HgjX01B1bFQvnSsKoMZTS/cvei7ob01/DwoY65qiQHlLz7F4/XiPAAIIIIAAAggggAACCNSiQN2Og15tir58W/s5sz+vxf2wjp3Sd6XTDo0euVFV7JcCEvpCGm2llFQxBarUMkqBIU8KxniLL81Ty6akFlBatummm4YATjR4pGCZAiRqaZWUovnp6Yh6op6n3/72t3bjjTf622ZTBVzUcsu/5CsIoi/5nhRsU37xpACdgoEKNGg8p3T7ou1Ut9tuu63Z/sfz8/fKV1/2s3W5U7BLT01UwMHTZZddZldeeaW/TZyqJZICb54UQNOYVNGncfoynyoYOmrUqFT9tb+vvfZaWKwAW9LTCVtSF+3zz3/+8xB887I11YD4CujJOHpOaUytTGNpKTDoLRZ17uhfPCmQo9Zv/rTQ+HK91/7p/PEudjoHBw4cmAomxbeJnotapocpKICnMrzFouZ7i0N1Sz3ooIMydt1VwE0tybx1mrbPNamF22GHHZYKbiZtp/L9QQAKpirYpaS/RR17T3qIg1qaJSV1kfZgoM4ZH8uuJfunvyud42qlF00Kyv/iF78Is/I9x+LXIPeP5s9rBBBAAAEEEEAAAQQQQKAWBL6LBNRCbVtBHRV8UcuY6667LrTm0Zf8aFKLrgEDBoRWLdHARXQdf/3QQw81CzxpvoJTCmQp+BENhmmZxk5S6xs9FTKa1KpFgY/40w6j6yjApFZR+pIeTeoap26aepJluqRWQ3rSo3cz1D6r9YoHwFZcccWwvwcffPBiXSL18AAFbJLGA0tXntZ/8sknw1MH1YonnlTXP/zhD4sFw7Ter3/969CqKRp49O3VkmrEiBHNgmFapv255pprwqDncR8db7Umyqf+Xl5L6qJjfsMNN4QgjJ9bOr6qh4KxCjTtu+++4b3GP9M5UWjSuFwKtm7T2NovGlxUvhqcXufj7bffngqGab6Oq7pYKjDj47FpvpKCdwpq5pPU9VXnoVpCetDNt1cAbMiQIcGlJcEw5aMukQp4al/jf1cKYmnAew+GebnpphorT63iouem3HQs4k959Txasn/6u7rppptCN9ZoPtGnpbbkHPO8mCKAAAIIIIAAAggggAACtSxAC7EKHz2NdaVWFuoq1rdvX1thhRVCgCWpWulaZ6hllrpyKRijLlnxL+xJeam8d999N3QH1DbxQEbSNj5PLVjU/Urb9erVy2dnnaollYJgCoyl61qmfVS3MXV1Uyu5Pn36pAJpWQtIWEEtkVRf5alyFQxTvrkkDZSu7qGzZs0yjf2kfx5kyrS99lHdI9U1TvWPjqGWabtMy1pSF9VbXRkVGInXW8c/+iTFTGXns0ytkdSaS2Ol6VyWd7YglI65nNVlVq2/omNf5VO2r6tWZDo/dRzU3VXHIB4k83VbMtU+6vhq3DwFhOWby99cvCwdH+23rgHqYpprHVuyfzre+ltQYC1dask5li4v5iOAAAIIIIAAAggggAAC1S5AQKzaj1CkfukCYpFVeIkAAggggAACCCCAAAIIIIAAAgggkEWALpNZgFiMAAIIIIAAAggggAACCCCAAAIIINC6BAiIta7jyd4ggAACCCCAAAIIIIAAAggggAACCGQRWHzE8SwbsLiyAhprSCk+JlRla0XpCCCAAAIIIIAAAggggAACCCCAQO0IEBCrnWMVBu7WkyVJCCCAAAIIIIAAAggggAACCCCAAAItFyhLQGzVVZaybfutHGr5zIvjbdynU1peY7ZEAAEEEEAAAQQQQAABBBBAAAEEEECgAIGyjCGmgNjH46eagmEeGCugzmyKAAIIIIAAAggggAACCCCAAAIIIIBAiwXKEhDzFmEeDDv/5H720y1WaXGl2RABBBBAAAEEEEAAAQQQQAABBBBAAIGWCpSly6QCYmolFu0uOXTgOmGeB8taugNshwACCCCAAAIIIIAAAggggAACCCCAQD4CZWkhpgo9/bdPm40ddvOdb5uCYiQEEEAAAQQQQAABBBBAAAEEEEAAAQTKKVD0gJhaginQlUuXSLUO03rahoQAAggggAACCCCAAAIIIIAAAggggEA5BIoeENM4Yeoa2WflJTMGuhQI00D7Sj62WDl2mDIQQAABBBBAAAEEEEAAAQQQQAABBNq2QNEDYuL0p0pmavml1mEKmjGGWNs+Adl7BBBAAAEEEEAAAQQQQAABBBBAoNwCRQ+IqXWYkoJdGjcsXfJAmLcoS7ce8xFAAAEEEEAAAQQQQAABBBBAAAEEECimQNEDYgp0KRCWqXWY74DW0eD6Hhzz+UwRQAABBBBAAAEEEEAAAQQQQAABBBAolUDRA2Je0fhTJBX8ig60r4H3vTWZb8MUAQQQQAABBBBAAAEEEEAAAQQQQACBUgs0lKoAtfpSEOz8k/ulWoBpEH0FwmgZVip18kUAAQQQQAABBBBAAAEEEEAAAQQQyCZQshZiKlhdJ8+86MVQB28NpqCY5tFNMtuhYTkCCCCAAAIIIIAAAggggAACCCCAQCkEShoQ8worGKbB83mqpIswRQABBBBAAAEEEEAAAQQQQAABBBColEBZAmJqDaYxxdr6APqff/65Rf/NnTu32XG/9957beLEic3m8aa5wKeffmoPPfRQ85m8Q6CKBFpyji5cuNCuvvrqKtqL5Kr86U9/ssmTJycvLNHcZ555xv7973+XKPfFsy13eYvXoDRzauUcW7RoUWkAsuRaiXM7S5WKsrhWjnvSzs6cOdNuvvnmpEXMQwABBBBAAAEEiiJQloBYUWpa45nMnz/fNttsMzvggANS/zbYYAP75S9/adOnTw97d9ddd9l///vfGt/T5tU/6qijbNasWc1n5vEuvr2CDffdd18eOSy+6uOPP26jRo1afEGVzal0PUtRfvx4Vhl5UarTknNUX1ovv/zyopRfykxuueWWvAJixTjeTz31lP3rX/8q5W41y7vc5TUrvIA3Ou/OOuustDlU+hzL5Xry7LPP2s9//vO0+1DKBfme26WsSzHzLsVxv/jii+2cc85JVTPp71zXszfeeCO1Tkte6LPRDTfc0JJN2QYBBBBAAAEEEMhJoGSD6udUehtc6a9//Wtqr6dOnWoXXnihnX766TXxZThV8TxevPTSS7ZgwYI8tmi+aqHbN8+t6d1nn31WE4HHStezFOWX4ngmHWPmVYcAx7t8x0HBg0IDEKWsbS7XE/1oVAstJUvpVAt5H3rooaZAm6ekv/N33nnH1l57bV+FKQIIIIAAAgggUJUCtBCr4GFZcsklTb+svvhi04MHolVREOnSSy+1LbbYwjbccEP7xS9+YV9++WVqlW+++caGDx8elv3sZz8z/bqtX2RHjx4d1tEXo0MOOcQ233zzsK1aD3jSB9X99tvP1l13Xevfv7898MADvqjZVHXYZZdd7M0337R99903rD906FD76quvUut99NFHdtBBB9l6661nP/3pT+2mm24ydXlRGTvssIPNmDHDBgwYEF7/4x//CNs9/PDD4b3K33vvve2tt95K5ecvMm2vddS9VPmrld25557bLOj27rvvpvZvzz33tJdfftlUb7W+O+200+y6664L+6ztZRhPqr9+Ad9uu+1s1113Dba+TrbjMmXKFDvxxBNt4403tp133tmuuuqqVN10jG6//XY77rjjwnFXnukscqmntv/ggw9s0KBB9uMf/zhMlZ8nfWHRvm677bZhuQw++eQTXxzqoXNP56C2V311rJXSlR897/r16xec5s2bF7Z5/fXXw3ZJxybd8cxkHTKN/JdpX3Vc/vCHP4S/F32pPuOMM0wtUi666KKQg+zVKvA3v/lNaKmpuv/5z3+O5N78ZbrzWmtl2s9oLqrTwIEDbdy4cdHZ4XxK1w1ITvvvv3/4W9ttt93CuRvdON35El1Hr6+44gr7v//7v2azr7zyynC+aaY87rzzznD8ttpqq3C+qnVRtDVn0t9RNMPouRC/BqU73to+0z4k5RktM/46qY7+t6519beW7hzX8nzLK+QczHbe5HKOqgWVrknrrLOO6fx44YUXtBum1sVHH320/ec//wnXRV3b4l3yw4qN/2U6x7Jd3zwPTWX7xBNP2IEHHhiuc5qX7timu57E89Dfnc5dT6pr0r3qL3/5Szh3fT1NdX/U/UStsaPHNX6d0rpJ543mp0vp3LV+tnNMproPbLPNNqa66H4VHRoh3T7G65LpWjls2DCL3uO17eGHH95sXqbjrnPvtttus2OPPdbWX3/9cL/X/VKts7beeuvwOUDXdU9qRanri/JMus/rc4OCZGeffXZYrs8FStn29ZFHHgnr634U/Tv2cpkigAACCCCAAALFFiAgVmzRPPPTl7U+ffostpUCMho3RwENfUhcaaWVwgdcfSjWP30ArqurszvuuMMuu+wyGzNmjGkMFAVktPzMM88MgQ59Ydppp53CB1PN/+KLL0IAS0EqfWBV6zR9AdEH/njS+mPHjg1BhCOPPDIEkdq1axfK1Lr60qEv/AqGKfigLz0Krl177bW22mqrhQ/TnTt3Dvnrg7W+xGl8nhEjRtgpp5wSyteXfwXuosE+5Z1uey1TAO3JJ58MARC1Jnj++eft73//uxaFfBQgUiBQX9ZU79///vf26quvhi+I+sCvL1gKdqlOp556atgu+p+20xdLfbnTF4Wnn346+GqdbMflsMMOC1/IdFxUN9VV+6v09ddfhzrri5ECM5kscqmn8tOX0Y022sjU8vDXv/51KMu/JOu4Pvroo6EblQKlP/zhD8O+6xxRGj9+fDj++pL22GOPhS8+v/vd78KypPJ1PuhLynLLLRfOSfnp/FDgVknjvaicpGOT7nhmsg6Zfvtftn295JJLQnDgggsuCF1ql1hiifA38L///S/koO21TkNDQwimnnTSSfbb3/62WQDIy8t0XmudTPvpeWhaX18fAk0KgnpSkFLBMJ0D8aQvzvq70Pmpc2P33Xe3Y445xt57772waqbzJZ6X/p78OPsy/e37+F/y0HGbNGmS3XrrrXbNNdeEL88nn3xyWF3bJ/0daQxEJZ0Lma5B6Y53pn1Il6fOkaSUro7+t65tMp3j+ZZX6DmY7bzJdo4qsK/zQ9dcXfP0I8Xxxx9vr732WuhmqIDmKqusEq5r+tts3779YmzZzrFM17d4ZrLVOaSA0MEHH9yi61k8j9mzZ4djprIy3au23HLLEATUDy6e1JVe1zj93WW6TqU7b/zc9vx8msld62Q6x7Rc139dn3VtUhBpqaWWCoEnXQsy7aO2jaZM10r90BEPgGrenDlzQhbZjrufe2uttVaooz6T6DOCruW6Nui8033Uh3TQNVI/jKX7O9c2Cmrp+qVzca+99sq6r/oMIiMdO91zdY3061HUgdcIIIAAAggggEAxBegyWUzNHPJ68MEHw1r6MvbKK6+EQIQ+PEaTWtwouKVfYXv16hUW6Qu8WnK8/fbb4Qu5Wp2oVYB/6VHrGLVKUlKgTB+O9Su4uizo11r9U1KrELUKUyBKSb/+HnHEETZy5MjEL+n60K4PqGr9paSWagqiqWWV6qgglwIxSssvv3z4sK/1lae+nCmAtvLKK1u3bt3COtdff334MqBWS0r6Rf9vf/ubyUXBJE8dOnRI3F7Lp02bFoIZyyyzTFh9n332CcGvTTfdNLQC0i/c3vJLdVJwRIEjpZ49e1r37t2DoeqXlOSvL00ff/yx6QuCbJSyHRe1rvnwww9DHRR4UVKw0gMaeq86KtChlM0iWz0VdFMw0vdVHgq26PirlYSCqffcc4/96Ec/CuWp5do///nPMM+t9aVDgQ8lHUcF1/RlJ8lJQVd1y1IQUWXIVoFXtVTxLy6Zjk3S+ZDOOlQo8l+mfVUe2m99Idb5qKT6xLuPaZ+8niuuuGII3iqwoBYO0ZTtvNa6mfYzmtfgwYNtxx13DIEL/Q0899xz1qfxy2bfvn2jq4XX+ltTa0t9EVVStyS1+lDrCgUqsp0vYaM8/uvatWvosq1jqaSAoVrXqWubWoNk+jtS0CnTNSjd32+mfVCL0Ux5xndNLf4y1dHXT3eOv//++3mVV4xzMNt5k+kcVQs/nRMah1JJf7f6W1XgXeeI/h7d3fc9Ps10jilIn+m+49eRaJ6qy09+8pMwK9Ox1fUm3fUsmkc070z3Ku2v7l26b+jarvup7oe65um+muk6let543XJ5q710p1juvcoIKS/J7826ccGBdl0LDLto/KMplyvldFt/HWm465ri9Iaa6wRfnTTa7U2VJ11TdA9UEk/IilApmuUJz/f4vd53fO7dOli3/ve98J9XOurBXumzx46f3R+6wcBpSFDhoSA/d133x3e8x8CCCCAAAIIIFAKAQJipVDNkKeCP57U0kYfzv0Dp8+fMGFC+ICv1k1K+rCvpA/E+oVWX4L0ZcCDYVqmD5/61dyTWqWohZA+xOqL5q9+9avwgVxfOBUUUVDG89WvyB07dvRNm031QVeBOE/6UK9uQ0oK/ujLfjTpy5E+JOuXb31BiyeVry8tN954Y6p8tWTx4FZ8/aT32p/o+gr6ebdT5a/uW9GkINTSSy8dnZXxtYKH+gKhwJ+svRWb7GWW6bjIyoNhKkRBB3Xr9LT66qv7y/BlvBALdS/afvvtU/npRe/evcN7BfN69OiRCob5Sgr+qNuKJ60U77QAAEAASURBVA9M6r3q/f3vf9+Ur7rpxpNs1cJojz32SB07X8dbHmU6Nr5udJrOOn4+ZttXnQ/+hdPzV8vIaFDMg7q+XOeNdzHzeZpmO6+1Tq77ueyyy4ZjpC+XakWjv3cFyZKSAlPx4JzOZW9hWOjfjoKk0aSyPBim+aqrAqwqJ9vfkZZnuwZFy/LXmfZBwYN88sxWRy8z3Tme7z4U4xzMdt5kOkdVvsacjCYdw3weMpLpHMt230kKiBXjehbNI7pvOj6Z7lX6O1KXPAXE1NpZwcQ111wzBJkyXadyPW+8Lrm4pzvHdF3SdTh+bVLgWSnbPnodNM31Wunb6POCp0zH3ddRq2pPCtrr3u8/smm+WoPFu2X6+rlMs+1r0nHRNZyAWC66rIMAAggggAACLRUgINZSuRZup19csyV9sNeHUbVM0jhj8aRuR/qiEE0K4Gj8J32hVNIHcXUJU1cJdT9Qt0S1TlHeGitKrYVySep+omCbp+gXaLVe07g4aqHlSd001AoiGrDyZZqqfJUdDd5Fl+fyWl+coylaJwUZFQTxX5m1nj5oK7CVa5KZvnyo5ZPGejn//PNDKwyNyZLpuKjLR/y4qEzlJ0cldSH1VKiFAo4qL7qvXpbyVlBSXQa9laHK1fHSlx1PcUufnzSVrQJuCu6kS/H8oscmaZt01uqGFU0t3ddo+bnWLdt5rSBarnlpH9TqQS0m1TpCrQUVpE5KCrbq3I3+bej4yl0pn/NFwS0FOKJJLfzUpcyTzoVoUnc11U/lZfs70vL4uR6/BkXz9teZ9iGX65rno2m2Ovq68WPl8/Pdh3Kcg/G6Rs9fla/zI9qyVcdQ83NNmc4xHZtM17ekMjp16pSanenYplZKeBHNI7pY+WW6V+mHBl0/1C1dLa080Kzjmuk6let543XJxT1+3Hxb7YNaG8evwwpO6weIbPvo+Wia6Vqpllj6e1fQSkn3reh4kZmOe9ig8b/ofd7nRX/c8XktnWbbVy3X+e0/6qgcdQcmIYAAAggggAACpRRoV8rMybtlAmpV5E/b0pdUJQV19Dh6PZlyk002CV0i1b1FvwJrHXU30AdvJX34VsshfShWIEZfsJWnuvQp0KOAhlrBKOmD8nnnnRe2DzPy+E8D1mtcE7XOUj4aU0RdN9Xly1uv6QO6vmRruZJapmmMMY1dpKQ6KaAW/3IeFjb+F9/e56ebKn9169CXfyXVSS1sPCClecpT3aVUJ6+X5ntS1yF1dVTSlyG1llI9sx0XtURTUECt83RclLdagKULPmazyFZPOctf3W+UVKYGyFc3SX250fmi/dD4MKqLugfqn8rNJcXL13mnVnIaL87dNEaZxpLKNcWPZzrreH7Z9tVbUinw6fsafaJrPL9M73M5rzNtH1+mFjD6kqeurQpeRs/F6LoKfujv2ANZ6h6tgf81/o5StvMlmpc8dJx0TdAXaf3Nx1t3KJCgwcm1XONbqWuYWgjqX7a/o2zXIK9L/Hhn2odc8/S8s9XR10s3zbe8cp6DSXXWmGHqKugtdHVd1bXGA+I6x3Tt17XK/z7j+WQ6x7Jd3+J5xd9nOrZaN349iW8ff5/LvUrdRnXe6v7hrZWzXafyPW+yucfrHX2v67BaOem+6D/K6OEyujarZXYu++j5ZbpW6n5///33h88C6i6qbrTRYGqm4+75FzKN/50rL11HdI4q6XzMtq+67mo8Q33WUdI9Wi1qPaklebR1s89nigACCCCAAAIIFCJAC7FC9Eq4rbrGaCBbfbj3X0zVhc9bjCnQolY0CvboV30FvfSFTUktXLStWoXpA7kGHtZrtdrSPy3Th3z9IqsP5ermqHG/8k36oq96auwpdZNU8ElfSjSulCe1jtGYKR4oUrcxDV6s+upDtOqmMWSi3Qp9W03j20eXJb1W91MNLq3AkAYvVgDxl7/8ZXhAga+vYKMGy1cAS12U4t2QFMDSYNX6kqFxn/RF0Z98lu24KKAhD31Jk73GZfEnHXr5Ps1mka2e6h6kL0nqDqt66kuHWh95iz21bNM5oyeV6rgr8KFBsFdddVWvQsZpUvkKZspHQVSVqZZIPqh+xsy+XRg/npmso/ll21c5nHDCCeFhCjqv1U1J552CSvmmXM7rfPPU35cCh/JLl9QaQ38L+jvW37mCGzqXvBtdtvMlmq/+DrSdvngrX3UP1RfOaNK4Tv60PrXq1H7rPNf1JNvfkc7tTNcgLyd+vLPtQy55et7Z6ujrpZvmug++fTnPQS8zOlXXbQU41XJVgXpdR3Vt8+u+rlMKjum4a7wuBaujQRHlle0cy3Z9i9Yn/jrbsU26nsTziL5X99Js9yp139aDQNQ6zH+EkUOm61S+500292idk17rWqlxF3Ud1sNx1JpM43apW3gu++h5ZrpW6pxQayrdV3WvVTdSBaQ8ZTvuvl5Lp/G/c5Wt81KfUTT2nq5jGi800/FUcFM/uKgbsFpB6rOB7l+6tivpgQTqPvnQQw+1tJpshwACCCCAAAIILCZQt+OgV5ua7ny7aM7spqeILbZmlc/o2KmpW1G6ao4euVG6RVU9Xx8K1QIsXRdEfSnSl+doV7zoDilIpW3jX4wUPFELMgUP0rVYieaT7bW+vOtLWFI9FIhRipajLiP6chftzpeujKTt063r8/WlQPun7jHRcn25pnrwgAJ56ZKChfrnQcjoetmOi1pl6YtZuu5A0byyWWSrp46lzgMdSwUz4kmtfxQYzKdrVTSPpPK1fzrWCirkm5KOZybraP7Z9lX7qfzzGTMumn/8dabzOr5upvca50lP//TxwDKtm+1vM9v5Es1brrp+KDgcTeq6rfNTgWO1KNExVhAxnnL5O8p2DUo63tn2IVue0XrmUsfo+kmv8ymv3OdgvL7y1Hmpa2fStU0tRT04FN/W32c7x7Jd3zyfpGm2Y5t0PUnKx+dlq6uvlzTNdJ3K97zJ5p5UfnSersP6e0y6NuWzj5mulWpFpetyuvtaPuVE657L66S/c20XP97Z6qD11YI86X6lc0vBPRICCCCAAAIIIFAsAQJixZIkHwQQQCCNwK677mrnnntu2paQaTYr2exoQKxkhZAxAggggAACCCCAAAIIIFDFAvzUVsUHh6ohgEDtC4wfPz48/S5dt+BK7KEerBB/kmcl6kGZCCCAAAIIIIAAAggggEClBGghVil5ykUAAQQQQAABBBBAAAEEEEAAAQQQqIjA4gMOVaQaFIoAAggggAACCCCAAAIIIIAAAggggEB5BAiIlceZUhBAAAEEEEAAAQQQQAABBBBAAAEEqkSAgFiVHAiqgQACCCCAAAIIIIAAAggggAACCCBQHgECYuVxphQEEEAAAQQQQAABBBBAAAEEEEAAgSoRICBWJQeCaiCAAAIIIIAAAggggAACCCCAAAIIlEeAgFh5nCkFAQQQQAABBBBAAAEEEEAAAQQQQKBKBAiIVcmBoBoIIIAAAggggAACCCCAAAIIIIAAAuURICBWHmdKQQABBBBAAAEEEEAAAQQQQAABBBCoEgECYlVyIKgGAggggAACCCCAAAIIIIAAAggggEB5BAiIlceZUhBAAAEEEEAAAQQQQAABBBBAAAEEqkSAgFiVHAiqgQACCCCAAAIIIIAAAggggAACCCBQHgECYuVxphQEEEAAAQQQQAABBBBAAAEEEEAAgSoRaChlPVZdZSnbtt/KpukzL463p//2aSmLI28EEEAAAQQQQAABBBBAAAEEEEAAAQSyCpS0hdjQgeuEQNiZF70YKqLAGAkBBBBAAAEEEEAAAQQQQAABBBBAAIFKCpQsIOatwsZ9OiXsn1qHqbUYCQEEEEAAAQQQQAABBBBAAAEEEEAAgUoKlCwgpkBYn5WXTO3bT7dYxT4ePzX1nhcIIIAAAggggAACCCCAAAIIIIAAAghUQqCkY4gpAHb+yf3MW4ndfOfbldhHykQAAQQQQAABBBBAAAEEEEAAAQQQQCAlUNKAmLpJ6p+6T3pQLFUyLxBAAAEEEEAAAQQQQAABBBBAAAEEEKiAQEkDYgqE+bhheh1/yiSBsgoccYpEAAEEEEAAAQQQQAABBBBAAAEE2rhASQJiHghTl8lnXhzfrHWYlnlwTMEyWo618TOQ3UcAAQQQQAABBBBAAAEEEEAAAQTKLFCSgNjQgeuYxguLB7s0sL4G2ldAzKdaV4GzeOuxMjtQHAIIIIAAAggggAACCCCAAAIIIIBAGxEoekBMQa94qzC3VBAsaWB9BcVICCCAAAIIIIAAAggggAACCCCAAAIIlEOgXbELUdCL1l7FViU/BBBAAAEEEEAAAQQQQAABBBBAAIFiCRS9hZi6Q8ZbfKnFWKakbUgIIIAAAggggAACCCCAAAIIIIAAAgiUQ6DoAbGkLpEaS4ygVzkOJ2UggAACCCCAAAIIIIAAAggggAACCGQTKHpALD6QvldA89Vy7PyT+/ms1DRbC7LUirxAAAEEEEAAAQQQQAABBBBAAAEEEECgQIGiB8Qy1efMi17MtJhlCCCAAAIIIIAAAggggAACCCCAAAIIlFyg6IPql7zGFIAAAggggAACCCCAAAIIIIAAAggggEABAgTECsBjUwQQQAABBBBAAAEEEEAAAQQQQACB2hMgIFZ7x4waI4AAAggggAACCCCAAAIIIIAAAggUIEBArAA8NkUAAQQQQAABBBBAAAEEEEAAAQQQqD0BAmK1d8yoMQIIIIAAAggggAACCCCAAAIIIIBAAQIExArAY1MEEEAAAQQQQAABBBBAAAEEEEAAgdoTICBWe8eMGiOAAAIIIIAAAggggAACCCCAAAIIFCBAQKwAPDZFAAEEEEAAAQQQQAABBBBAAAEEEKg9AQJitXfMqDECCCCAAAIIIIAAAggggAACCCCAQAECBMQKwGNTBBBAAAEEEEAAAQQQQAABBBBAAIHaEyAgVnvHjBojgAACCCCAAAIIIIAAAggggAACCBQgQECsADw2RQABBBBAAAEEEEAAAQQQQAABBBCoPQECYjV0zN5//327++67bebMmRlrfd9999nf//73jOuUY+HUqVNt3rx55SiKMiICkyZNirzL7aXOmVdffTXjyu+9915O51/GTFiIAAIIIIAAAggggAACCCCAQBUIEBCrwEFYsGCBbbrppta3b1+78MILc67BCy+8YKeeeqop0JQpnXPOOaYAR1K68cYbQ7kqO+nfxIkTkzbLe97cuXNtiy22sGHDhuW9bS1uMH36dLvgggvs5ZdfTlv9O+64I5jff//9ievceuutYfmjjz6auDyXmddcc4395Cc/sddffz2X1VPrnH322Xbvvfem3ie98PPvm2++SVrMPAQQQAABBBBAAAEEEEAAAQRqRqChZmraiiqqwMIXX3xhSy21lD3wwAN20kknWX19fVn38JBDDrGll156sTK7deu22LyWzOjQoYPtueeettZaa7Vk85rbZsaMGXbzzTdbz549bbPNNkus/6677hqCZgqIySaedC50797dtt9++/iinN8r0Przn//cVl111Zy3YUUEEEAAAQQQQAABBBBAAAEE2poAAbEKHPE///nP1rVrVzv99NNDMOzZZ5+17bbbrqw1GTRoUMmDJmqpRvpOYMkll7T+/fvbI488YmqJt/zyy6cW/uc//7F//etfdtBBB5mCiS1N66+/vl155ZUt3ZztEEAAAQQQQAABBBBAAAEEEGgTAnSZLPNhnjx5sj311FO20047mVoMqUVWUle18ePH22GHHWYbbLCB/fSnP7URI0bYwoULF6ututntsMMOtt5665mCXBpnrBhp//33tyuuuMLUzc/zV/dHBXLmz59vBxxwgJ111lmLFXX00Ueb/ikNHjw41FuvFfDZfffd7fHHH7czzzzT9tprL80O6aGHHgrL1llnnVDWtddea+pW6ilTXXwddVc8/PDD7Yknngi2G264oR177LE2e/Zsu/rqq0OrKxmpbl9//bVvFqYaO2vfffe1dddd17bZZhs7//zzbdasWal1spWv4zd06NCwvo6H9vOoo45KbR99sc8++4Tj+OCDD0Znm3ej3HvvvcP8pOOvbZT3V199Fdbxet1yyy3Bc+zYsSHYpnWiXV9feumlsPxHP/pR2F5dMn/zm9/YkUce2awOenPPPffYzjvvHCyU/5tvvrnYOtEZ2exUD5W11VZbhWOr46TupSQEEEAAAQQQQAABBBBAAAEEKilAC7Ey6yv4o4HmBwwYYB07dgzBG3WV07hM3oXxyy+/DIGLKVOm2JZbbhm60Smooy6W0XTJJZeEYM+yyy5re+yxh6krpgI7c+bMia6W+Prtt9+2+ODrGlPM66DlH3zwQRivTK3X6urq7Omnn7bLLrvMLr744tC67M4777RjjjkmdBNUIdrmscces+OPPz6U+c4776SWKTClFlAKonXp0sU22mijsI6CX8pP5Wof/va3v4X37777rl1++eVhnWx10Uoff/xx2Fat7RR8UdBO1nq4wP/+97/gqHJVP/ncdNNNIW+ZqfvoCiusEAJ42ueRI0eayh81alRO5avl10orrRS26dGjh/Xp08e+973vhW3j/22++eahLB1zD0gp0Klgl7qXrr322pbp+CuYp31Tksu4ceNC0E/7rP3TcjlrDDel559/PgTr1OpMga4JEybYr371q3AuLbHEEmEd/0/HV2PPbb311rbaaqvZ6NGjTQE8tWhUMDGecrH7xS9+YZ988kkoU2PfqVvpRx99ZDfccEPZuwnH6897BBBAAAEEEEAAAQQQQACBtitAQKzMx16tiRR80VhPSgqMKeCgAIm3MlLLLLUkU2CmX79+Yb2TTz45tBTTm0WLFoUWQNdff30Yr0qtktq3bx/mq5uittM6mdLw4cMXW6wAlFqteVKQTkEltdxSUuBIQRMFcA488EBTQEwtmzywoydgNjQ02H777edZLDZVUE9dBlVfjaOmlm8ac0utnBS0Ud7ahz/96U82cODAlFOmurRr19TQUUGgP/zhDyGYqP3fdttt7dNPPw0PIlBrOyW1onvmmWfCkzoVQFKLJQWz/vrXv6YCNAraaP5zzz0XgkPaLlP56gapgNGTTz5pu+22W2ippm2Skuqq1nF//OMfQ+BKrbbGjBkTjqdauCnlcvw9b50nKneVVVbxWc2m2g91z1Wg0IOdaiGmQGY8IKYA6V133WUbb7xxyOPEE08M55xaeKnlWDzlYid/2eh80Th5am2oY1zuMfPidec9AggggAACCCCAAAIIIIBA2xagy2QZj7+6tKlVjwI1agWkgJAGP1cLr+hTId94443QysiDYapir169wvhTXl21AlJLIbUIU3BJSa24hgwZ4qtknCr4pUBc9J+eChlNa6yxRioYpvmqt4Im7733XmjNpPGqPFCiLoZ/+ctfQsBD+5MuKeDm9fWWTOqa5+NmKWCkrpZKat3lKVNdfB0FWXwsNll40FFBGE9uqq5806ZNC63gFBBTi7HrrrvO1GLNW87pWHnKpXxfN9tUATHVz7tJaioTdXVUyuX4exl6omS6YJj2T11VNci+B8O0nTyi45d5Xj/84Q9TwTDNk8s2jV1I33rrrWZdWLUsVzsF3tSSTO6nnXZa6O655pprKgsSAggggAACCCCAAAIIIIAAAhUToIVYGel9rDCNy6V/0aRxof7973+HLnMKLqnrXTxFA03qgqgUX0+Bj1xa36jVV7YnEar1UjR5Wd4lU61+TjjhBNM4UhrzSmNDaV6mtNxyy6UWz5w5M7yO7pdmqBztQ3Qcr2x10XYKGkafkuktoFZeeWUtDkndG5XUSsnzV1c+BfmiSS33evfunZqVS/mplbO8UABrk002sYcfftiOO+640I1TT5b0oFUux9+LiHr6PJ/6/vlx8/myVVl6MmY0xY+DlmlbBV69m6av73lns9NDAhRUU9BP47upBZreqxUeCQEEEEAAAQQQQAABBBBAAIFKCRAQK5O8AgoaJ0qtY7wFlBet4IK6pSlgpjGktI7GulJ3M2/9o+3VAsuTt7LRPI0z5kllRAek9/ktmaoVU6akManUbU6txFRXjTvlrbLSbRcN1mnMLCV1F1W3SU/aJ+2DL9f8bHXxbfOZ9uzZMwSG1Drt0ksvTW2q1k9qFaWglads5Xfq1Cms6oFK3y7dVGNzaaw1tZpSYFDvPeVy/H1ddVFNl3z/1O1VgUvfB43tpjHS/Nzy7V988cXQddNbjynwqXHE+jSOiabx7qLJ885kpzHw1D1T46Yp8Kd/tzZ27z3vvPOCrx5iQEIAAQQQQAABBBBAAAEEEECgEgLpv01XojatuEyNvaWueApMqItgPKn1jAIXCpDoSYh6ryc5aswrtea5/fbbTQEGT+rCp7GrFDxSSx91t1PXNL33wIevmzTVOGPeIim6/NBDDw2Ds0fnpXutIImeiqi6afyupKdOpttW87///e+HgfTVekj7pvG3NAi8Wk4pMKgncZY6qUufnir561//OpSvQJy6Tn744YchUBcPGqWrj8ZGU6s7+auroWzVxTRd2nHHHe3ss88OASO18ooGNXM5/unyjc/3/dtzzz3DufTZZ5+FhwVEA5O+jc4bjf+mc04t7XRcFRyUT1LyvNPZLbPMMnbjjTfabbfdFoJ/cvnHP/4Rzs9oS76kvJmHAAIIIIAAAggggAACCCCAQCkFCIiVUjeSt1p/aRD36KD1kcWhhdBJJ51kTz31VAgEKSij4JiewKhAhQImGh/ryiuvTAW8tOzMM88Mg9Q//vjjpu6AF154YdguW1BMLXWSkgIiqmeuSV0kNf5W586dTUGXfJNamKneeqKjBofXGGLaTwVhkoI2+eafbX116VMQTGOqqXWdxvLSuFzap1yDYV6Gnt6oJ39qMHoFwzIFxOS1yy67hC6EcovuqwJr8eOv8d3ix9/LzTTV/qkFogbxV720fxpnTk96VNAvmlQftXTTeSUTDcZ/7rnnhkBhdD1/nYudxmT73e9+Z3qIg1qcKdB50UUXmZ5oSkIAAQQQQAABBBBAAAEEEECgUgJ1Ow56tdnjCOfM/rxSdSmo3I6dvhubKimj0SM3Sppd9fMmTJhgan3k42ElVVhd7jQGmcbKyhYIS9q+GuapS6jGIVN3PQWLyp00pphaT6lVUz4BwaR66ngUmofnm8vx93UzTRXgkq+ecOoPMEi3vrp9fv7556GlWzRQl279XOyUp1qbfe9730uXDfMRQAABBBBAAAEEEEAAAQQQKJtAyQJiQweuk3UnPh4/1cZ9OiX8y7pylhVaa0Asy26zGAEEEEAAAQQQQAABBBBAAAEEEEAgT4GSdJn86RarmIJdT//t04zVWXWVpWzbfisXJSCWsSAWIoAAAggggAACCCCAAAIIIIAAAggg8K1Au1JI9Fl5SYJcpYAlTwQQQAABBBBAAAEEEEAAAQQQQACBggVK0kIsWiu1AtO/eMrWeiy+Pu8RQAABBBBAAAEEEEAAAQQQQAABBBAohkDJA2KqpMYJIyGAAAIIIIAAAggggAACCCCAAAIIIFANAiUPiBEMq4bDTB0QQAABBBBAAAEEEEAAAQQQQAABBFyg5AExdZdUUEwD7UcTXSajGrxGAAEEEEAAAQQQQAABBBBAAAEEECiXQEkG1c9WeVqNZRNiOQIIIIAAAggggAACCCCAAAIIIIBAqQRK3kLMg1+0CCvVISRfBBBAAAEEEEAAAQQQQAABBBBAAIF8BEoeEPPKxJ806YEyX84UAQQQQAABBBBAAAEEEEAAAQQQQACBcgiUvMukB8I09X/l2DHKQAABBBBAAAEEEEAAAQQQQAABBBBAIEmg5C3EvCUYXSaT+JmHAAIIIIAAAggggAACCCCAAAIIIFBugZK3EMu0Q2ox9vH4qZlWYRkCCCCAAAIIIIAAAggggAACCCCAAAJFFShJC7FnXhwfukcOHbhOxsqq9djNd76dcR0WIoAAAggggAACCCCAAAIIIIAAAgggUEyBkgTEFOjSP7pJFvNQkRcCCCCAAAIIIIAAAggggAACCCCAQDEEKtplshg7QB4IIIAAAggggAACCCCAAAIIIIAAAgjkI0BALB8t1kUAAQQQQAABBBBAAAEEEEAAAQQQqHkBAmI1fwjZAQQQQAABBBBAAAEEEEAAAQQQQACBfAQIiOWjxboIIIAAAggggAACCCCAAAIIIIAAAjUvQECs5g8hO4AAAggggAACCCCAAAIIIIAAAgggkI8AAbF8tFgXAQQQQAABBBBAAAEEEEAAAQQQQKDmBQiI1fwhZAcQQAABBBBAAAEEEEAAAQQQQAABBPIRICCWjxbrIoAAAggggAACCCCAAAIIIIAAAgjUvAABsZo/hOwAAggggAACCCCAAAIIIIAAAggggEA+AgTE8tFiXQQQQAABBBBAAAEEEEAAAQQQQACBmhcgIFbzh5AdQAABBBBAAAEEEEAAAQQQQAABBBDIR4CAWD5arIsAAggggAACCCCAAAIIIIAAAgggUPMCBMRq/hCyAwgggAACCCCAAAIIIIAAAggggAAC+QgQEMtHi3URQAABBBBAAAEEEEAAAQQQQAABBGpegIBYzR9CdgABBBBAAAEEEEAAAQQQQAABBBBAIB8BAmL5aLEuAggggAACCCCAAAIIIIAAAggggEDNCxAQq/lDyA4ggAACCCCAAAIIIIAAAggggAACCOQjQEAsHy3WRQABBBBAAAEEEEAAAQQQQAABBBCoeQECYjV/CNkBBBBAAAEEEEAAAQQQQAABBBBAAIF8BAiI5aNV4LpfffVVYg7Tpk2zmTNnJi5jJgIIIIAAAm1J4JtvvrE5c+Yk7vKMGTNs6tSpicuiM++9916bOHFidBavEUAAAQQQQAABBBBoJkBArBlH6d7Mnz/fNt54Y3v00UcXK+TCCy80fXgnIYAAAggg0NYFrrrqKrvkkksSGY4++mh77LHHEpdFZ95111323//+NzqL1wgggAACCCCAAAIINBMgINaMo/RvLrroIvv4449LXxAlIIAAAgggUIMC+++/v91///02d+7cZrWfMGGCvfnmm7bLLrs0m88bBBBAAAEEEEAAAQRaIkBArCVqBWxz9tln2zHHHGOzZ89Om8sjjzxiO+ywg/34xz+2oUOH2ttvv20HHnhgWP/111+30047za6++mrbbLPNrH///vb888/bCy+8EL4k9OvXz6644opmXTDfeecd22+//WzdddcN6z/wwANpy2YBAggggAAClRRYbbXVbPXVV7fHH3+8WTXuvvtu22233axLly727rvvpu5re+65p7388svhfhlvFabulwqwRdOUKVNs3333Tc3SOsOHD7cNN9zQdA+9+OKLbd68eanlvEAAAQQQQAABBBBonQIExMp8XLfeemvbYostTIGxpPTss8/aBRdcED7YP/3007bNNtvY8ccfbx999FFYXWONPfTQQ+G9vhwoUKYA2znnnGPHHXec3XrrrSE45l8kvvjiCzvooINswIAB9tJLL9npp58eAmYqh4QAAggggEA1ChxwwAGmbo+eFixYEIYW0Pwvv/zSBg0aZJtvvrk98cQTduSRR9rvf/97e/XVVxdrVabtPvzwQ88mTKPzFi1aFO63yy23nOnHqBtuuMHGjh1rl156abNteIMAAggggAACCCDQ+gQIiFXgmJ5wwgn2wQcfJI4bdv3119uhhx4afvnu0aOHDRkyxHbaaadmtVQ3knPPPddWWWWVEOzq2rWr7bjjjrbddtuFX9UHDx4cviRoozvvvDO0CtMv5N26dTMF5I444ggbOXJkszx5gwACCCCAQLUI6J6mwJQPMaAfiFZYYQX7wQ9+YKNGjbL1118/tOpafvnlwz3uxBNPbNYyOtf9eOWVV2z69Ol26qmnmvJaa6217Mwzz7Q77rjDFCwjIYAAAggggAACCLRegYbWu2vVu2cNDQ2hldY+++wTujFGazpu3Dj72c9+Fp0VAmJqDeZpvfXWMwXBPPXt2zcM2O/v1d3k008/DW+V3z//+U/bfffdUx/u9fSujh07+upMEUAAAQQQqCqBDh062F577RVaiZ1yyilhqtZhSkn3yU033dSWXnrpnPYh2h1SeU2ePNn22GOP1D3SM9H8XPP0bZgigAACCCCAAAII1I5A2QJiP91iFRv36ZTwr3Z4SlfTlVZaKXSb1BOz1l577VRBPXv2tDfeeMN69+6dmvfaa6+lXuuFxk+Jp/bt28dnhffKb+eddzb9ek5CAAEEEECgVgQGDhwYWksrEKYfdvT0SSV1b9R9UmNjelJgS2OBxdMSSyxh+hFIrcDUSlpJrcI8KS/db3nSs4swRQABBBBAAAEE2o5AWbtMbttv5bYjm8OeqkuIxkDRuCWeNDiwxgHTh3ul999/P3QP8eX5TvU0Ln3Q9zFU1AXkvPPOM3XNJCGAAAIIIFCtAquuumoYBkDjZKqVc6dOnUJV9frJJ5+0MWPGhPdfffWVjRgxwurr6xfbFbWG1gNo7rnnntACTE+qVJdLT5tssolpIH6Nu+ldJB999FEbNmyYr8IUAQQQQAABBBBAoJUKlC0gpmDYqqss1UoZW75bZ5xxRhgTxXPQQMH6gK6nTG6//fZhjDANGNzSpCdLqruJnqilscg0zph+KdfTK0kIIIAAAghUs4BaielJy5p60jhfZ511lh111FHhwTN62rLGFNO4mklJ42aOHj06/AClYJq6YnrS8APXXnutXXbZZeGBN7r3avwwPdyGhAACCCCAAAIIINC6Bep2HPRqs1Fj58z+vOh7rO6SSn1WXtKeeXF8SbpNduy0XMZ6jx65Ucbl1bZQA+dPmjQpDPJbjLrpl++JEyeaulAm/YpejDLIAwEEEEAAgXIJLFy4MNzX1O0xl/uaWpLpYTXt2iX/Fvj1119b586dE4clKNc+UQ4CCCCAAAIIIIBA+QSKPoaYWoHFW4IpEPbx+KkhGJbUUoyxxRY/4BpQWE+8Klaqq6uzXr16FSs78kEAAQQQQKCiAgps6cmTuaZll10246rLLLNMxuUsRAABBBBAAAEEEGhdAsk/kxawjwpuKUXHC1Mw7Om/fRpahum1koJkvo5vExbwHwIIIIAAAggggAACCCCAAAIIIIAAAiUUKHoLMdVVwS8lBbzURdLfa55eqwWZlt1859sl6T6pckgIIIAAAggggAACCCCAAAIIIIAAAggkCRS9hZgXosDXmRe9GFqCRbtQ6vXQgesQDHMopggggAACCCCAAAIIIIAAAggggAACZRUoWUDM90IBMHWJ1NRfaxndJF2IKQIIIIAAAggggAACCCCAAAIIIIBAOQVK0mXSd0BPl1SXSU19vDB/ymQ0OObrM0UAAQQQQAABBBBAAAEEEEAAAQQQQKDUAiUNiKnyCoSpNZi6TyopOKbk88Mb/kMAAQQQQAABBBBAAAEEEEAAAQQQQKBMAiXtMqmgl1qEafB8TxpbTE+aVAsxEgIIIIAAAggggAACCCCAAAIIIIAAAuUWKFkLMQW80j1FUkGxtjqG2MyZs236jFk2d+58W7RoUbmPN+UhgAACCCBQNIG6ujrr0KHBunXtbF26dCpavsrou/vlvMb7ZVGzJjMEEEAAAQTKKtB4u2y8X7Yvyf1SO1It3yv1uYCEQC0JlCwgli3glW15LSHmWtfJk6fZ7DnzbIlunW3p7g3Wrt13DfS4eOSqyHoIIIAAApUUiH7oXrhwYfiBZ+q0mY3Teda9+xJFqVrz+2U37pdFUSUTBBBAAIFyCpT6fun5a9r0w1HTr0fl/hHpuxhYndXVLWr81xQU82k5zSkLgXwFShYQy7cirX39GTNmh2DYMj2WCBcJv0D4NL7/6ebH1+M9AggggAACpRLwD9vR/P3+pGX6Yadjx/ahldjXk6aZ7nVduxbWUmxGY0tq/XjE/TKqzmsEEEAAgWoWyPt+2Xiv61pAy2oPgi1atDC0qJ4xc47Nn68eSJVRUgysoaGhcZ86hhbjdXVq+PFdcKwytaJUBLILEBDLblSUNWbMnBVahumLhH+Z8KkKiL4uSoFkggACCCCAQIECSfcm/9CvZXrt66j1s+51BQfEGocVUF7K1/P2qXYn+rrA3WNzBBBAAAEEiiKQdG/KeL9svNe1NCDmwTC10p4ydXpoqd2lS2dr376hYvdI1WnevPlNQwM1Tpda0lt3f/c5oSjQZIJAkQW+67NX5IzJ7jsBXSA0ZpjGWUlKSRfQpPWYhwACCCCAQKUF0t2zdI8rdHzMpvvlPO6XlT7IlI8AAgggULBA5vulxsdseXOuppZhTeNSL7XUEmF8snTlFbwjOWSgsjVGmuqizwIzG38gUx1JCFS7QHKEptprXYP10wUvepHy1z6N71K6+fH1eI8AAggggEApBZI+sOse5fc1X+7zCq2Lvh9E74H+2qfx/NPNj6/HewQQQAABBEop4PfDaBm6RyXfL6Nr5fda+al12MxZcxq7Jza1qM4vh9Ktrf1VnWbOmmWdO3cM93Pu06XzJufCBWghVrhhXjlkuyBoebZ18iqQlRFAAAEEEChAIJf7UinuW9nyzKVeBew2myKAAAIIIJCXQC73pWz3tmwFKhimH440nTdvQegmmW2bci9X103VLVrXcteB8hDIVYCAWK5SZViv0AtkGapIEQgggAACbVSgmu5R1VSXNno6sNsIIIAAAmkESn+PUlCsqbtl6ctKs5MZZnudmurY8m6hGYpgEQJFEyAgVjRKMkIAAQQQQAABBBBAAAEEEECgtAIeECttKYXlXgt1LGwP2bo1CBAQq+BR9Oi5qhB9XcEqUTQCCCCAAAJpBSp1r4qWG32dtqIsQAABBBBAoIICpbxXfds4rIJ7l3vRtVTX3PeKNVuTAAGx1nQ02RcEEEAAAQTKJFDKD/tl2gWKQQABBBBAoOQC3C9LTkwBCLRYgIBYi+nYEAEEEEAAAQQQQAABBBBAAAEEEECgFgUIiNXiUaPOCCCAAAIIIIAAAggggAACCCCAAAItFiAg1mI6NkQAAQQQQAABBBBAAAEEEEAAAQQQqEUBAmK1eNSoMwIIIIAAAggggAACCCCAAAIIIIBAiwUIiLWYrvQbLly40K6++uqSFDR79mybOnVqSfImUwQQQAABBBBAAAEEEEAAAQQQQKCaBQiIVfHRUUDs8ssvL2oNZ86caddcc43169fPLrjggqLmTWYIIIAAAggggAACCCCAAAIIIIBALQgkBMTqaqHesTrWYp1ju1Cmt+ecc04oab/99itTiRSDAAIIIIAAAggggAACCCCAAAIIVJfAYgGxdu3aV1cNc6hNLdY5h91abJUxY8bYwQcfbDNmzAjLHn74Ydthhx1s3XXXtb333tveeustW7BggQ0cONDGjRvXbPtbbrnFbr75Zrv44ovtqKOOsl69ejVbzhsEEEAAAQQQQAABBBBAAAEEEECgrQgsFhCrr+9cc/tei3XOF3ns2LF24okn2mmnnWZdu3a1Z555xkaMGGGnnHKKvfTSS7b//vvbIYccYpMmTbKNN97Ybr/99lQR6nqpYNg222yTmscLBBBAAAEEEEAAAQQQQAABBBBAoK0KLBYQa1ffyeobutSMh+qqOrfm9Nlnn9kRRxxhl156qa2xxhphV6+//no79thjbdttt7Vu3bqFFmJbbrmlPfjggzZ48GBT67Hp06eHdZ977jnr06eP9e3btzUzsW8IIIAAAggggAACCCCAAAIIIIBATgINSWs1NCxh7eraN3a/m2ULF85rXGVR0moVnFdn6iaplmGtPRim1l1q+dXQ0GDrrLNOylxdIq+77jq78cYbbdGipuMzZcoUW2aZZWzZZZe17bff3u69997QxXLUqFEhSJbamBcIIIAAAggggAACCCCAAAJtUuBXvzo2p/2+4ooROa3HSgjUqkBiQEw7o0BTaw821cJB05hgavE1fvx4O/nkk+2Pf/xjqHbPnj1DF0q1CktKhx56aGhV1r9/f3vvvfdsu+22S1qNeQgggAACCCCAAAIIIIAAAggggECbE0gbEGtzElW6w+3btw8BMQXGNKC+ukoefvjhtvvuu9u1115ra6+9tvXo0cNmzZplQ4YMsVNPPdU22GADW3311a137942fPhw0xMl6+vrq3QPqRYCCCCAAAIIIIAAAggggEC5BGj5VS5pyql2AQJi1X6Evq2fAlpqHTZgwIDQdVLBsc8//9zUQmy11VYLT5484IADQjDMd2no0KE2bNiwEDjzeUwRQAABBBBAAAEEEEAAAQQQQACBti5AQKyCZ4DG/qqrqws1iL72KmncMHV39NS9e/fwdEl/rydOnnTSSfbll19ar169fHZq+sUXX9hOO+0UxhVLzfz2hbphkhBAAAEEEMhHwMes1DbR1/nk0ZJ1o/fI6OuW5MU2CCCAAAIIlFogeo+Mvi51ueSPAAL5CSz2lMn8NmftSgsoaJYUDFO9br311tCNstJ1pHwEEEAAAQQQQAABBBBAAAEEEECgmgQIiFXR0SjmrwcahH/NNdds1oWyinaVqiCAAAIIINBigWLeL1tcCTZEAAEEEEAAAQQQqGkBukyW+fDpQ7x3k0wq2j/kZ1onabv4vJVXXtkuueSS+GzeI4AAAgggkJeA35cybZTLOpm2T1pWrvtlUtnMQwABBBBAIF+BXO6FuayTb7msjwACLRcgINZyu4K29A/6Po1nxsUyLsJ7BBBAAIFqEfB7lE9LWS+/T/o0XlY56hAvk/cIIIAAAgjkIuD3KJ/msg3rIIBA+QToMlk+67QDEHOBLONBoCgEEEAAgYIE0t2z0s1vSWHp8ko3vyVlsA0CCCCAAAKlFEh3z0o3v5R1IW8EEEgWoIVYsktJ5+oiqC6RPlVh8QtjoV0mS7oDZI4AAggg0GYE4vcn33Gf71OfX8yp8uZ+WUxR8kIAAQQQKJVAuvuhz/dpqconXwQQyF+AgFj+ZgVtEf9w7xfGeADM5xdUGBsjgAACCCBQZIHo/clf+7SYRSnPaDDMy+B+WUxl8kIAAQQQKJWA37eUv7/2aanKJF8EEMhPgIBYfl4Fra0LYPzDvX+w5+JYEC0bI4AAAgiUWcDvW/FpMarB/bIYiuSBAAIIIFANAvH7pL+vhrpRBwTaugABsTKfAUkf8qNV8ABZdB6vEUAAAQQQqLRA0gd4n+fTYtaR+2UxNckLAQQQQKBcAkn3RJ/n03LVhXIQQCCzQEUDYoP3WtF6r9TZnn9lkj0/ZlLmmtb40qSWYdELogfCovNqfJepPgIIIIBAKxSI36f8vaZ+LytktxuH2EyNsel5ehnK18uIziukPLZFAAEEEECgFALx+5S/11T3OhICCFReoGIBsa027ZEKhm21SQ/7ZMKs8K/yJKWpQfv29TZv3gLT1INjKokP9qXxJlcEEEAAgdIK+Ad7laLXfo8rtNT27RtSeXG/LFST7RFAAAEEKi2QfL+s2NfwSnNQPgJVJVCxv8TeK3YOATC1DFNArLWnLl062fQZs637Ul3CrhIIa+1HnP1DAAEE2oaAPujrn+5xXbt2KninuV8WTEgGCCCAAAJVKFCs+2W0dZny9O+V1bLLqpOnaF19HlMEqkmgXTVVprXWRRepro0BMbUOmzxlZvjle+HCheELhF8YW+u+s18IIIAAAq1LwO9bmupeppZhurfpHqd7XSEfzJvfL2dwv2xdpw57gwACCLQpgeT75Yyi3S8bGtQDaX7VmapOqlshnweqbqeoUKsVKHoLMR8XTGIj7/usVXeDzOes0AWh+1LdbMaMWeFX9Pnz5zcGxPLJgXURQAABBBCoLgH98tvQ0GBdOndobB3WuSgffpvfL2fZ/PkLuF9W12GnNggggAACeQo03S/rG++XHYtwv6wL99uOHRps5sxZjQG2hqLcf/PcpcTVFQRUnVS3poAYg6UlQjGzagSKGhDTAPn6p0CYukHq38gJn1XNzlayIrogtGvXzrp162JdunRu/HC/sJLVoWwEEEAAAQSKIlBX167x/tb04bzpw29h2XK/LMyPrRFAAAEEqlOgGPdL3SPr6pq6SXZu/DFKPxpNmTItfL+sZGBMgTC1DFMwrL7xM4Hq1lTX78bMrs6jQq3aukBRA2KOqQHybRN/x9QFmi4KTRcxM3qrugtTBBBAAIHaFtD9rZiJ+2UxNckLAQQQQKBaBIpxv1QeamhRX1/f2Niik82aNaexF9JMW7Cgsg0u6uvbNbYMq28MhnUMdVMdi7G/1XLsqEfrFChJQKx1UhVvr7gwFM+SnBBAAAEEWq8A98vWe2zZMwQQQACBlgs0tTbTsAXW2Dqszjp21PjUTWNUK9dyDc3jv4fpfq06KSimQF27dhpDjAYgLT/CbFkugbIExLbatKn7pHbq+VcmmZ4sSUIAAQQQQAABBBBAAAEEEEAAgdwFmn4sWhRaiSkgpff19XrQjQaortQg1Wq11jR8QlPLMLUOo7tk7keVNSslUJ6AWONYYgqEKWlcMQJilTrclIsAAggggAACCCCAAAIIIFDLAh4UUyssvVaLMAXFlMrVOsz9FPhqSgqIfRcEa6qjL2OKQHUKlCUgpl0P44rpBWOLSYGEAAIIIIAAAggggAACCCCAQIsEPODUFBBTMCwVmWpRfsXYyOtUjLzIA4FyCJQtIFaOnaEMBBBAAAEEEEAAAQQQQAABBNqSAIGotnS02ddiCjDSXTE1yQsBBBBAAAEEEEAAAQQQQAABBBBAoOoFCIhV/SGigggggAACCCCAAAIIIIAAAggggAACxRQoSZdJPVVS6ZPPZqXq2nulzqnX0Rfp5kfX4TUCCCCAAAIIIIAAAggggAACCCCAAALFEihqCzENnK+nSepJkkr+NEmfF54w+e3TJjVPwbDBe60YBtxPDbpfrD0jHwQQQAABBBBAAAEEEEAAAQQQQAABBBIE6nYc9GrT81kTFramWaNHbtSadod9QQABBBBAAAEEEEAAAQQQQAABBBBooUBRW4i1sA5shgACCCCAAAIIIIAAAggggAACCCCAQNkECIiVjZqCEEAAAQQQQAABBBBAAAEEEEAAAQSqQYCAWDUcBeqAAAIIIIAAAggggAACCCCAAAIIIFA2AQJiZaOmIAQQQAABBBBAAAEEEEAAAQQQQACBahAgIFYNR4E6IIAAAggggAACCCCAAAIIIIAAAgiUTYCAWNmoKQgBBBBAAAEEEEAAAQQQQAABBBBAoBoECIhVw1GgDggggAACCCCAAAIIIIAAAggggAACZRMgIFY2agpCAAEEEEAAAQQQQAABBBBAAAEEEKgGAQJi1XAUqAMCCCCAAAIIIIAAAggggAACCCCAQNkECIiVjZqCEEAAAQQQQAABBBBAAAEEEEAAAQSqQYCAWDUcBeqAAAIIIIAAAggggAACCCCAAAIIIFA2AQJiZaM2++qrrxJLmzZtms2cOTNxGTMRQAABBBBoSwLffPONzZkzJ3GXZ8yYYVOnTk1cFp1577332sSJE6OzeI0AAggggAACCCCAQDMBAmLNOEr3Zv78+bbxxhvbo48+ulghF154oenDOwkBBBBAAIG2LnDVVVfZJZdckshw9NFH22OPPZa4LDrzrrvusv/+97/RWbxGAAEEEEAAAQQQQKCZAAGxZhylf3PRRRfZxx9/XPqCKAEBBBBAAIEaFNh///3t/vvvt7lz5zar/YQJE+zNN9+0XXbZpdl83iCAAAIIIIAAAggg0BIBAmItUStgm7PPPtuOOeYYmz17dtpcHnnkEdthhx3sxz/+sQ0dOtTefvttO/DAA8P6r7/+up122ml29dVX22abbWb9+/e3559/3l544YXwJaFfv352xRVXNOuC+c4779h+++1n6667blj/gQceSFs2CxBAAAEEEKikwGqrrWarr766Pf74482qcffdd9tuu+1mXbp0sXfffTd1X9tzzz3t5ZdfDvfLeKswdb9UgC2apkyZYvvuu29qltYZPny4bbjhhqZ76MUXX2zz5s1LLecFAggggAACCCCAQOsUICBW5uO69dZb2xZbbGEKjCWlZ5991i644ILwwf7pp5+2bbbZxo4//nj76KOPwuoaa+yhhx4K7/XlQIEyBdjOOeccO+644+zWW28NwTH/IvHFF1/YQQcdZAMGDLCXXnrJTj/99BAwUzkkBBBAAAEEqlHggAMOMHV79LRgwYIwtIDmf/nllzZo0CDbfPPN7YknnrAjjzzSfv/739urr766WKsybffhhx96NmEanbdo0aJwv11uueVMP0bdcMMNNnbsWLv00kubbcMbBBBAAAEEEEAAgdYnQECsAsf0hBNOsA8++CBx3LDrr7/eDj300PDLd48ePWzIkCG20047NaulupGce+65tsoqq4RgV9euXW3HHXe07bbbLvyqPnjw4PAlQRvdeeedoVWYfiHv1q2bKSB3xBFH2MiRI5vlyRsEEEAAAQSqRUD3NAWmfIgB/UC0wgor2A9+8AMbNWqUrb/++qFV1/LLLx/ucSeeeGKzltG57scrr7xi06dPt1NPPdWU11prrWVnnnmm3XHHHaZgGQkBBBBAAAEEEECg9Qo0tN5dq949a2hoCK209tlnn9CNMVrTcePG2c9+9rPorBAQU2swT+utt54pCOapb9++YcB+f6/uJp9++ml4q/z++c9/2u677576cK+nd3Xs2NFXZ4oAAggggEBVCXTo0MH22muv0ErslFNOCVO1DlNKuk9uuummtvTSS+e0D9HukMpr8uTJtscee6TukZ6J5ueap2/DFAEEEEAAAQQQQKB2BAiIVehYrbTSSqHbpJ6Ytfbaa6dq0bNnT3vjjTesd+/eqXmvvfZa6rVeaPyUeGrfvn18Vniv/HbeeWfTr+ckBBBAAAEEakVg4MCBobW0AmH6YUdPn1RS90bdJzU2picFtjQWWDwtscQSph+B1ApMraSV1CrMk/LS/ZYnPbsIUwQQQAABBBBAoO0I0GWygsdaXUI0BorGLfGkwYE1Dpg+3Cu9//77oXuIL893qqdx6YO+j6GiLiDnnXeeqWsmCQEEEEAAgWoVWHXVVcMwABonU62cO3XqFKqq108++aSNGTMmvP/qq69sxIgRVl9fv9iuqDW0HkBzzz33hBZgelKlulx62mSTTUwD8WvcTe8i+eijj9qwYcN8FaYIIIAAAggggAACrVSAgFiFD+wZZ5wRxkTxamigYH1A11Mmt99++zBGmAYMbmnSkyXV3URP1NJYZBpnTL+U6+mVJAQQQAABBKpZQK3E9KRlTT1pnK+zzjrLjjrqqPDgGT1tWWOKaVzNpKRxM0ePHh1+gFIwTV0xPWn4gWuvvdYuu+yy8MAb3Xs1fpgebkNCAAEEEEAAAQQQaN0CdTsOerVNjBo7euRGNXUkNXD+pEmTwiC/xai4fvmeOHGiqQtl0q/oxSiDPBBAAAEEECiXwMKFC8N9Td0ec7mvqSWZHlbTrl3yb4Fff/21de7cOXFYgnLtE+UggAACCCCAAAIIlE+AMcTKZ51XSRpQWE+8Klaqq6uzXr16FSs78kEAAQQQQKCiAgps6cmTuaZll10246rLLLNMxuUsRAABBBBAAAEEEGhdAsk/k7aufWRvEEAAAQQQQAABBBBAAAEEEEAAAQQQSAkQEEtR8AIBBBBAAAEEEEAAAQQQQAABBBBAoC0IEBBrC0eZfUQAAQQQQAABBBBAAAEEEEAAAQQQSAkQEEtR8AIBBBBAAAEEEEAAAQQQQAABBBBAoC0IEBBrC0eZfUQAAQQQQAABBBBAAAEEEEAAAQQQSAkQEEtR8AIBBBBAAAEEEEAAAQQQQAABBBBAoC0IEBBrC0eZfUQAAQQQQAABBBBAAAEEEEAAAQQQSAk0pF7xoiwCM2fOtukzZtncufNt0aJFZSmTQhBAAAHZ2aecAABAAElEQVQEECiFQF1dnXXo0GDduna2Ll06FbUI7pdF5SQzBBBAAIEKCpTyflnB3aJoBGpegIBYGQ/h5MnTbPacebZEt862dPcGa9fuuwZ6ukiSEEAAAQQQqHaB6I85CxcuDD/wTJ02s3E6z7p3X6Io1ed+WRRGMkEAAQQQqKBAOe6XvnvRsnxeJaZ8p62EOmUWIkBArBC9PLadMWN2CIYt02MJ04XCLxY+jWeVbn58Pd4jgAACCCBQKoGkD9h+f9Iy/bDTsWP70Ers60nTTPe6rl0LaynG/bJUR5N8EUAAAQRKJVCJ+6WXqWlTx6Om3kfl7oT0XbsOfcddlPV7bqmOAfki0BKBkgfEttq0R6jXVpv0sOdfmWTPj5mUqqeWfTJhVviXmtlKX8yYOSu0DNMXCf8y4VPtcvR1KyVgtxBAAAEEakwg6d7kH8C1TK99HbV+1r2u4IAY98saO0uoLgIIIICA3wujEqW8X3oQbNGihaYhBmbMnGPz52tInmgNyvdaQbGGhgbr2qVjGEKhrk49ob77jFC+mlASAvkJlCwgpmCXgmAh4PXZrMWCYYP3WtF6r9TZnrdJrT4gpguWxgxTN8mklHQBTVqPeQgggAACCFRawANh8XpoLLFvJjeNj9nS+xr3y7gq7xFAAAEEalWgVPdLD4Zp2IIpU6eH75ldunS29u0bUj9SldtMdZo3b37TWNmN06WW7Pbt8EAExcp9LCgvP4HkCE1+eSy2tgfD4i3CfEUFw5QULOu9YmdrCy3FdJGIfkHw1z51G5+mm+/LmSKAAAIIIFAOAd2/4kn3KL+v+XKfF1833/eer2/n90Of+nyfppvvy5kigAACCCBQDgG/H0bL8nujT7Us+jq6bj6vm1qGNT2obamlmobkyWf7Yq+rferQoX0Iyk2ZMq2x1ZpajHdu3Nfvxswudpnkh0AxBIoeEPNg2AWX/ydVP83zFIJgjS3DtFzzQ0BMLclWnGUjJ3zmq7XaqS4WmVK25Zm2ZRkCCCCAAALFFvD7UtIHfS9L62Ra7uvlM/Vy022TbXm67ZiPAAIIIIBAKQT8vpTpfliM+6XyV+uwmbPmNHZPVNAp8/fLUuxrujxVF9Vp5qxZ1rlzx1C3aqpfunozv+0KFDVkqy6Q6iY58r6mwJbenzF8tTBPxAqGRZOPJ6b5vk10eVt7zcWirR1x9hcBBBCoHYFqukdVU11q5whSUwQQQACBcgiU8h6lYJgabms6b96C0CKrHPuUTxnquqm6Reuaz/asi0A5BYraQkwBMAW3PPCVbiB97aACZUoEwwID/yGAAAIIIIAAAggggAACCCCQRUBBsabhDEoZfMtSibSLvU5NdVQ9q6cFW9pKs6DNChQ3INY4HtgnjQPoKyk4puStwPTau1NqbDEPmvlUy9ta8ouF9jv6uq05sL8IIIAAArUhoHuVfwgvZ42j98jo63LWgbIQQAABBBDIVaDU98tK3Itz3Xdfrxbq6HVl2nYFitplUowe4FLrsGjy7pTpBtr3AFp0G14jgAACCCCAQHUKEJiqzuNCrRBAAAEEqkug2PfLbxuHVddOpqlNLdU1zS4wu5ULFDUgpqCWB7bUUsxbi7lhNBimgJkHzTxY5usxRQABBBBAAAEEEEAAAQQQQAABBBBAoFQCRQ2IKeAVTR7w0jy1HIt2n9Q8X9+DaJpHQgABBBBAAAEEEEAAAQQQQAABBBBAoJQCRQ2IqaK9G8cRU/Lgl8YNiyef590rtU28NVl8G94jgAACCCCAAAIIIIAAAggggAACCCBQDIGiDqqvIJieHqmAl16PvO+z0C1y8F4rhroq6OWtxrRMybtZemuxMJP/EEAAAQQQQAABBBBAAAEEEEAAAQQQKJFA0VuIKbDlQS+1AFPgKxrs0usLLv9PavB9Bcs0z1uLlWg/azLbhQsX2tVXX12yur/33ns2d+7ckuVPxggggAACCCCAAAIIIIAAAggggEA1ChS1hZh20LtKqqWYgmEKdIXA2ISmFmGOoFZkCpwpGObb+DKmTQIKiF1++eV29NFHF5Xkvvvus6uuusqWWWYZ+9///mdbbrmlnXvuudahQ4eilkNmCCCAAAIIIIAAAggggAACCCCAQDUKFD0gpp30AJdaf4WAmJ442RgY88HzNWaYXhMMK/8p8dFHH9kVV1xhd999ty2//PI2b948Gzx4sN1+++02bNiw8leIEhFAAAEEEEAAAQQQQAABBBBAAIEyCxS9y6TX38cQ07hhCoCpNViqK2XjPHWb9MCZb8M0s8CYMWPs4IMPthkzZoQVH374Ydthhx1s3XXXtb333tveeustW7BggQ0cONDGjRvXLLNbbrnFbr75Zuvbt6898cQTIRimFdq3b28/+clPbPr06c3W5w0CCCCAAAIIIIAAAggggAACCCDQWgVK0kLMsby7pL9n2nKBsWPH2oknnmg33XSTde3a1Z555hkbMWKEnXHGGbbRRhvZY489ZoccckiYbrzxxqHF19lnnx0KVNdLBcNuu+228L5jx46pinzzzTf2l7/8paRjlaUK4wUCCCCAAAIIIIAAAggggAACCCBQBQIlayFWBfvWaqrw2Wef2RFHHGGXXnqprbHGGmG/rr/+ejv22GNt2223tW7duoUWYhoL7MEHHwxdINV6zFt9Pffcc9anT5/QOiyKMmvWLDvssMNsv/32sx/96EfRRbxGAAEEEEAAAQQQQAABBBBAAAEEWq1ASVuItVq1Mu6YWnep5VdDQ4Ots846qZLVJfK6666zG2+80RYtWhTmT5kyJQyUv+yyy9r2229v9957b+hiOWrUqBAkS23c+GL27NlhzDAF2I455pjoIl4jgAACCCCAAAIIIIAAAggggAACrVqAgFiVH16NCaZB78ePH28nn3yy/fGPfww17tmzZ+hCqVZhSenQQw8Nrcr69+9v7733nm233Xap1ebOnRuWrbTSSvab3/wmNZ8XCCCAAAIIIIAAAggggAACrVvgV786NqcdvOKKETmtx0oI1KoAXSar/Mhp0HsFxBQMmzx5sqmrpNLuu+9u1157rU2aNCm8V/fHffbZx15//fXwfvXVV7fevXvb8OHDQ5fI+vr6MF9PlTzyyCNNAbULL7zQ6urqwnz+QwABBBBAAAEEEEAAAQQQQAABBNqKAC3EauRIK6Cl1mEDBgwIXSf1tMnPP//c1EJstdVWC0+ePOCAA2yDDTZI7dHQoUNDt0gFzjyp++Szzz5rnTt3ttGjR/vs8KRKLSMhgAACCCCAAAIIIIAAAgi0XgFafrXeY8ue5SdAQCw/r6KurbG/vIVW9LUXonHD1N3RU/fu3cPTJf39aaedZieddJJ9+eWX1qtXL5+dmn7xxRe20047hXHFfOZBBx1k+kdCAAEEEEAgXwEfs1LbRV/nm0++60fvkdHX+ebD+ggggAACCJRDIHqPjL4uR9mUgQACuQvQZTJ3q6pcU0GzpGCYKnvrrbfakCFDqrLeVAoBBBBAAAEEEEAAAQQQQAABBBColAABsUrJJ5RbzF8PNAj/mmuu2awLZUKRzEIAAQQQQKDmBIp5v6y5nafCCCCAAAIIIIAAAkURoMtkURhzz0Qf4r2bZNJW/iE/0zpJ28XnrbzyynbJJZfEZ/MeAQQQQACBvAT8vpRpo1zWybR90rJy3S+TymYeAggggAAC+Qrkci/MZZ18y2V9BBBouQABsZbbFbSlf9D3aTwzLpZxEd4jgAACCFSLgN+jfFrKevl90qfxsspRh3iZvEcAAQQQQCAXAb9H+TSXbVgHAQTKJ0CXyfJZpx2AmAtkGQ8CRSGAAAIIFCSQ7p6Vbn5LCkuXV7r5LSmDbRBAAAEEECilQLp7Vrr5pawLeSOAQLIALcSSXUo6VxdBdYn0qQqLXxgL7TJZ0h0gcwQQQACBNiMQvz/5jvt8n/r8Yk6VN/fLYoqSFwIIIIBAqQTS3Q99vk9LVT75IoBA/gIExPI3K2iL+Id7vzDGA2A+v6DC2BgBBBBAAIEiC0TvT/7ap8UsSnlGg2FeBvfLYiqTFwIIIIBAqQT8vqX8/bVPS1Um+SKAQH4CBMTy8ypobV0A4x/u/YM9F8eCaNkYAQQQQKDMAn7fik+LUQ3ul8VQJA8EEEAAgWoQiN8n/X011I06INDWBQiIlfkMSPqQH62CB8ii83iNAAIIIIBApQWSPsD7PJ8Ws47cL4upSV4IIIAAAuUSSLon+jyflqsulIMAApkFCIhl9ina0qSWYdELogfCovOKVjgZIYAAAgggUCSB+H3K32vq97JCiuJ+WYge2yKAAAIIVIuA3x+9Pv6+WPdLz5cpAgi0XICAWMvt8tqyfft6mzdvgWnqH/aVgX958AtkXpmyMgIIIIAAAhUSiN639NrvcYVWh/tloYJsjwACCCBQTQKlul9W0z5SFwRqVYCAWJmOXJcunWz6jNnWfakuoUQCYWWCpxgEEEAAgZIK6IO+/uke17Vrp4LL4n5ZMCEZIIAAAghUoUCx75dVuItUCYGaE2hXczWuwQor+NW1MSCmX70nT5kZfkVfuHBh+ALhF8Ya3C2qjAACCCDQBgX8vqWp7mVqGaZ7m+5xutf5Dz4toeF+2RI1tkEAAQQQqEaBUt0vG79appLKqLYUrVO0rtVWT+qDgARoIVam80Af8rsv1c1mzJgVfkWfP39+Y0CsTIVTDAIIIIAAAiUQ0AfdhoYG69K5Q2PrsM4FBcO8etwvXYIpAggggEBrESj2/VL3yoYGDckz3zp0aF9VTKqT6qY6khCodgECYmU6QrogtGvXzrp162JdunRuDIYtLFPJFIMAAggggEDpBOrq2jXe3+rCB99ifPjlflm6Y0XOCCCAAAKVEyje/bLpntuxQ4PNnDmrsYV2Q9UEn9Q6THVS3Zo+ExAUq9wZR8m5CBAQy0WpSOvootD0T03D6K1aJFayQQABBBCosEDTh97iVYL7ZfEsyQkBBBBAoHoECr1f+ndJTTs3ts6eP3+BTZkyLTS4qGRgTIEwtQxTMKy+8Ucy1a2prt89RK56jgI1QeA7AQJi31mU7VWhF8KyVZSCEEAAAQQQqKAA98sK4lM0AggggEBVCujeqJ5H9fX1jb2POtmsWXMah+WZaQsWVLYHUn19u8aWYfWNwbCOoW6qI/fxqjyFqFREgIBYBIOXCCCAAAIIIIAAAggggAACCFSzQFP3S43jaY2tw+qsY0c9sK3poW2qd7nGqm6MzYWkwJfqpKCYAnXt2mkMMXpENenwfzULEBCr5qND3RBAAAEEEEAAAQQQQAABBBD4VqCp1dWi0EpMASm9r6/Xk581LE+lntqmVmtNwwM1tQxT6zC6S3LSVr8AAbHqP0bUEAEEEEAAAQQQQAABBBBAAIEg4EExtcLSa7UIU1BMqVytw0Jhjf8p8NWUFBD7LgjWVEdfxhSB6hQgIFadx4VaIYAAAggggAACCCCAAAIIIJAo4AGnpoCYgmGpyFTi+uWY6XUqR1mUgUAxBAiIFUORPBBAAAEEEEAAAQQQQAABBBCogACBqAqgU2SrEGCku1ZxGNkJBBBAAAEEEEAAAQQQQAABBBBAAIFcBQiI5SrFeggggAACCCCAAAIIIIAAAggggAACrUKAgFirOIzsBAIIIIAAAggggAACCCCAAAIIIIBArgIExHKVYj0EEEAAAQQQQAABBBBAAAEEEEAAgVYhQECsVRxGdgIBBBBAAAEEEEAAAQQQQAABBBBAIFcBAmK5SrEeAggggAACCCCAAAIIIIAAAggggECrECAg1ioOIzuBAAIIIIAAAggggAACCCCAAAIIIJCrQEOuK+az3lab9rDeK3a251+ZZJ9MmNVsU1+mmUnLm63MGwQQQAABBBBAAAEEEEAAAQQQQAABBIosUPSA2OC9VgxV/OSzWabX8YBY75WaAmUKmOl1fHmR94/sEEAAAQQQQAABBBBAAAEEEEAAAQQQaCZQ9C6THvB6fswkG3nfZ6bAmCe9VqswLdN0q016+KLFpuuvu7L9f3v3ASBZVecL+N9pciInZ8jKAoI5kARMYMIsKCbAuKuYMK1IUPet8amriOGhgsqa3TWwqy64EmVXFEVA0iBB0gATmDw98+p/29tT3VM9UzNdVd1V/d3d5uZ7z/lu27fn1+eceu7R+8ac2dM22GcDAQIECBAgQIAAAQIECBAgQIAAgS0VaGgLsQzDcipbfeU8v7KbZE4ZhJVTeUy5Pnx+zbV/jVkzd41DD9otLr7s1li4aNnwQ6wTIECAAAECBAgQIECAAAECBAgQ2GyBhrcQK4OuMhwrS1Ruz/XqfWVYVh5Xzlev6Y/LrvxLLF68ogjFtBQrZcwJECBAgAABAgQIECBAgAABAgRGI9DwFmIZdn3g5L0Gy1R2kcwNGX6V3SSrA7LBg4ctrF49EIod9IRd47CDd49fXzpfS7FhRlYJECBAgAABAgQIECBAgAABAgQ2T6CxgVhloPycyhAsw7FykP3cnmHYkH0P26X4NMrct9Gpa6N77SRAgAABAgQIECBAgAABAgQIECBQt0BDu0xmAFYGXlmCbAWW68UnSlbCspr7/jbuWK0S9/X2RLYOmzVzitZhtYBsI0CAAAECBAgQIECAAAECBAgQ2GyBhgZite6eoVgGZfk1fNpYt8kiDHtiJQybNcWg+sPhrBMgQIAAAQIECBAgQIAAAQIECGyxQEMDsWwBNnzKbpJlS7GR9g3fnutPfPzcjgvDFixYUKuqsWTJkli2zKdo1sSxkQABAgQmlMCDDz4YK1eurFnnpUuXVj5sZ3HNfdUbv/e978Xdd99dvckyAQIECBAgQIAAgSECPXsd8LrTh2wZ5crznr5D0Rpszuy+Yn7gvrPix7+4NxYtXhMb2zf8trfdsTBuuOm+WLFy9fBdW7R+/At32aLzGnXSmjVr4oADDoi99967+Kq+7hlnnBH33ntvHHjggdWbLRMgQIAAgQkn8MlPfjIuv/zyOOywwzao++te97ro7u6O/fbbb4N91Rs++MEPxqMe9ajYaaedqjdbJkCAAAECBAgQIDAo0NAWYtkS7Lzv31lcPMcNyynXc/vG9hUHTpD/fPSjH41bb711gtRWNQkQIECAwOYJHHvssfGDH/wgVq1aNeTEO+64I66++up4znOeM2S7FQIECBAgQIAAAQJbItDQQCwLUAZfGYT9+ooHivWyYBvbVx7T6fPTTjst/uEf/iFWrFgxYlV/+tOfxjOf+czir9snnHBCXHPNNfGKV7yiOP6qq66K97///XHWWWfFk5/85HjGM54Rv/71r+Piiy8u/pFw8MEHx2c/+9khXTCvvfbaeNnLXla0UMvjf/jDH454bzsIECBAgMBYCuy1115FS+r//M//HFKMb3/72/G85z0vpk2bFtddd93ge+2FL3xh0aIs35d//etfh5yT3S8zYKueFi1aFC996UsHN+UxJ598cjz2sY+NfId+7GMfi9WrG9M6ffAmFggQIECAAAECBMadQMMDsXFXw3FWoKc85SlxyCGHRAZjtaZf/epX8eEPfzjyF/sLL7wwDj/88HjnO98Zt9xyS3F4jjX27//+78V6/uMgg7IM2E4//fR4+9vfHl/72teKcKz8h0R2xXz1q18dL3jBC+Kyyy6Lf/zHfywCs7yPiQABAgQIjEeBl7/85fGv//qvg0Xr7++PHBcst993331x/PHHx0EHHRQ///nP441vfGN8/OMfjyuvvHKDVmV53s033zx4nVyo3rZu3brifbvDDjtE/jHqy1/+clx//fWR3TZNBAgQIECAAAECnS0gEBuD5/uud70rbrzxxuKX++G3/9KXvhQnnnhi8ZfvrbfeOl71qlfF0UcfPeSw7EaS447NmzevCLumT58eRx11VDz1qU8t/qr+yle+svhHQp50/vnnF63I8i/kM2bMiAzk3vCGN8R555035JpWCBAgQIDAeBHId1oGU+UQA/kHop133jn22Wef+Na3vhWPfvSji1ZdO+64Y/GOO+WUU4a0jK63Hr/5zW/ioYceive9732R19p3333j1FNPjW9+85uRYZmJAAECBAgQIECgcwV6O7dq47dmvb29RSutl7zkJUU3xuqSzp8/P57+9KdXbyoCsWwNVk45+H6GYOW0xx57xBOe8IRyNbK7yW233Vas5/V+//vfxzHHHDP4y31+etfkyZMHj7dAgAABAgTGk8CkSZPiRS96UdFK7L3vfW8xz9ZhOdV6Tz7pSU+Krbbaqq4qVHeHzGstXLgwnv/85w++I8uL5PZ6r1meY06AAAECBAgQINA+AgKxMXpWD3vYw4puk29+85uHfFrW9ttvH7/73e9i1113HSzZb3/728HlXMjxU4ZPfX19wzcV63m9Zz/72ZF/PTcRIECAAIF2ETjuuOOK1tIZhOUfdj7/+c8XRc/ujfmezLExyymDrRwLbPg0c+bMyD8CZSuwbCWdU7YKK6e8Vr5vszumiQABAgQIECBAYGIJ6DI5hs87u4TkGCg5bkk55eDAOQ5Y/nKf0w033FB0Dyn3b+48P40rf9Evx1DJLiBnnnlmZNdMEwECBAgQGK8Cu+++ezEMQI6Tma2cp0yZUhQ1l3/xi1/EFVdcUawvWLAgPv3pT0dPT88GVcnW0PkBNN/5zneKFmD5SZXZ5bKcnvjEJxYD8ee4m2UXyZ/97Gdx0kknlYeYEyBAgAABAgQIdKiAQGyMH+wHPvCBYkyUshg5UHD+gp6fMvm0pz2tGCMsBwze0umAAw6I7G6Sn6iVY5HlOGP5l/IctN9EgAABAgTGs0C2EstPWs55OeU4Xx/84AfjTW96U/HBM/npyTmmWI6rWWvKcTMvuOCC4g9QGaZlV8xyyuEHzj777PjUpz5VfOBNvntz/LD8cBsTAQIECBAgQIBAZwt0HXX8lRNi1NgLznt8Wz3JHDj/gQceKAb5bUTB8y/fd999d2QXylp/RW/EPVyDAAECBAi0SmDt2rXFey27PdbzXsuWZPlhNd3dtf8WeP/998fUqVNrDkvQqjq5DwECBAgQIECAQOsEjCHWOuvNulMOKJyfeNWoqaurK3baaadGXc51CBAgQIDAmApksJWfPFnvtO2222700G222Waj++0kQIAAAQIECBDoLIHafybtrDqqDQECBAgQIECAAAECBAgQIECAAIFBAYHYIIUFAgQIECBAgAABAgQIECBAgACBiSAgEJsIT1kdCRAgQIAAAQIECBAgQIAAAQIEBgUEYoMUFggQIECAAAECBAgQIECAAAECBCaCgEBsIjxldSRAgAABAgQIECBAgAABAgQIEBgUEIgNUlggQIAAAQIECBAgQIAAAQIECBCYCAICsYnwlNWRAAECBAgQIECAAAECBAgQIEBgUKB3cMlCSwSWLVsRDy1dHqtWrYl169a15J5uQoAAAQIEmiHQ1dUVkyb1xozpU2PatCkNvYX3ZUM5XYwAAQIExlCgme/LrNZ4+Xdl1tNEoJ0EBGItfFoLFy6JFStXx8wZU2OrOb3R3b2+gZ4fHi18EG5FgAABAlssUP1L99q1a4s/8CxesqwyXx1z5szc4utWn+h9Wa1hmQABAgTaUaDZ78vy+jkfaGcx0Nii1W0u1mdgXdHVta7yNRCKlfN2fHbKPHEEBGItetZLl64owrBttp5Z/JAof0CU8+HFGGn78OOsEyBAgACBZgmUv2xXX798P+W+/MPO5Ml9RSux+x9YEvmumz59dC3FvC+rtS0TIECAQDsItPp9WYZg69atjWxRvXTZylizJnsgjY1WZmC9vb0xfdrkosV4V1c2/Fgfjo1NqdyVwKYFBGKbNmrIEUuXLS9ahuU/JMp/TJTzvEH1ckNu6CIECBAgQGCUArXeTeUv/bkvl8tjsvVzvutGHYh5X47yqTmdAAECBFotUL4Lq+/brPdlGYZlK+1Fix8qWmpPmzY1+vp6B9/J1eVoxXKWafXqNQNDA1Xms2fN+FtvqPW/J7SiHO5BYHMF1vfZ29wzHV+3QP6AyDHDcpyVWlOtH6C1jrONAAECBAiMtcBI76x8x412fEzvy7F+uu5PgAABAo0SaO77MluGDYxLPXv2zMq/M/vGLAxLr6xrliHLkr8LZNmy9ZqJwHgXqJ3QjPdSt2H58pf86h+K5XI5H16lkbYPP846AQIECBBopkC+v4ZP+Y4q32vl/nLb8GM3d728bnle+T4s5+X2cj7S9nK/OQECBAgQaIVA+T6svlf5biznua96ufrYepfzPtk6bNnylZXuiVOH/Buz3ms067isW5Zp2fLlMXXq5KJsuc1EYLwKaCHW4iezqR8IuX9Tx7S4yG5HgAABAhNYoJ73UjPeW5u6Zj3lmsCPTdUJECBAoMUC9byXNvVu21SRMwzLv1PlfPXq/qKb5KbOafX+7LqZZasua6vL4H4E6hUYsYXY2v4V0d+/vJI+r65ca8O/Dtd7g+Yc11Xpk9wXPT1To7tndIP3Nqd8W3bV0f6A3LK7OosAAQIECGxaIN9R+cvteJi8L8fDU1AGAgQIEKgl0Pz3ZYZiA+/j8fg+LMs0UMYspxZitb5PbBsfAjUDsTVrlkT/mmXjo4Q1S5HNRFcVXz3rVlc+0aIxH/Ne81Y2EiBAgAABAgQIECBAgACBcSJQBmLjpDg1i9EOZaxZcBsnlMAGXSaLlmHjOgwb+nwyuMsyt+NUpudZ9urldqyLMhMgQIBA5wuM1buq+r7Vy50vroYECBAg0I4CzXxXjZPG2nU9lnYqa10VclDHCWwQiGU3yXab2rHM7WasvAQIECBAoFqgmb/sV9/HMgECBAgQaGcB78t2fnrK3ukCGwRiA2OGtVe127HM7SWstAQIECBAgAABAgQIECBAgACBzhHYIBAbfwPo14M9Pgb5raekjiFAgAABAgQIECBAgAABAgQIEBhbgRqB2NgWyN0JECBAgAABAgQIECBAgAABAgQINFNAINZMXdcmQIAAAQIECBAgQIAAAQIECBAYdwICsXH3SNYXaO3atXHWWWet39CApQcffDDuueeeDb76+/sbcHWXIECAAAECBAgQIECAAAECBAiMf4He8V/EiVvCDMQ+85nPxJvf/OaGIZx66qlxww03DF5v+fLlcffdd8eFF14Yc+fOHdxugQABAgQIECBAgAABAgQIECDQqQICsU59siPU63Of+9zgnpUrV8ZrX/vaePvb3y4MG1SxQIAAAQIECBAgQIAAAQIECHS6gC6TbfSEr7jiinjNa14TS5cuLUr94x//OJ75zGfGAQccEC9+8YvjD3/4Q2TXx+OOOy7mz58/pGZf/epX45xzzhnclsedfPLJ8bznPS9e+MIXDm63QIAAAQIECBAgQIAAAQIECBDodAGBWJs84euvvz5OOeWUeP/73x/Tp0+Piy66KD796U/He9/73rjsssvi2GOPLVp7PfDAA/GEJzwhzj333MGaZdfLDMMOP/zwwW0f+chH4pJLLinOvfbaawe3WyBAgAABAgQIECBAgAABAgQIdLqAQKwNnvCdd94Zb3jDG+KTn/xkPPzhDy9K/KUvfSne9ra3xRFHHBEzZswoWogdeuih8aMf/She+cpXRrYee+ihh4pj//u//zt222232GOPPQZr+6xnPSv+7d/+rWhdlt0m16xZM7jPAgECBAgQIECAAAECBAgQIECgkwWaOobYq1/68Hj1Sx4ev//T/YXhud+9YXC5k1EbWbds3ZWBVW9vb+y///6Dl84ukV/84hfjK1/5Sqxbt67YvmjRothmm21i2223jac97Wnxve99r+hi+a1vfasIyQZPriw87nGPK1b33HPPopVYhmZPfepTqw+xTIAAAQIECBAgQIAAAQIdJvDWt76trhp99rOfrus4BxFoV4GmBGKP2m+b+NTpT46vVwKwI1/yk8Imt72qEo5FCMU255slx/rKFl+33357vOc974l/+Zd/KU7ffvvtiy6U2Sqs1nTiiScWrcqe8YxnxJ///OfBsOvMM8+Mt7zlLbHVVlsNnrb11lvHzTffPHjM4A4LBAgQIECAAAECBAgQIECAAIEOFGhKIJbB1ztOv3xIa7BsJfb7P10eF373OUVQdnWxPtByrANdG1alvr6+IhDLYCwH1M+ukq9//evjmGOOibPPPjv222+/yEBr+fLl8apXvSre9773xWMe85jYe++9Y9dddy0Gzn/Zy14WPT09RZlmz54dOX7YGWecUYxFdt1118UvfvGLOOmkkxpWZhciQIAAAQIECBAgQIAAgfEpoOXX+HwuStV6gaYEYlmNspvk8CplUJZThmYH7nd/fP07Nww/xHoNgQy0snXYC17wgqLrZIZj99xzT2QLsb322qv45MmXv/zlRRhWnn7CCScUQVcGZ+WUY5FlIHb00UfHpEmT4r777ovTTjst9tlnn/IQcwIECBAgQIAAAQIECBAgQIBARwt0HXX8lQMDUP2tmitX3DOqCue4YTnVE3SNdOxeez4sbrr5jprl2GuPyr5bNtw3ecoONY8vN15w3uPLxZbPc4yvO+68L3bacevo6uoq7j98nhvLbZtTwBwMP0OtnXbaaYPTvv/978fFF19cfBrl8J05Ntkdd9wRO++8czE+2fD91gkQIECAwHCBcszK3F4uV8/vuvuBeNgu223R+6y8ZrPel8PrYp0AAQIECDRLoHw35vXL5er5lr4v8xr9/WsrH4i2Ou5bsLgydvT6YXCaVZctue6CBQ/GdtvOqvw7s6/SU6l7i38v2JJ7O4fA5gg09FMmRwq4RipQhmYH7rvNBrsPfOSecehB6weQLw/IbQcesP6TEsvtE3meg+3XCsPS5Gtf+1rRjbKWT3d3d8ybN08YVgvHNgIECBAgQIAAAQIECBAgQKCjBRraZTLDrbJLZKlWhmTl+vB5DrY/fLrsij/FQU/6uyIUu/iya4rdGYZtv/1WcdkV1w4/vGPWM/HfklZitQByEP5HPOIRQ7pQ1jrONgIECBAg0G4CjXxftlvdlZcAAQIECBAgQKAxAg0NxIaHW/lJk8O31VPsu+5eUAm+rhsMxfKcgTDsush97Txt6pf43J/TaIOxuXPnxic+8Yl2plJ2AgQIEBgHAuV7aWNFqeeYjZ1fa1+r3pe17m0bAQIECBDYXIF63oX1HLO593U8AQJbLtDQQOzr370hskVYOX5YGYblAPtXXzv0EyWzNVm5v1bxy1Ds4CfvFznq1iWX/6ntw7Dqepa/6Jfz6n257IflcBHrBAgQIDBeBMp3VDlvZrnK92Q5H36vVpRh+D2tEyBAgACBegTKd1Q5r+ccxxAg0DqBho4hVo4Jli3DNtVVcnhAVqvKGYpdWgnCOiUMG+kH4Ujba5nYRoAAAQIExlJgpHfWSNu3pKwjXWuk7VtyD+cQIECAAIFmCoz0zhppezPL4toECNQWaGgLsbxFjiE22PLrJQM3HVyvrFYvD+zd+H/bvYtkrdrlD8HsElnO85jhPxhH22Wy1n1tI0CAAAECmysw/P1Unl9uL+fl9kbO89rel40UdS0CBAgQaJbASO/Dcns5b9b9XZcAgc0XaHgglkXILpLV0/Auk5sbilVfq92Xh/9yX/5gHB6Aldvbvb7KT4AAAQKdJVD9fiqXy3kja5rXrA7Dynt4XzZS2bUIECBAoFkC5Xsrr18ul/Nm3dN1CRDYPIGmBGJlETIIy/Cr/Cq3V8+Hh2fV+zptOX8ADv/lvvzF3g/HTnva6kOAAIHOFijfW8Pnjai192UjFF2DAAECBMaDwPD3ZLk+HsqmDAQmukBDxxAbjnluZZD9TQVe9YwlNvy67bxe/gCsnudy+dXOdVN2AgQIEOhcgfI9Vc6zprlcPS9WGvSf4dcu71vOG3QblyFAgAABAg0VKN9T5TwvnsvV82LFfwgQGHOBprcQ+/2fLh/zSo6HAtRqGVb+YMzyaSk2Hp6SMhAgQIDApgSq3115bLme8/JdtqlrbGy/9+XGdOwjQIAAgXYRKN+PZXnL9Ua9L8vrmhMgsOUCTQ3EtrxYnXdmX19PrF7dHzkvf9nPWpb/eCh/QHZezdWIAAECBDpRoPq9lcvlO260dfW+HK2g8wkQIEBgPAk06305nuqoLATaVUAg1qInN23alHho6YqYM3tacUdBWIvg3YYAAQIEmiqQv+jnV77jpk+fMup7eV+OmtAFCBAgQGAcCjTqfdnVtb5yec3y35Xrt47tUpapnKrLWm4zJzCeBJo6hth4quhYliV/SE2vBGL5V++Fi5YVf0Vfu3Zt8Q+I8gfjWJbPvQkQIECAQL0C5Xsr5/kuy5Zh+W7Ld1y+60bzi7n3Zb1PwXEECBAgMN4Fmv2+7O3NHkhrxh1DlinLNprfB8ZdpRSoYwW0EGvRo80fCHNmz4ilS5cXf0Vfs2ZNJRBr0c3dhgABAgQINEEg//Lb29sb06ZOqrQOm9qQX369L5vwoFySAAECBMZUoLHvy67ifTt5Um8sW7a88gep3oa8fxsBlCFglinLNhCIVTVna8QNXINAgwUEYg0GHely+QOhu7s7ZsyYFtOmTa2EYWtHOtR2AgQIECDQNgJdXd2V99vAL+cDv/yOrujel6PzczYBAgQIjE+BRrwv8x3Z1TXQTXJq5Y9Ra9b0x6JFS4p/X45lMJZBWLYMyzCsp/I7QZZtoKzrx8wen09FqSa6gECshd8BAz8UBn6IReit2kJ6tyJAgACBJgrk+62Rk/dlIzVdiwABAgTGi0Aj3pd5jWxo0dPTU2lsMSWWL19Z6YW0LPr7x7bBRU9Pd6VlWE8lDJtclC3L2Ij6jpdnpxydKSAQG4Pn6gfDGKC7JQECBAi0nYD3Zds9MgUmQIAAgRYIDLQ2y2ELotI6rCsmT87xqQfGqM7bt2ponvLvYfm+zjJlKJZBXXd3jiGmAUgLvhXcYpQCArFRAjqdAAECBAgQIECAAAECBAi0QmDgj0XrilZiGUjlek9PftBNDlA9VoNUZ6u1geETBlqGZesw3SVb8f3gHqMTEIiNzs/ZBAgQIECAAAECBAgQIECgZQJlKJatsHI5W4RlKJZTq1qHlZXN4GtgykBsfQg2UMZynzmB8SkgEBufz0WpCBAgQIAAAQIECBAgQIBATYEycBoIxDIMG0ymah7fio1lmVpxL/cg0AgBgVgjFF2DAAECBAgQIECAAAECBAiMgYAgagzQ3bIjBIx01xGPUSUIECBAgAABAgQIECBAgAABAgTqFRCI1SvlOAIECBAgQIAAAQIECBAgQIAAgY4QEIh1xGNUCQIECBAgQIAAAQIECBAgQIAAgXoFBGL1SjmOAAECBAgQIECAAAECBAgQIECgIwQEYh3xGFWCAAECBAgQIECAAAECBAgQIECgXgGBWL1SjiNAgAABAgQIECBAgAABAgQIEOgIAYFYRzxGlSBAgAABAgQIECBAgAABAgQIEKhXQCBWr5TjCBAgQIAAAQIECBAgQIAAAQIEOkJAINYRj1ElCBAgQIAAAQIECBAgQIAAAQIE6hUQiNUr5TgCBAgQIECAAAECBAgQIECAAIGOEBCIdcRjVAkCBAgQIECAAAECBAgQIECAAIF6BQRi9Uo5jgABAgQIECBAgAABAgQIECBAoCMEBGId8RhVggABAgQIECBAgAABAgQIECBAoF4BgVi9Uo4jQIAAAQIECBAgQIAAAQIECBDoCAGBWEc8RpUgQIAAAQIECBAgQIAAAQIECBCoV0AgVq+U4wgQIECAAAECBAgQIECAAAECBDpCQCDWEY9RJQgQIECAAAECBAgQIECAAAECBOoVEIjVK+U4AgQIECBAgAABAgQIECBAgACBjhAQiHXEY1QJAgQIECBAgAABAgQIECBAgACBegUEYvVKOY4AAQIECBAgQIAAAQIECBAgQKAjBARiHfEYVYIAAQIECBAgQIAAAQIECBAgQKBeAYFYvVKOI0CAAAECBAgQIECAAAECBAgQ6AgBgVhHPEaVIECAAAECBAgQIECAAAECBAgQqFdgTAKxE47bvyjf7vNm11tOxxEgQIAAAQIECBAgQIAAAQIECBBoiEBvQ65S50UyCMsQbP5ti+JD7zm4mOeyiQABAgQIECBAgAABAgQIECBAgECrBFrWQqwMw845/5q46NLb49SPXhq33r64CMa0FGvV43YfAgQIECBAgAABAgQIECBAgACBprYQK4OubAWWIViGYUceMi92mzsrMiDLUOyIg+dOyKewbt26CVnv8Vzprq6u8Vw8ZSNAgAABAgQIECBAgAABAgQaJNCUQKzsFpnzDLwyEMvlDMBy+cJLbisCserjJkLXyQzBfnX5A/GzC++LP9/yUKxeLRRr0PfxqC/T19cVj9hjRjzryO3i8CdvHcKxUZO6AAECBAgQIECAAAECBAgQGLcCTQnEsrblwPnZKiynsntkLmcwVk4ZipXHlNs6cZ5h2FfOvz3+cN1D8YoX7ByP3n9WTJ7Ush6rnUja0DqtXLU2fnfN4vjmD/8aN926NE46bq5QrKHCLkaAAAECBAgQIECAAAECBMaPQFMSmQy5MgCrDrqyVVjZQqwMwTI0y66Uud7JU4ZhF112fxGGfeLUfeJJj5kjDBtnDzzDyXwu+XwytMznpVvrOHtIikOAAAECBAgQIECAAAECBBok0PBALEOu7CaZAVgGXbmc87LFWAZguZzbyu6Tnd5dMoOVCy5aULQM0yqsQd+5TbpMPp9swZfPSyDWJGSXJUCAAAECBAgQIECAAAECYyzQ8EAsW4WVAVeGXhmAZTiWU67nlPvzq7oFWbGjA/9TycIqwUoUY4ZlN0nT+BfI55RjvJXPbvyXWAkJECBAgAABAgQIECBAgACBzRFoeCBWhl5lIXK9/MoQrNxfzsvjOneeA+evKwbQ1zqsPZ5yPqeBDzwYeHbtUWqlJECAAAECBAgQIECAAAECBOoVaHggVt44A6/qlmEToTVYWffh82xpZGo/Ac+t/Z6ZEhMgQIAAAQIECBAgQIAAgXoEGv4pk2UrsHLA/DIUy8Iceci82G3urAnRVbIefMcQIECAAAECBAgQIECAAAECBAi0XqDhgVhWoRwjLFuJfeg9BxfruZzjieWnT5oIECBAgAABAgQIECBAgAABAgQIjJVA0wKx6gplK7FsMVbdWqx6v2UCBAgQIECAAAECBAgQIECAAAECrRJoSiBWFr5sKZbrE3kMsdLDnAABAgQIECBAgAABAgQIECBAYOwFmjao/thXTQnqEVi7dl3c/+Dq6O+vb+T/K3+/MG7+y7IRL33rHcvj8t8+WHN/3sdEgAABAgQIECBAgAABAgQIEBhrAYHYWD+BLbj/N35wZ+RXI6b/uvT+OP6tv4//+O/76rrcFVctjBtvWTrisbfevjwuvnLDQGxNJXDL+2QAl9Nl//tg/OzC+u454s3sIECAAAECBAgQIECAAAECBAhsgYBAbAvQOumUn/7XvfHS5+4UP/1la8OpexesijvuWt5JlOpCgAABAgQIECBAgAABAgQItIlAU8cQaxODCVvM7Pq4eMmaeM1LHhbZFfLaGx+KffeeMeix+KE18YVz/xJX/XFxzJ7VG886cvvBfbmQ3Sy/9aO/xi8vXhD9lZZfT3z0nNhnr/XnDzm4auUz59wav6m0NMvz89q7zZ0a7/37PYuynFW53+/+tDgmT+qOw5+8TbzqRbtEb29X/Og/74nurojrb14a/3P1oth1lynx7jfvGRf/5oH4yS/vjWnTeuL5z9whnn7otlV3skiAAAECBAgQIECAAAECBAgQ2FBAILahybjcUt1F8o/XLynKWL3t+Bfustnl/kmlddhznrZ9dFWCpuc+bYfI1mJlILau0rPxtE/eGDttPzn++f2PiDVr1sX5lfDrupuWxsN3n17c6+vfvTP+cP3ieMtrd4t5D5saP/nFvfHVb98Rj9pv1kbL8spKWbea1VcZu2xVHHfMztHX1xV5vw9+8obY/xEz46yP7BeLFq+Jr373jvj69+6IE4+dW1lfHf/283vj5c/fuQjwsu5vO+3a2HmHyXHqyXvFwkqw94mzb4kD950V228zaaP3t5MAAQIECBAgQIAAAQIECBCY2AK6TE7Q579seX9cXhnH6xmHDbSoOvLgbYrWWtliLKdr/rwk7rx7RbzjdbvH7nOnxd6VEOyUN+0ZK1b2F/szIPvhf94df//qXeNxB84uQqgTjn1Y7LLTlGL/xv6z9Zy+mDWjN6ZXWnXtWAncttlqUmTIl2XK8CvX99h1Wrzx+HmVkO6+IizL6+1aCd1e/OwdY/ttJ8XLnrdTPLhodRGQ5bGP2X9WPPExc+KKEQb031h57CNAgAABAgQIECBAgAABAgQmloAWYm3yvKtbgJUtw6q3bW41cjD9qVN74vsX3DN46ozpPfHzXy8oQqc771oRjztgdtFdsTxg6pTueOwjZxer9yxYGbNn9hVBWbk/54c+fquiW2P1tnqWM3xb8lB/nFxp9VVO67LZWGVaUum6mVN1y7NddpxStGzbf5+Zxb78z647T4277l05uG6BAAECBAgQIECAAAECBAgQIFBLQCBWS2UCbPtpZdytgx+3VTFWV1ndgyrrP7vw3njRs3aMrbfqiz/f/FC5q5hnPpVjeGVQtvWcSfHAwlVx3/2rYruqLoo5Dll3Dva1mVO2GsvumZ867e9GPHPK5A0bNPb2bP69RryBHQQIECBAgAABAgQIECBAgMCEENgwYZgQ1Z7YlczukNn26qTj5saxla6H5ddrX/qwmDG9N666ZlEc8HezYnWlW2QOWJ/dI1etWhvf++ldsbAylldO2VrsoMduFd/44Z2Rg+9nWPbbPy4qBucvDtjEf+ZWBsX/yx3Li/Py3AP+bmbcWwnXLqt04/xbw7C4+MoH4vRP3biJK9lNgAABAgQIECBAgAABAgQIENg8AS3ENs9rXBw9mq6SWYEcPP+ZT6n9aYzPPHzbyNZj2TXyg2/bOz72hZsju2hmq68cp+vIg7YZNHjLCbvFJ794S7zyrVdXWoxVxgWb2RuveMEukZ9euanpwErg9qP/uCde8ZbfF59OefKJu1Xut1d86kvz4+xv3BbTpvTEnNl98a437L6pS9lPgAABAgQIECBAgAABAgQIENgsga6jjr8yGwsNTitXrB9TanBjGyxMnrLDRkt5wXmP3+j+Zu3McbD6+9fGc197VYxVGUZbt/sfXF1pOdYzpHtl9TWXLuuv1HFdEYhVb69nOVuh9fUO7faYrdAmT+opWqHVc41mHHP0K/8nfvzVx0RPT3dlrLKh5WvG/VyTAAECBAgQIECAAAECBAgQaJ2AFmKts27bO21TGU9sY1N+WuSWTsPDsLzOnFkbv9+W3st5BAgQIECAAAECBAgQIECAAIEUMIaY7wMCBAgQIECAAAECBAgQIECAAIEJJSAQm1CPW2UJECBAgAABAgQIECBAgAABAgQEYr4HCBAgQIAAAQIECBAgQIAAAQIEJpSAQGxCPW6VJUCAAAECBAgQIECAAAECBAgQEIi16Hugr68rVq5a26K7uc1oBPI55fMyESBAgAABAgQIECBAgAABAp0pIBBrwXPtqmQrj9hjevzumsUtuJtbjFYgn1M+r3xuJgIECBAgQIAAAQIECBAgQKDzBARiTX+mmap0xVGHbxvf/OFftRJruvfobpCtw/I55fPK5zbwNbprOpsAAQIECBAgQIAAAQIECBAYXwICsSY/j2xllF+HPXFOPHKf6fGuD10fV1y1UDDWZPfNvXwGYflc8vnkc8rnVT67zb2W4wkQIECAAAECBAgQIECAAIHxLdA7vovXGaXrqiQr3d098ZqX7By//s2D8f2f3RX/9LmbYvXqdZ1RwQ6oRY4Zlt0kj3nGtpUwbKvieeVzMxEgQIAAAQIECBAgQIAAAQKdJyAQa8EzHQjE8kY98ZQnbR2HPmFOrFuXYZhArAX8dd6iq9IiLIPL7r99DazXebLDCBAgQIAAAQIECBAgQIAAgTYSEIi16GGVoVhX10DgkmFYkYm16P5us3GBgcZgGYJlF1dh2Ma17CVAgAABAgQIECBAgAABAu0tIBBr4fOrDloGWoi18OZutUmBfD4mAgQIECBAgAABAgQIECBAoPMFBGJj9IyFL2ME77YECBAgQIAAAQIECBAgQIDAhBfwKZMT/lsAAAECBAgQIECAAAECBAgQIEBgYgk0pYXYkYfMi93mzqpL8tbbF8eFl9xW17EOIkCAAAECBAgQIECAAAECBAgQIDBagYYHYicct39kyHXO+dfUVbYMz/JLKFYXl4MIECBAgAABAgQIECBAgAABAgRGKdCULpNluLX7vNmRXzmVwVcu57ZczymPPeLgucWy/xAgQIAAAQIECBAgQIAAAQIECBBotkBTArEsdAZeGXzNv21RUYecVy/nxmxNZiJAgAABAgQIECBAgAABAgQIECDQSoGGd5msLnwZgOW26uVa69XnWSZAgAABAgQIECBAgAABAgQIECDQLIGmBWJlt8mRCl7dYmykY2wnQIAAAQIECBAgQIAAAQIECBAg0GiBpnWZbHRBXY8AAQIECBAgQIAAAQIECBAgQIBAIwSaFoiVY4iNVMjqgfVHOsZ2AgQIECBAgAABAgQIECBAgAABAo0WaFqXyd3mzhosa3aPrP5UyQzD8pMlb7198eAxFggQIECAAAECBAgQIECAAAECBAi0QqDhLcQy7MrpnPOvKebVg+lXL1906e2xqXHGigv4DwECBAgQIECAAAECBAgQIECAAIEGCjQ8EMugq7o1WFnWDL/KQCzn5XIeWy6Xx5oTIECAAAECBAgQIECAAAECBAgQaJZAw7tMZvCVIdcJx+1fV5mz22TZmqyuExxEgAABAgQIECBAgAABAgQIECBAYBQCDQ/Esiy6Qo7iiTiVAAECBAgQIECAAAECBAgQIECgqQIN7zLZ1NK6OAECBAgQIECAAAECBAgQIECAAIFRCgjERgnodAIECBAgQIAAAQIECBAgQIAAgfYSEIi11/NSWgIECBAgQIAAAQIECBAgQIAAgVEKCMRGCeh0AgQIECBAgAABAgQIECBAgACB9hIQiLXX81JaAgQIECBAgAABAgQIECBAgACBUQoIxEYJ6HQCBAgQIECAAAECBAgQIECAAIH2EhCItdfzUloCBAgQIECAAAECBAgQIECAAIFRCgjERgnodAIECBAgQIAAAQIECBAgQIAAgfYSEIi11/NSWgIECBAgQIAAAQIECBAgQIAAgVEKCMRGCeh0AgQIECBAgAABAgQIECBAgACB9hIQiLXX81JaAgQIECBAgAABAgQIECBAgACBUQoIxEYJ6HQCBAgQIECAAAECBAgQIECAAIH2EhCItdfzUloCBAgQIECAAAECBAgQIECAAIFRCvQOP3///fYavqkt1m+8eUlblFMhCRAgQIAAAQIECBAgQIAAAQIExlZAC7Gx9Xd3AgQIECBAgAABAgQIECBAgACBFgsIxFoM7nYECBAgQIAAAQIECBAgQIAAAQJjKyAQG1t/dydAgAABAgQIECBAgAABAgQIEGixgECsxeBuR4AAAQIECBAgQIAAAQIECBAgMLYCArGx9Xd3AgQIECBAgAABAgQIECBAgACBFgsIxFoM7nYECBAgQIAAAQIECBAgQIAAAQJjKyAQG1t/dydAgAABAgQIECBAgAABAgQIEGixgECsxeBuR4AAAQIECBAgQIAAAQIECBAgMLYCArGx9Xd3AgQIECBAgAABAgQIECBAgACBFgsIxFoM7nYECBAgQIAAAQIECBAgQIAAAQJjKyAQG1t/dydAgAABAgQIECBAgAABAgQIEGixgECsxeBuR4AAAQIECBAgQIAAAQIECBAgMLYCvc24/VteM2/Ey+6927S44FcLiq8RD7KDiFI/fgAAHwNJREFUAAECBAgQIECAAAECBAgQIECAQJMEGh6IHX34tnHTrcs2GnjlMRmM3Vg5zkSAAAECBAgQIECAAAECBAgQIECglQIN7zK5VyXoykBsY1PuP6oSipkIECBAgAABAgQIECBAgAABAgQItFqg4S3EqitQq+vkf1S6S5oi1q1bh6GGQFdXV42tm95UepbzTZ/R3keUTuW8vWuj9AQIECBAgAABAgQIECBAoLUCTQ3EaoVf2U0yu0tOxCnDmqXLVsTSpSti9erVlVBsIiqMXOfMwvr6+mL69CkxfdqUqCfsSdP8uvDSBfH9n90Tt/91ZfSv7WzYnu6umLvz5HjRs3aIIw/etnCqx2pkeXsIECBAgAABAgQIECBAgMDEEmhqIDbSGGHZrXKiTRnaLFz4UKxYuSqmTZsaM2dOryvwmUhOabR69ZpYsmRZrF61JubMmbFRozx+7dq18YVzb4uLLn8wli3vnxBcGfjdeseK+MJ5d8T1Ny2NN71qXnR3d2/UakLAqCQBAgQIECBAgAABAgQIEKhToOFjiJX3zVZg2WUyv3IQ/XLK5XKcsVpdKsvjOmmewU22CsswbPbsmTFpUp/wosYDzlZOaZNGaZVmaTfSlPv+65IFlTDsgQkThlVbZACYdU+DjTlVn2OZAAECBAgQIECAAAECBAgQiGhaC7FsHXbj127bwDjDsOxKmfsnViC2vGgZpmvbBt8SG2xIo2xFt3Rpmk2uGR5mANTf3x8/uOCeShi2doNrTJQNWfc0OOKgrQsn318T5cmrJwECBAgQIECAAAECBAiMRqBpgVitQmUAVowfVmkldlTlgLIVWRmQ1Tqn3bdlA6f8Wr1mTczsayl3W9P1VayWLFlT2KVfrbH2+/vXxu13rWzrejai8GmQFr2+vRrB6RoECBAgQIAAAQIECBAgMAEEmtZlcrhdhl9FGFbZMXz5qKoulcPPa//17PKXA79nqLNln6DY/gabX4O0SrO0G/gaeo1sIbZu3drKGGJDt0/EtTRIC90mJ+LTV2cCBAgQIECAAAECBAgQ2BKBlgViwws30oD7w4/rhPWBYKcTatL6OmzMTgC0/nmwWG9hiQABAgQIECBAgAABAgQIbEqg4Z2ssvtjtvjaqzJG2E2Vr3La2CdLVh9XHm9OgAABAgQIECBAgAABAgQIECBAoBkCDQ/EysH0y0+THKnQZffJkfbbToAAAQIECBAgQIAAAQIECBAgQKAZAg0PxMpCXlBpKVZrypZi1WFYBmgjHVvrfNsIECBAgAABAgQIECBAgAABAgQIjEagaYFYrUIJvmqp2EaAAAECBAgQIECAAAECBAgQINBKgTEbVL+VlXQvAgQIECBAgAABAgQIECBAgAABAqWAQKyUMCdAgAABAgQIECBAgAABAgQIEJgQAgKxCfGYVZIAAQIECBAgQIAAAQIECBAgQKAUEIiVEuYECBAgQIAAAQIECBAgQIAAAQITQkAg1saP+Y477ojr//znWLdu3biqxRVX/CZ+e9VV46pM9Ramp6cr9tx1Wkzq8z+Nes0cR4AAAQIECBAgQIAAAQIE2k2gpZ8y2W4447W8P//FL+Of/un/xMwZM2PK1Clxzz33xJOf9KR417veEdttt92YF/uyyy6PadOnxWMf85gxL0u9BeitBGGvP35ePP6A2XHXfStjlx2nxG13Lo9Pf+XWuP/BVfVexnEECBAgQIAAAQIECBAgQIBAGwgIxNrgIVUX8dzzvhG/qARi3/zGebHLLjsXu5YvXx7f/Nb58erXnBDfOO/rsfXWW1efYrkOgWc9dfvYdZep8bp3/zHW9A+0uDv8yVvHW167a3z4MzcNbqvjUg4hQIAAAQIECBAgQIAAAQIExrmAQGycP6Dq4v31r3fFWWedHRf87Mex1VZbDe6aOnVqnHTiCfGoAw+M/v61xfaFCxfGGWd+OC655NIiIHv5cS+LxYuXxN577xVHHfXM+PrXz43JkyfH/Pm3xk9++rPo6emOt77lH+LFL35RcX5/f3988Utfju997wexZs3qePrTnhavf/1JscMOOxT7r7vu+jjzQx+O66//c7HtjW94fTz/+c8bLFO7Ldx978qYNaM3tp7TF/feP9Ai7FeXPxD5VU65/02v2jUe88hZsWjxmvjZhffG9Gk98ZdKS7K+3u7Yfe7UOOfbd5SHx1az++LUt+0V7/7w9TGtctybK+c+er9ZsXLV2sp1749zv39nxXZ8dXcdLLwFAgQIECBAgAABAgQIECDQwQIGSmqjh/vHP/4xHvnI/YeEYdXFf9zjHlvpMrltMabY617/xujq6orzzvtafOITH40rfnNl0Yps0eLFxSn33/9AfOKT/zd6enviO98+P971znfEP3/0Y7F8+Ypi/2c/+7m48MKL4kNnnh7/9qMfxKzZs+Lt73hXrF27Nu6777547QknVQKwY+LiX18U73/fe+Jzn/98/Oq/f11dnLZa/p+rF8ZFlZDqcx/eLz5w8l5x2BO3HjKOWIUyznjn3oXte//pz/Hxs2+JA/adFc952vYxY3pvXPXHRXHU4dvF1Ck9g/V++mHbxi1/WRb9a9fFme98eCx4YFW8+R//FKf/3xsr4dm0ePWLHzZ4rAUCBAgQIECAAAECBAgQIECgdQICsdZZj/pOCxctilmzZm3yOv/zP/9btPz66D//U+zziEfEI/ffPz75iY/FsmXLhpy7ww7bx7tPeVfR9fJ5z3tuHHDAAXHxJZdUWi2tia/8v3PijNNPi4MPPqgI4E5+61uKFmQZiJ3/r9+utBh7arzspS+JGTNmxGGHHRqve91J8c1vfmvI9dtpJT+X4Ds/vitOPOWP8b9XL4pnHbldfPnjj4wjDtqmqMb+j5hZjCv2qS/Pj/m3L4sb5y+Nj3/h5pgyeSAAW7RkTfzvHxbFkX87PgO0DMh+8l/3xiP3mRnTpvbE//vX24vxyDIkO/sbt8Wzn7pdJbRsJyVlJUCAAAECBAgQIECAAAECnSGgy2QbPce99tozvvGNTYdO82+9NZ7ylMOir69vsHbTpk2LQw89ZHA9Fw4//ClD1vfbd9+46aab4uF7712EYPvtt++Q/U960hOL9Vtv/UtcffUf4oUvfEmsq/xfTitXroxJkyYVy+38nyUPrYn/+NV9xdc+e82otOzaO/54/ZLYZacpReBV3cVx+Yq18dtKy7By+skv7403v3rX+GmlK+WjKq3HHli4Om69fXkcfcR2lQ9A6InPnLHeM1vv5TSz0g1zcSVMMxEgQIAAAQIECBAgQIAAAQKtExCItc561Hfaf7/9YsmSJfHrX19ctMqqvuCqVavijW/6+3jH298WO2y/fSWwurp6d9HVMUOsbM1VTjNnziwXi3kZ0mTLsQULFsRdd90dO+204+Ax2XKst7c3tq98kuWzjj4q3vnOtw/ua/eF09+xd/z4F/cOCbiuv+mhuKHSEixbeD3w4Op4xJ4zhlQzM6199pxeBGW549obH4ruSpvLh+8xPY6utDD7yS/vKY7PYOyuyhhl7zjjuiHnWyFAgAABAgQIECBAgAABAgTGRmCDQOyaP900NiUZ5V0nTxkY7H2UlxnXp+cg+Gec8cF493veFx/58Jlx5JFHFOOEzZ8/P/7lc2dVxg/bLvbff7/KOGDLIwOyb37z/HjpS19cGWi/P8499xtFyFVPBXOQ/qOe+Yz49Gc+G+99zylFa7H//e1v4wMfOK0yntj341nPPjre+MY3xwtecEzssccexbhaH/7I/4mddtwhTjrpxHpuMe6O+c5P7or3/8Oe8c9n3RLX3vBQUads5bXfw2fG57/2l3hw0erKwPldxZhh2YKsu7srjnnGDjFn1vpWeFmpbCV23DE7x167TYuPfeGWop5/uG5J8WmVBz1uq7j8tw9Wrh1x6BO2jqcesk2c/qkbx52FAhEgQIAAAQIECBAgQIAAgU4X2CAQ6/QKt3v9nnLYYfGFsz5X+QTJD1WCsfdWPr1wesyZMycOr3SR/Pu/f1NRvQy0vnDW5+Md7zwlPvsvnyvCm0MOOTiOOab+T4E844zT4v3/eGo85fAjK2OM7VKMXZZjkmUod8AjH1kZe+yUeNmxryhao61ctTIe+9jHxmte8+q25c0Q7OzzbouXPWen2H3e1Fhd+fTH+ZXujmdWBsDP1l05nfnpG+Pdb9ozjn/hLpUWd+viqmsWx4WX3T+kzhdV1k88dm78uBKMld0rl6/or5x7U7zj9bvHG4+fF8sq6wsrAdsnvjh/yLlWCBAgQIAAAQIECBAgQIAAgdYIdB11/JUDg0D97X4rVwx082rN7Rt3l021ELvgvMc37mabcaV1leZA/f1r4667749tt91qM87c9KH5iZDLli2NbbYZGPi91hn33ntvzJw5K6ZOnVJr9ya35UD82dosQ7fhU9bt7rvvie233y56etZ/uuLw47Z0fcGCByutzrapXLu7aAlXfZ0c3H/FihXxojf8qXpzQ5bzkyIz8Fq5am3N622zVV88tLR/xP01T/rbxmxRtnJVf+T4Y42cvv/F/WLKlCmV8NPnZDTS1bUIECBAgAABAgQIECBAoDMFtBBr4+eaIdemgq7tK+OJjWbKwfjzq9aUY45VjzFW65h23JYtujY23V8ZT2xLp4WLt/zcLb2n8wgQIECAAAECBAgQIECAAIGhApqTDPWwRoAAAQIECBAgQIAAAQIECBAg0OECArEOf8CqR4AAAQIECBAgQIAAAQIECBAgMFRAIDbUwxoBAgQIECBAgAABAgQIECBAgECHCwjEOvwBqx4BAgQIECBAgAABAgQIECBAgMBQAYHYUA9rBAgQIECAAAECBAgQIECAAAECHS4gEOvwB6x6BAgQIECAAAECBAgQIECAAAECQwUEYkM9rBEgQIAAAQIECBAgQIAAAQIECHS4gECswx+w6hEgQIAAAQIECBAgQIAAAQIECAwVEIgN9WjaWldXxLp165p2/U67cFql2aambt/BwWBT3yX2EyBAgAABAgQIECBAgACBoQJNjRN2nzc7yq/ytrl+5CHziu3ltk6fZ7DT29sbq1ev6fSqNqx+aZVmGwvFuio7d9lxUsPu2a4XSoO0MBEgQIAAAQIECBAgQIAAAQL1CfTWd9jmHZWB1xEHz42LLr09dps7qzg51zMMyym35/oJx+0f55x/Tcy/bVGxvTP/k0FFV0ydOimWLVsefX0Z8ggvNvass3VYWk2bNrmwS7/hUxp2dXXHc586J7723QWxbMXa4YdMiPVpUwYM0sL31YR45CpJgAABAgQIECBAgAABAg0QaHgglqFXhmAZel14yW2DRcztua06/MptnR6KZfaVX9OmTi5aiC1atKQS9EwVjA1+Z6xfyCAsW4YNBIc9hVnpt/6o9Us9Pd3xlCdtFTfcsjwu++3SCReKZRh20GOnFwZpYSJAgAABAgQIECBAgAABAgTqE2h4IFa2DKsOvrIo5Xq2HiuDstyWIVkGY+X++ordXkdly53u7p6YNXN6JexZEcuXL48li/vDiGJDn2O2A+vt64mpUyZVQsMphdlIrZ5ye09PT0yaNDlOPHbH2HPXB+KnFy6Ov967OtZ2eGOxHDNs5+374tlHzorDn7x1YZAWI1kNVbZGgAABAgQIECBAgAABAgQINDwQy3Aru0HWmsqulGUglsfk8ofec/BgSFbrvHbfNhCIZS16Yvr0qZXuk5P/NsC+SGzos81ukBkedv/ta2B96DHr1/LY7IIaMTWOPHi7OPQJs6O/vxI0VlqaVf6/I6dKlQujDMD6+iZVwrBJWht25JNWKQIECBAgQIAAAQIECBBopkDDA7HqwmY4llPZ+qtsPZbBWG4rt5fz6nM7bbkMxXKspwx8Kp852bGhzZY+uwx7crywMvRJs41NZXg2aVJfpbVYdxEOrVu39m9h48bObO99We/8Pso6ly3DNmXV3jVWegIECBAgQIAAAQIECBAg0FiBhgdi2QWyDLwyEMvxxMpgrBxXLPeX2xpbnfF9tYEgYyDkyVZMpg0FNjfYKU1zXvlQyo4Pw0qx0qmcl9vNCRAgQIAAAQIECBAgQIAAgU0LNDwQq+4CWbb8KrtKnvrRS4sSVXeZzEH1MyibaJMgo7FPvPQs5429uqsRIECAAAECBAgQIECAAAECnSTQlI+my4Arg65yymCsVuiVx9x6++LBrpPl8eYECBAgQIAAAQIECBAgQIAAAQIEmiXQlEAsW4BVh2IZiFW3CsvKlGHY8O3NqqjrEiBAgAABAgQIECBAgAABAgQIEEiBhneZLFnL7pJll8hyPccOKwfXL7eV55gTIECAAAECBAgQIECAAAECBAgQaLZAU1qIlYXOwKtsKZZBWH4ND8jKY80JECBAgAABAgQIECBAgAABAgQItEKgaS3EysJnKHbO+dcMjimWy1qGlTrmBAgQIECAAAECBAgQIECAAAECrRZoeiCWFSpDMUFYqx+v+xEgQIAAAQIECBAgQIAAAQIECAwXaGqXyeqbCcOqNSwTIECAAAECBAgQIECAAAECBAiMlUDLArGxqqD7EiBAgAABAgQIECBAgAABAgQIEKgWEIhVa1gmQIAAAQIECBAgQIAAAQIECBDoeAGBWMc/YhUkQIAAAQIECBAgQIAAAQIECBCoFhCIVWtYJkCAAAECBAgQIECAAAECBAgQ6HgBgVjHP2IVJECAAAECBAgQIECAAAECBAgQqBYQiFVrWCZAgAABAgQIECBAgAABAgQIEOh4AYFYxz9iFSRAgAABAgQIECBAgAABAgQIEKgWEIhVa1gmQIAAAQIECBAgQIAAAQIECBDoeAGBWMc/YhUkQIAAAQIECBAgQIAAAQIECBCoFhCIVWtYJkCAAAECBAgQIECAAAECBAgQ6HgBgVjHP2IVJECAAAECBAgQIECAAAECBAgQqBYQiFVrWCZAgAABAgQIECBAgAABAgQIEOh4AYFYxz9iFSRAgAABAgQIECBAgAABAgQIEKgWEIhVa1gmQIAAAQIECBAgQIAAAQIECBDoeAGBWMc/YhUkQIAAAQIECBAgQIAAAQIECBCoFhCIVWtYJkCAAAECBAgQIECAAAECBAgQ6HgBgVjHP2IVJECAAAECBAgQIECAAAECBAgQqBYQiFVrWCZAgAABAgQIECBAgAABAgQIEOh4AYFYxz9iFSRAgAABAgQIECBAgAABAgQIEKgWEIhVa1gmQIAAAQIECBAgQIAAAQIECBDoeAGBWMc/YhUkQIAAAQIECBAgQIAAAQIECBCoFhCIVWtYJkCAAAECBAgQIECAAAECBAgQ6HgBgVjHP2IVJECAAAECBAgQIECAAAECBAgQqBYQiFVrWCZAgAABAgQIECBAgAABAgQIEOh4AYFYxz9iFSRAgAABAgQIECBAgAABAgQIEKgW6K1eafTykYfMi93mzoqLLr095t+2KMr1W29fHBdeclvsPm92HHHw3CjXG31/1yNAgAABAgQIECBAgAABAgQIECAwXKCpgViGYeecf83gPTMEq54yJMuvD73n4CIgq95nmQABAgQIECBAgAABAgQIECBAgEAzBJraZTJbhtUzVYdm9RzvGAIECBAgQIAAAQIECBAgQIAAAQJbKtDUQCxbf9Uz1XtcPddyDAECBAgQIECAAAECBAgQIECAAIGNCTQ1EMsxw+qZ6j2unms5hgABAgQIECBAgAABAgQIECBAgMDGBJoaiOUYYvVMObC+iQABAgQIECBAgAABAgQIECBAgEArBJoaiOWnR9Yz6TJZj5JjCBAgQIAAAQIECBAgQIAAAQIEGiHQ8E+Z3H3e7Khu8XXCcftHBmMZeo0UfBlUvxGP0jUIECBAgAABAgQIECBAgAABAgTqEWh4C7EMwPLTJfPr+hsfKOZZkOqQbHjBMkQzESBAgAABAgQIECBAgAABAgQIEGiFQMMDsbIlWM732XvrjbYMKyuYIZqJAAECBAgQIECAAAECBAgQIECAQCsEGt5lcnihM+zKlmI55adJ5kD72XosA7Oye2WumwgQIECAAAECBAgQIECAAAECBAi0QqCpgVg5NlgGX9la7MJLbhtSp7I12ZCNVggQIECAAAECBAgQIECAAAECBAg0UaDhXSabWFaXJkCAAAECBAgQIECAAAECBAgQIDBqgYa3EMtPlPzQew7eoGC6RW5AYgMBAgQIECBAgAABAgQIECBAgMAYCDQ8EMtukcO7Ro5BvdySAAECBAgQIECAAAECBAgQIECAQE0BXSZrsthIgAABAgQIECBAgAABAgQIECDQqQICsU59supFgAABAgQIECBAgAABAgQIECBQU0AgVpPFRgIECBAgQIAAAQIECBAgQIAAgU4VEIh16pNVLwIECBAgQIAAAQIECBAgQIAAgZoCArGaLDYSIECAAAECBAgQIECAAAECBAh0qoBArFOfrHoRIECAAAECBAgQIECAAAECBAjUFBCI1WSxkQABAgQIECBAgAABAgQIECBAoFMFBGKd+mTViwABAgQIECBAgAABAgQIECBAoKaAQKwmi40ECBAgQIAAAQIECBAgQIAAAQKdKiAQ69Qnq14ECBAgQIAAAQIECBAgQIAAAQI1BQRiNVlsJECAAAECBAgQIECAAAECBAgQ6FQBgVinPln1IkCAAAECBAgQIECAAAECBAgQqCkgEKvJYiMBAgQIECBAgAABAgQIECBAgECnCgjEOvXJqhcBAgQIECBAgAABAgQIECBAgEBNAYFYTRYbCRAgQIAAAQIECBAgQIAAAQIEOlVAINapT1a9CBAgQIAAAQIECBAgQIAAAQIEagoIxGqy2EiAAAECBAgQIECAAAECBAgQINCpAgKxTn2y6kWAAAECBAgQIECAAAECBAgQIFBTQCBWk8VGAgQIECBAgAABAgQIECBAgACBThUQiHXqk1UvAgQIECBAgAABAgQIECBAgACBmgICsZosNhIgQIAAAQIECBAgQIAAAQIECHSqgECsU5+sehEgQIAAAQIECBAgQIAAAQIECNQUEIjVZLGRAAECBAgQIECAAAECBAgQIECgUwUEYp36ZNWLAAECBAgQIECAAAECBAgQIECgpoBArCaLjQQIECBAgAABAgQIECBAgAABAp0q0NuMiu0+b3YccfDcTV46jzvn/Gti/m2LNnmsAwgQIECAAAECBAgQIECAAAECBAg0QqBpgVgGXZuayuBMILYpKfsJECBAgAABAgQIECBAgAABAgQaJdCULpO7zZ1VlO/IQ+bFCcftP2JZBWEj0thBgAABAgQIECBAgAABAgQIECDQJIGmtBAry3rhJbeVi+YECBAgQIAAAQIECBAgQIAAAQIExoVA0wKxjbUMGxc1VwgCBAgQIECAAAECBAgQIECAAIEJKdC0QOyiS2+vC7SewffrupCDCBAgQIAAAQIECBAgQIAAAQIECNQh0LRALMcHyzHEcr6xscIEYnU8JYcQIECAAAECBAgQIECAAAECBAg0TKApg+qXpcsgLD9J0kSAAAECBAgQIECAAAECBAgQIEBgvAg0rYVYGYQJxcbLo1YOAgQIECBAgAABAgQIECBAgACBFGh6IIaZAAECBAgQIECAAAECBAgQIECAwHgSaFogduElt9VVT59GWReTgwgQIECAAAECBAgQIECAAAECBBok0NQxxDLsyoH1TQQIECBAgAABAgQIECBAgAABAgTGi0DTWojlGGLnnH/NJut56+2LN3mMAwgQIECAAAECBAgQIECAAAECBAg0SqApgdhFl94e9XSFzAH381gTAQIECBAgQIAAAQIECBAgQIAAgVYJNCUQy6Dr1I9e2qo6uA8BAgQIECBAgAABAgQIECBAgACBugWaOoZY3aVwIAECBAgQIECAAAECBAgQIECAAIEWCQjEWgTtNgQIECBAgAABAgQIECBAgAABAuNDQCA2Pp6DUhAgQIAAAQIECBAgQIAAAQIECLRIQCDWImi3IUCAAAECBAgQIECAAAECBAgQGB8CArHx8RyUggABAgQIECBAgAABAgQIECBAoEUCArEWQbsNAQIECBAgQIAAAQIECBAgQIDA+BAQiI2P56AUBAgQIECAAAECBAgQIECAAAECLRIQiLUI2m0IECBAgAABAgQIECBAgAABAgTGh4BAbHw8B6UgQIAAAQIECBAgQIAAAQIECBBokYBArEXQbkOAAAECBAgQIECAAAECBAgQIDA+BARi4+M5KAUBAgQIECBAgAABAgQIECBAgECLBARiLYJ2GwIECBAgQIAAAQIECBAgQIAAgfEhIBAbH89BKQgQIECAAAECBAgQIECAAAECBFokIBBrEbTbECBAgAABAgQIECBAgAABAgQIjA8Bgdj4eA5KQYAAAQIECBAgQIAAAQIECBAg0CKBGoFYV4tu3cjbtGOZG1l/1yJAgAABAgQIECBAgAABAgQIEKhXYINArLu7r95zx81x7VjmcYOnIAQIECBAgAABAgQIECBAgACBCSawQSDW0zO17Qjascxth6zABAgQIECAAAECBAgQIECAAIEOEdggEOvumRI9vdPapnpZ1iyziQABAgQIECBAgAABAgQIECBAgEA9Av8f4bzmV95Uv1EAAAAASUVORK5CYII=;clipPath=inset(7.92% 5.33% 0% 0%);" vertex="1" parent="1">
          <mxGeometry x="210" y="130" width="1220" height="799.0140845070423" as="geometry" />
        </mxCell>
        <mxCell id="hO_gINSzXX099s7IQLVb-4" value="" style="rounded=0;whiteSpace=wrap;html=1;strokeColor=#FFFFFF;" vertex="1" parent="1">
          <mxGeometry x="290" y="400" width="1080" height="330" as="geometry" />
        </mxCell>
        <mxCell id="hO_gINSzXX099s7IQLVb-5" value="" style="rounded=1;whiteSpace=wrap;html=1;" vertex="1" parent="1">
          <mxGeometry x="380" y="540" width="110" height="45" as="geometry" />
        </mxCell>
      </root>
    </mxGraphModel>
  </diagram>
</mxfile>
